<?xml version="1.0" encoding="utf-8"?>
<!-- Generator: Adobe Illustrator 23.0.5, SVG Export Plug-In . SVG Version: 6.00 Build 0)  -->
<svg version="1.1" id="Warstwa_1" xmlns="http://www.w3.org/2000/svg" xmlns:xlink="http://www.w3.org/1999/xlink" x="0px" y="0px"
	 viewBox="0 0 50 50" enable-background="new 0 0 50 50" xml:space="preserve">
<g id="Cart_00000015328044755038501950000006826160638574892983_">
	<path fill="currentColor" d="M36.1,30.1H13.2c-0.9,0-1.6-0.7-1.6-1.6V13.9c0-0.9,0.7-1.6,1.6-1.6h29.2c0.5,0,1,0.3,1.3,0.7
		c0.3,0.4,0.3,1,0.1,1.5l-6.3,14.6C37.3,29.7,36.7,30.1,36.1,30.1z M14.7,26.9h20.3L40,15.5H14.7V26.9z"/>
	<path fill="currentColor" d="M13.2,15.5c-0.9,0-1.6-0.7-1.6-1.6V7.1H9c-0.9,0-1.6-0.7-1.6-1.6S8.1,4,9,4h4.2c0.9,0,1.6,0.7,1.6,1.6v8.3
		C14.7,14.8,14,15.5,13.2,15.5z"/>
	<g>
		<path fill="currentColor" d="M36.1,38.4H17.3c-3.2,0-5.7-2.6-5.7-5.7v-4.2c0-0.9,0.7-1.6,1.6-1.6c0.9,0,1.6,0.7,1.6,1.6v4.2
			c0,1.4,1.2,2.6,2.6,2.6h18.8c0.9,0,1.6,0.7,1.6,1.6S37,38.4,36.1,38.4z"/>
		<path fill="currentColor" d="M19.4,44.7c-0.4,0-0.8-0.2-1.1-0.5c-0.3-0.3-0.5-0.7-0.5-1.1c0-0.2,0-0.4,0.1-0.6c0.1-0.2,0.2-0.4,0.3-0.5
			c0.1-0.2,0.3-0.3,0.5-0.3c0.6-0.2,1.3-0.1,1.7,0.3c0.1,0.1,0.3,0.3,0.3,0.5c0.1,0.2,0.1,0.4,0.1,0.6c0,0.4-0.2,0.8-0.5,1.1
			C20.2,44.5,19.8,44.7,19.4,44.7z"/>
		<path fill="currentColor" d="M31.9,44.7c-0.4,0-0.8-0.2-1.1-0.5c-0.3-0.3-0.5-0.7-0.5-1.1c0-0.2,0-0.4,0.1-0.6c0.1-0.2,0.2-0.4,0.3-0.5
			c0.4-0.4,0.9-0.5,1.4-0.4c0.1,0,0.2,0.1,0.3,0.1c0.1,0,0.2,0.1,0.3,0.1c0.1,0.1,0.2,0.1,0.2,0.2c0.1,0.1,0.3,0.3,0.3,0.5
			c0.1,0.2,0.1,0.4,0.1,0.6c0,0.4-0.2,0.8-0.5,1.1C32.7,44.5,32.3,44.7,31.9,44.7z"/>
	</g>
</g>
</svg>
