<?xml version="1.0" encoding="utf-8"?>
<!-- Generator: Adobe Illustrator 23.0.5, SVG Export Plug-In . SVG Version: 6.00 Build 0)  -->
<svg version="1.1" id="Warstwa_1" xmlns="http://www.w3.org/2000/svg" xmlns:xlink="http://www.w3.org/1999/xlink" x="0px" y="0px"
	 viewBox="0 0 50 50" enable-background="new 0 0 50 50" xml:space="preserve">
<g>
	<path fill="#FFFFFF" d="M13.5,31.6c-3.1,0-5.7-2.6-5.7-5.7c0-3.1,2.6-5.7,5.7-5.7c3.1,0,5.7,2.6,5.7,5.7
		C19.2,29,16.7,31.6,13.5,31.6z M13.5,22.6c-1.8,0-3.3,1.5-3.3,3.3s1.5,3.3,3.3,3.3c1.8,0,3.3-1.5,3.3-3.3S15.3,22.6,13.5,22.6z"/>
	<path fill="#FFFFFF" d="M20.3,45.1c-0.7,0-1.2-0.5-1.2-1.2v-2.3c0-1.8-1.5-3.3-3.3-3.3h-4.5c-1.8,0-3.3,1.5-3.3,3.3v2.3
		c0,0.7-0.5,1.2-1.2,1.2s-1.2-0.5-1.2-1.2v-2.3c0-3.1,2.6-5.7,5.7-5.7h4.5c3.1,0,5.7,2.6,5.7,5.7v2.3C21.5,44.6,20.9,45.1,20.3,45.1
		z"/>
	<path fill="#FFFFFF" d="M24.8,36.1c-0.2,0-0.3,0-0.5-0.1c-0.4-0.2-0.7-0.6-0.7-1.1v-6.8c0-0.7,0.5-1.2,1.2-1.2s1.2,0.5,1.2,1.2V32
		l4.7-4.7c0.2-0.2,0.5-0.4,0.8-0.4h6.8c1.8,0,3.3-1.5,3.3-3.3V12.4c0-1.8-1.5-3.3-3.3-3.3H22.5c-1.8,0-3.3,1.5-3.3,3.3v2.3
		c0,0.7-0.5,1.2-1.2,1.2c-0.7,0-1.2-0.5-1.2-1.2v-2.3c0-3.1,2.6-5.7,5.7-5.7h15.8c3.1,0,5.7,2.6,5.7,5.7v11.3c0,3.1-2.6,5.7-5.7,5.7
		H32l-6.4,6.4C25.4,36,25.1,36.1,24.8,36.1z"/>
	<path fill="#FFFFFF" d="M36,15.8H24.8c-0.7,0-1.2-0.5-1.2-1.2s0.5-1.2,1.2-1.2H36c0.7,0,1.2,0.5,1.2,1.2S36.7,15.8,36,15.8z"/>
	<path fill="#FFFFFF" d="M36,22.6H24.8c-0.7,0-1.2-0.5-1.2-1.2c0-0.7,0.5-1.2,1.2-1.2H36c0.7,0,1.2,0.5,1.2,1.2
		C37.2,22,36.7,22.6,36,22.6z"/>
</g>
</svg>
