<?xml version="1.0" encoding="utf-8"?>
<!-- Generator: Adobe Illustrator 23.0.5, SVG Export Plug-In . SVG Version: 6.00 Build 0)  -->
<svg version="1.1" id="Warstwa_1" xmlns="http://www.w3.org/2000/svg" xmlns:xlink="http://www.w3.org/1999/xlink" x="0px" y="0px"
	 viewBox="0 0 50 50" enable-background="new 0 0 50 50" xml:space="preserve">
<path fill="#FFFFFF" d="M25.6,36.1c-1.1,0-2-0.9-2-2V10c0-1.1,0.9-2,2-2c1.1,0,2,0.9,2,2v24.2C27.6,35.2,26.7,36.1,25.6,36.1z"/>
<path fill="#FFFFFF" d="M25.6,36.1c-0.5,0-1.1-0.2-1.4-0.6l-9.4-10.1c-0.7-0.8-0.7-2,0.1-2.8c0.8-0.7,2-0.7,2.8,0.1l8,8.6l8-8.6
	c0.7-0.8,2-0.8,2.8-0.1c0.8,0.7,0.8,2,0.1,2.8L27,35.5C26.7,35.9,26.2,36.1,25.6,36.1z"/>
<path fill="#FFFFFF" d="M38.8,44.2H12.4c-1.1,0-2-0.9-2-2c0-1.1,0.9-2,2-2h26.4c1.1,0,2,0.9,2,2C40.8,43.3,39.9,44.2,38.8,44.2z"/>
</svg>
