<?xml version="1.0" encoding="utf-8"?>
<!-- Generator: Adobe Illustrator 23.0.5, SVG Export Plug-In . SVG Version: 6.00 Build 0)  -->
<svg version="1.1" id="Warstwa_1" xmlns="http://www.w3.org/2000/svg" xmlns:xlink="http://www.w3.org/1999/xlink" x="0px" y="0px"
	 viewBox="0 0 40 28.4" enable-background="new 0 0 40 28.4" xml:space="preserve">
<g>
	<defs>
		<rect id="SVGID_293_" x="-14.2" y="-9.1" width="68.7" height="43.9"/>
	</defs>
	<clipPath id="SVGID_1_">
		<use xlink:href="#SVGID_293_"  overflow="visible"/>
	</clipPath>
	<g clip-path="url(#SVGID_1_)">
		<g>
			<polygon fill="#000D7F" points="0,19.6 0,23.9 6.3,19.6 			"/>
			<polygon fill="#000D7F" points="4.1,28.4 15.9,28.4 15.9,20.5 			"/>
			<polygon fill="#000D7F" points="40,23.9 40,19.6 33.7,19.6 			"/>
			<polygon fill="#000D7F" points="24,28.4 35.9,28.4 24,20.5 			"/>
			<polygon fill="#000D7F" points="0,4.6 0,8.8 6.5,8.8 			"/>
			<polygon fill="#000D7F" points="35.9,0 24,0 24,8 			"/>
			<polygon fill="#000D7F" points="15.9,0 4.1,0 15.9,7.9 			"/>
			<polygon fill="#000D7F" points="40,8.8 40,4.6 33.8,8.8 			"/>
			<path fill="#FFFFFF" d="M0,17.4v2.2h6.3L0,23.9V26c0,0.5,0.1,0.9,0.4,1.3l11.5-7.7l3.7,0L2.5,28.4h1.6l11.8-7.9v7.9h1.6v-11H0z"
				/>
			<path fill="#FFFFFF" d="M40,10.9V8.8h-6.2L40,4.6V2.4c0-0.5-0.1-0.9-0.4-1.2L28.2,8.8h-3.9L37.6,0c0,0,0,0,0,0h-1.7L24,8V0h-1.6
				v10.9H40z"/>
			<path fill="#FFFFFF" d="M17.5,0h-1.6v7.9L4.1,0H2.4c-0.8,0-1.6,0.5-2,1.1L12,8.8l-3.7,0L0,3.3v1.3l6.5,4.2H0v2.1h17.5V0z"/>
			<path fill="#FFFFFF" d="M31.8,19.6L40,25v-1.1l-6.3-4.3H40v-2.2H22.4v11H24v-7.9l11.8,7.9h1.8c0.9,0,1.6-0.5,2-1.1l-11.5-7.7
				L31.8,19.6z"/>
			<polygon fill="#D41800" points="40,17.4 40,10.9 22.4,10.9 22.4,0 17.5,0 17.5,10.9 0,10.9 0,17.4 17.5,17.4 17.5,28.4 
				22.4,28.4 22.4,17.4 			"/>
			<path fill="#D41800" d="M12,8.8L0.4,1.1C0.1,1.5,0,1.9,0,2.4v0.9l8.3,5.5L12,8.8z"/>
			<path fill="#D41800" d="M28.2,8.8l11.4-7.7c-0.4-0.7-1.2-1.1-2-1.1L24.4,8.8H28.2z"/>
			<path fill="#D41800" d="M11.9,19.6L0.4,27.2c0.4,0.7,1.2,1.1,2,1.1h0.1l13.1-8.8L11.9,19.6z"/>
			<path fill="#D41800" d="M31.8,19.6l-3.7,0l11.5,7.7c0.2-0.4,0.4-0.8,0.4-1.3V25L31.8,19.6z"/>
		</g>
	</g>
</g>
</svg>
