<?xml version="1.0" encoding="utf-8"?>
<!-- Generator: Adobe Illustrator 23.0.5, SVG Export Plug-In . SVG Version: 6.00 Build 0)  -->
<svg version="1.1" id="Warstwa_1" xmlns="http://www.w3.org/2000/svg" xmlns:xlink="http://www.w3.org/1999/xlink" x="0px" y="0px"
	 viewBox="0 0 50 50" enable-background="new 0 0 50 50" xml:space="preserve">
<path fill="#FFFFFF" d="M38.1,43.7H11.6c-3.2,0-5.9-2.6-5.9-5.9V25.7c0-3.2,2.6-5.9,5.9-5.9h26.6c3.2,0,5.9,2.6,5.9,5.9v12.2
	C44,41.1,41.4,43.7,38.1,43.7z M11.6,23.1c-1.5,0-2.7,1.2-2.7,2.7v12.2c0,1.5,1.2,2.7,2.7,2.7h26.6c1.5,0,2.7-1.2,2.7-2.7V25.7
	c0-1.5-1.2-2.7-2.7-2.7H11.6z"/>
<path fill="#FFFFFF" d="M38,23.1c-0.9,0-1.6-0.7-1.6-1.6v-4.1c0-3.7-3.2-6.7-7.2-6.7h-8.8c-4,0-7.2,3-7.2,6.7v4.1
	c0,0.9-0.7,1.6-1.6,1.6c-0.9,0-1.6-0.7-1.6-1.6v-4.1c0-5.4,4.6-9.9,10.4-9.9h8.8c5.7,0,10.4,4.4,10.4,9.9v4.1
	C39.6,22.4,38.9,23.1,38,23.1z"/>
<path fill="#FFFFFF" d="M27.1,31.3h-4.4c-0.9,0-1.6-0.7-1.6-1.6s0.7-1.6,1.6-1.6h4.4c0.9,0,1.6,0.7,1.6,1.6S27.9,31.3,27.1,31.3z"/>
<path fill="#FFFFFF" d="M24.9,35.5c-0.9,0-1.6-0.7-1.6-1.6v-4.1c0-0.9,0.7-1.6,1.6-1.6s1.6,0.7,1.6,1.6v4.1
	C26.5,34.8,25.8,35.5,24.9,35.5z"/>
</svg>
