<?xml version="1.0" encoding="utf-8"?>
<!-- Generator: Adobe Illustrator 23.0.5, SVG Export Plug-In . SVG Version: 6.00 Build 0)  -->
<svg version="1.1" id="Warstwa_1" xmlns="http://www.w3.org/2000/svg" xmlns:xlink="http://www.w3.org/1999/xlink" x="0px" y="0px"
	 viewBox="0 0 50 50" enable-background="new 0 0 50 50" xml:space="preserve">
<g>
	<path fill="currentColor" d="M24.7,46c-11,0-20-9.2-20-20.5c0-11.3,9-20.5,20-20.5s20,9.2,20,20.5c0,0.7-0.6,1.3-1.3,1.3
		S42,26.2,42,25.5c0-9.8-7.8-17.8-17.4-17.8c-9.6,0-17.4,8-17.4,17.8c0,9.8,7.8,17.8,17.4,17.8c0.7,0,1.3,0.6,1.3,1.3
		S25.4,46,24.7,46z"/>
	<path fill="currentColor" d="M20.5,33.2H7.1c-0.7,0-1.3-0.6-1.3-1.3c0-0.7,0.6-1.3,1.3-1.3h13.5c0.7,0,1.3,0.6,1.3,1.3
		C21.8,32.6,21.2,33.2,20.5,33.2z"/>
	<path fill="currentColor" d="M42.3,20.4H7.1c-0.7,0-1.3-0.6-1.3-1.3c0-0.7,0.6-1.3,1.3-1.3h35.2c0.7,0,1.3,0.6,1.3,1.3
		C43.6,19.8,43,20.4,42.3,20.4z"/>
	<path fill="currentColor" d="M22.5,45.8c-0.5,0-1-0.3-1.2-0.8c-2.8-6.1-4.2-12.9-4.2-19.6c0-6.7,1.5-13.5,4.2-19.6
		c0.3-0.7,1.1-1,1.8-0.7c0.7,0.3,1,1.1,0.7,1.8c-2.6,5.8-4,12.1-4,18.5c0,6.3,1.4,12.7,4,18.5c0.3,0.7,0,1.4-0.7,1.8
		C22.9,45.8,22.7,45.8,22.5,45.8z"/>
	<path fill="currentColor" d="M30.7,22.5c-0.7,0-1.3-0.5-1.3-1.2c-0.4-4.9-1.7-9.8-3.8-14.3c-0.3-0.7,0-1.4,0.7-1.7
		c0.7-0.3,1.4,0,1.7,0.7c2.2,4.9,3.5,10,4,15.2c0.1,0.7-0.5,1.4-1.2,1.4C30.8,22.5,30.7,22.5,30.7,22.5z"/>
	<path fill="currentColor" d="M33,41.7c-4.2,0-7.6-3.5-7.6-7.7s3.4-7.7,7.6-7.7c4.2,0,7.6,3.5,7.6,7.7S37.1,41.7,33,41.7z M33,28.9
		c-2.7,0-4.9,2.3-4.9,5.1s2.2,5.1,4.9,5.1s4.9-2.3,4.9-5.1S35.7,28.9,33,28.9z"/>
	<path fill="currentColor" d="M41.3,43.8c-0.3,0-0.7-0.1-0.9-0.4l-3.9-4c-0.5-0.5-0.5-1.4,0-1.9c0.5-0.5,1.4-0.5,1.9,0l3.9,4
		c0.5,0.5,0.5,1.4,0,1.9C41.9,43.7,41.6,43.8,41.3,43.8z"/>
</g>
</svg>
