<?xml version="1.0" encoding="utf-8"?>
<!-- Generator: Adobe Illustrator 23.0.5, SVG Export Plug-In . SVG Version: 6.00 Build 0)  -->
<svg version="1.1" id="Warstwa_1" xmlns="http://www.w3.org/2000/svg" xmlns:xlink="http://www.w3.org/1999/xlink" x="0px" y="0px"
	 viewBox="0 0 50 50" enable-background="new 0 0 50 50" xml:space="preserve">
<path fill="#01404F" d="M23,27.5H8.6c-2.2,0-4-1.8-4-4V10.2c0-2.2,1.8-4,4-4H23c2.2,0,4,1.8,4,4v13.3C27,25.7,25.2,27.5,23,27.5z
	 M8.6,9.6C8.3,9.6,8,9.9,8,10.2v13.3c0,0.3,0.3,0.6,0.6,0.6H23c0.3,0,0.6-0.3,0.6-0.6V10.2c0-0.3-0.3-0.6-0.6-0.6H8.6z"/>
<path fill="#01404F" d="M15.8,14.1c-1,0-1.7-0.8-1.7-1.7V7.9c0-1,0.8-1.7,1.7-1.7s1.7,0.8,1.7,1.7v4.5
	C17.5,13.3,16.8,14.1,15.8,14.1z"/>
<path fill="#01404F" d="M22.9,45.4H8.7c-2.3,0-4.1-1.8-4.1-4V25.8c0-1,0.8-1.7,1.7-1.7S8,24.8,8,25.8v15.7C8,41.7,8.3,42,8.7,42
	h14.2c0.4,0,0.6-0.2,0.6-0.5V25.8c0-1,0.8-1.7,1.7-1.7s1.7,0.8,1.7,1.7v15.7C27,43.6,25.2,45.4,22.9,45.4z"/>
<path fill="#01404F" d="M15.8,32c-1,0-1.7-0.8-1.7-1.7v-4.5c0-1,0.8-1.7,1.7-1.7s1.7,0.8,1.7,1.7v4.5C17.5,31.2,16.8,32,15.8,32z"/>
<path fill="#01404F" d="M41.9,45.4H27.7c-2.3,0-4.1-1.8-4.1-4v-9c0-1,0.8-1.7,1.7-1.7s1.7,0.8,1.7,1.7v9c0,0.3,0.3,0.5,0.6,0.5h14.2
	c0.4,0,0.6-0.2,0.6-0.5v-9c0-1,0.8-1.7,1.7-1.7s1.7,0.8,1.7,1.7v9C46,43.6,44.2,45.4,41.9,45.4z"/>
<path fill="#01404F" d="M34.8,38.7c-1,0-1.7-0.8-1.7-1.7v-4.5c0-1,0.8-1.7,1.7-1.7s1.7,0.8,1.7,1.7V37
	C36.5,37.9,35.7,38.7,34.8,38.7z"/>
<path fill="#01404F" d="M42,34.2H27.6c-2.2,0-4-1.8-4-4v-6.6c0-2.2,1.8-4,4-4H42c2.2,0,4,1.8,4,4v6.6C46,32.4,44.2,34.2,42,34.2z
	 M27.6,23c-0.3,0-0.6,0.3-0.6,0.6v6.6c0,0.3,0.3,0.6,0.6,0.6H42c0.3,0,0.6-0.3,0.6-0.6v-6.6c0-0.3-0.3-0.6-0.6-0.6H27.6z"/>
<path fill="#01404F" d="M34.8,27.5c-1,0-1.7-0.8-1.7-1.7v-4.5c0-1,0.8-1.7,1.7-1.7s1.7,0.8,1.7,1.7v4.5
	C36.5,26.7,35.7,27.5,34.8,27.5z"/>
</svg>
