<?xml version="1.0" encoding="utf-8"?>
<!-- Generator: Adobe Illustrator 23.0.5, SVG Export Plug-In . SVG Version: 6.00 Build 0)  -->
<svg version="1.1" id="Warstwa_1"
	xmlns="http://www.w3.org/2000/svg"
	xmlns:xlink="http://www.w3.org/1999/xlink" x="0px" y="0px" viewBox="0 0 50 50" enable-background="new 0 0 50 50" xml:space="preserve">
	<g>
		<path fill="currentColor" d="M25.7,46.3c-12,0-21.7-9.9-21.7-22c0-12.1,9.7-22,21.7-22c12,0,21.7,9.9,21.7,22
		C47.4,36.4,37.7,46.3,25.7,46.3z M25.7,5.9c-9.9,0-18,8.2-18,18.3c0,10.1,8.1,18.3,18,18.3s18-8.2,18-18.3
		C43.7,14.2,35.6,5.9,25.7,5.9z"/>
		<path fill="currentColor" d="M34.5,26.1H16.9c-1,0-1.9-0.8-1.9-1.8c0-1,0.8-1.8,1.9-1.8h17.6c1,0,1.9,0.8,1.9,1.8
		C36.4,25.3,35.6,26.1,34.5,26.1z"/>
	</g>
</svg>
