<?xml version="1.0" encoding="utf-8"?>
<!-- Generator: Adobe Illustrator 23.0.5, SVG Export Plug-In . SVG Version: 6.00 Build 0)  -->
<svg version="1.1" id="Warstwa_1" xmlns="http://www.w3.org/2000/svg" xmlns:xlink="http://www.w3.org/1999/xlink" x="0px" y="0px"
	 viewBox="0 0 50 50" enable-background="new 0 0 50 50" xml:space="preserve">
<g transform="translate(0,5)">
	<path fill="currentColor" d="M48,10.3H2.5c0,0-0.1,0-0.1,0.1v28.4c0,0,0,0.1,0.1,0.1H48c0,0,0.1,0,0.1-0.1L48,10.3
		C48.1,10.3,48,10.3,48,10.3 M46.5,37.3H4V11.9h42.5V37.3z"/>
	<path fill="currentColor" d="M33.1,31.8h2.8c0,0,0.1,0,0.1-0.1v-5.6h5.6c0,0,0.1,0,0.1-0.1v-2.8c0,0,0-0.1-0.1-0.1H36v-2.7h7
		c0,0,0.1,0,0.1-0.1v-2.8c0,0,0-0.1-0.1-0.1h-9.9c0,0-0.1,0-0.1,0.1L33.1,31.8C33,31.7,33,31.8,33.1,31.8"/>
	<path fill="currentColor" d="M20.3,31.8h9.9c0,0,0.1,0,0.1-0.1v-2.8c0,0,0-0.1-0.1-0.1h-7v-2.7h6.3c0,0,0.1,0,0.1-0.1v-2.8
		c0,0,0-0.1-0.1-0.1h-6.3v-2.7h7c0,0,0.1,0,0.1-0.1v-2.8c0,0,0-0.1-0.1-0.1h-9.9c0,0-0.1,0-0.1,0.1L20.3,31.8
		C20.2,31.7,20.3,31.8,20.3,31.8"/>
	<path fill="currentColor" d="M7.5,31.8h2.8c0,0,0.1,0,0.1-0.1v-5h3c0.7,0.1,1.2,0.7,1.2,1.3v3.7c0,0,0,0.1,0.1,0.1h3.5
		c0,0,0.1,0,0.1-0.1c0,0,0-0.1-0.1-0.1c-0.3,0-0.6-0.3-0.6-0.6v-3c0-1.1-0.4-2.1-1.1-2.9c1.7-1.9,1.5-4.8-0.4-6.5
		c-0.8-0.8-1.9-1.2-3.1-1.2H7.5c0,0-0.1,0-0.1,0.1L7.5,31.8C7.4,31.7,7.5,31.8,7.5,31.8 M12.9,23.7h-2.5v-3.3h2.5
		c0.9,0,1.6,0.7,1.6,1.6C14.5,22.9,13.8,23.7,12.9,23.7"/>
</g>
</svg>
