<svg xmlns="http://www.w3.org/2000/svg" xmlns:xlink="http://www.w3.org/1999/xlink"><symbol id="sprite-account" viewBox="0 0 50 50"><title>account</title><g fill="currentColor"><path d="M20.8 22c-4.8 0-8.7-3.9-8.7-8.7s3.9-8.7 8.7-8.7 8.7 3.9 8.7 8.7-3.9 8.7-8.7 8.7zm0-14.2c-3 0-5.5 2.5-5.5 5.5s2.5 5.5 5.5 5.5 5.5-2.5 5.5-5.5-2.5-5.5-5.5-5.5zM6.6 45.7c-.9 0-1.6-.7-1.6-1.6V37c0-6.1 5-11 11.1-11h7.1c.9 0 1.6.7 1.6 1.6 0 .9-.7 1.6-1.6 1.6h-7.1c-4.4 0-7.9 3.5-7.9 7.9v7.1c0 .8-.7 1.5-1.6 1.5zM44.5 45.7H30.3c-.9 0-1.6-.7-1.6-1.6V32.3c0-.9.7-1.6 1.6-1.6h14.2c.9 0 1.6.7 1.6 1.6v11.8c0 .9-.7 1.6-1.6 1.6zm-12.6-3.1H43v-8.7H31.9v8.7z"/><path d="M42.1 33.9c-.9 0-1.6-.7-1.6-1.6v-2.4c0-1.7-1.4-3.2-3.2-3.2s-3.2 1.4-3.2 3.2v2.4c0 .9-.7 1.6-1.6 1.6s-1.6-.7-1.6-1.6v-2.4c0-3.5 2.8-6.3 6.3-6.3s6.3 2.8 6.3 6.3v2.4c.2.9-.5 1.6-1.4 1.6z"/></g></symbol><symbol id="sprite-cart" viewBox="0 0 50 50"><title>cart</title><g fill="currentColor"><path d="M36.1 30.1H13.2c-.9 0-1.6-.7-1.6-1.6V13.9c0-.9.7-1.6 1.6-1.6h29.2c.5 0 1 .3 1.3.7.3.4.3 1 .1 1.5l-6.3 14.6c-.2.6-.8 1-1.4 1zm-21.4-3.2H35l5-11.4H14.7v11.4z"/><path d="M13.2 15.5c-.9 0-1.6-.7-1.6-1.6V7.1H9c-.9 0-1.6-.7-1.6-1.6S8.1 4 9 4h4.2c.9 0 1.6.7 1.6 1.6v8.3c-.1.9-.8 1.6-1.6 1.6zM36.1 38.4H17.3c-3.2 0-5.7-2.6-5.7-5.7v-4.2c0-.9.7-1.6 1.6-1.6.9 0 1.6.7 1.6 1.6v4.2c0 1.4 1.2 2.6 2.6 2.6h18.8c.9 0 1.6.7 1.6 1.6s-.8 1.5-1.7 1.5zm-16.7 6.3c-.4 0-.8-.2-1.1-.5-.3-.3-.5-.7-.5-1.1 0-.2 0-.4.1-.6.1-.2.2-.4.3-.5.1-.2.3-.3.5-.3.6-.2 1.3-.1 1.7.3.1.1.3.3.3.5.1.2.1.4.1.6 0 .4-.2.8-.5 1.1-.1.3-.5.5-.9.5zm12.5 0c-.4 0-.8-.2-1.1-.5-.3-.3-.5-.7-.5-1.1 0-.2 0-.4.1-.6.1-.2.2-.4.3-.5.4-.4.9-.5 1.4-.4.1 0 .2.1.3.1.1 0 .2.1.3.1.1.1.2.1.2.2.1.1.3.3.3.5.1.2.1.4.1.6 0 .4-.2.8-.5 1.1-.1.3-.5.5-.9.5z"/></g></symbol><symbol id="sprite-contact" viewBox="0 0 50 50"><title>contact</title><g fill="#FFF"><path d="M13.5 31.6c-3.1 0-5.7-2.6-5.7-5.7s2.6-5.7 5.7-5.7 5.7 2.6 5.7 5.7-2.5 5.7-5.7 5.7zm0-9c-1.8 0-3.3 1.5-3.3 3.3s1.5 3.3 3.3 3.3c1.8 0 3.3-1.5 3.3-3.3s-1.5-3.3-3.3-3.3zm6.8 22.5c-.7 0-1.2-.5-1.2-1.2v-2.3c0-1.8-1.5-3.3-3.3-3.3h-4.5c-1.8 0-3.3 1.5-3.3 3.3v2.3c0 .7-.5 1.2-1.2 1.2s-1.2-.5-1.2-1.2v-2.3c0-3.1 2.6-5.7 5.7-5.7h4.5c3.1 0 5.7 2.6 5.7 5.7v2.3c0 .7-.6 1.2-1.2 1.2zm4.5-9c-.2 0-.3 0-.5-.1-.4-.2-.7-.6-.7-1.1v-6.8c0-.7.5-1.2 1.2-1.2s1.2.5 1.2 1.2V32l4.7-4.7c.2-.2.5-.4.8-.4h6.8c1.8 0 3.3-1.5 3.3-3.3V12.4c0-1.8-1.5-3.3-3.3-3.3H22.5c-1.8 0-3.3 1.5-3.3 3.3v2.3c0 .7-.5 1.2-1.2 1.2s-1.2-.5-1.2-1.2v-2.3c0-3.1 2.6-5.7 5.7-5.7h15.8c3.1 0 5.7 2.6 5.7 5.7v11.3c0 3.1-2.6 5.7-5.7 5.7H32l-6.4 6.4c-.2.2-.5.3-.8.3z"/><path d="M36 15.8H24.8c-.7 0-1.2-.5-1.2-1.2s.5-1.2 1.2-1.2H36c.7 0 1.2.5 1.2 1.2s-.5 1.2-1.2 1.2zm0 6.8H24.8c-.7 0-1.2-.5-1.2-1.2s.5-1.2 1.2-1.2H36c.7 0 1.2.5 1.2 1.2 0 .6-.5 1.2-1.2 1.2z"/></g></symbol><symbol id="sprite-download" viewBox="0 0 50 50"><title>download</title><path fill="#FFF" d="M25.6 36.1c-1.1 0-2-.9-2-2V10c0-1.1.9-2 2-2s2 .9 2 2v24.2c0 1-.9 1.9-2 1.9z"/><path fill="#FFF" d="M25.6 36.1c-.5 0-1.1-.2-1.4-.6l-9.4-10.1c-.7-.8-.7-2 .1-2.8.8-.7 2-.7 2.8.1l8 8.6 8-8.6c.7-.8 2-.8 2.8-.1.8.7.8 2 .1 2.8L27 35.5c-.3.4-.8.6-1.4.6zm13.2 8.1H12.4c-1.1 0-2-.9-2-2s.9-2 2-2h26.4c1.1 0 2 .9 2 2s-.9 2-2 2z"/></symbol><symbol id="sprite-en" viewBox="0 0 40 28.4"><title>en</title><defs><path id="a" d="M-14.2-9.1h68.7v43.9h-68.7z"/></defs><clipPath id="b"><use xmlns:xlink="http://www.w3.org/1999/xlink" xlink:href="#a" overflow="visible"/></clipPath><g clip-path="url(#b)"><path fill="#000D7F" d="M0 19.6v4.3l6.3-4.3zm4.1 8.8h11.8v-7.9zM40 23.9v-4.3h-6.3zm-16 4.5h11.9L24 20.5zM0 4.6v4.2h6.5zM35.9 0H24v8zm-20 0H4.1l11.8 7.9zM40 8.8V4.6l-6.2 4.2z"/><path fill="#FFF" d="M0 17.4v2.2h6.3L0 23.9V26c0 .5.1.9.4 1.3l11.5-7.7h3.7L2.5 28.4h1.6l11.8-7.9v7.9h1.6v-11H0zm40-6.5V8.8h-6.2L40 4.6V2.4c0-.5-.1-.9-.4-1.2L28.2 8.8h-3.9L37.6 0h-1.7L24 8V0h-1.6v10.9H40zM17.5 0h-1.6v7.9L4.1 0H2.4C1.6 0 .8.5.4 1.1L12 8.8H8.3L0 3.3v1.3l6.5 4.2H0v2.1h17.5V0zm14.3 19.6L40 25v-1.1l-6.3-4.3H40v-2.2H22.4v11H24v-7.9l11.8 7.9h1.8c.9 0 1.6-.5 2-1.1l-11.5-7.7h3.7z"/><path fill="#D41800" d="M40 17.4v-6.5H22.4V0h-4.9v10.9H0v6.5h17.5v11h4.9v-11z"/><path fill="#D41800" d="M12 8.8.4 1.1c-.3.4-.4.8-.4 1.3v.9l8.3 5.5H12zm16.2 0 11.4-7.7c-.4-.7-1.2-1.1-2-1.1L24.4 8.8h3.8zM11.9 19.6.4 27.2c.4.7 1.2 1.1 2 1.1h.1l13.1-8.8-3.7.1zm19.9 0h-3.7l11.5 7.7c.2-.4.4-.8.4-1.3v-1l-8.2-5.4z"/></g></symbol><symbol id="sprite-lock" viewBox="0 0 50 50"><title>lock</title><path fill="#FFF" d="M38.1 43.7H11.6c-3.2 0-5.9-2.6-5.9-5.9V25.7c0-3.2 2.6-5.9 5.9-5.9h26.6c3.2 0 5.9 2.6 5.9 5.9v12.2c-.1 3.2-2.7 5.8-6 5.8zM11.6 23.1c-1.5 0-2.7 1.2-2.7 2.7V38c0 1.5 1.2 2.7 2.7 2.7h26.6c1.5 0 2.7-1.2 2.7-2.7V25.7c0-1.5-1.2-2.7-2.7-2.7H11.6z"/><path fill="#FFF" d="M38 23.1c-.9 0-1.6-.7-1.6-1.6v-4.1c0-3.7-3.2-6.7-7.2-6.7h-8.8c-4 0-7.2 3-7.2 6.7v4.1c0 .9-.7 1.6-1.6 1.6-.9 0-1.6-.7-1.6-1.6v-4.1c0-5.4 4.6-9.9 10.4-9.9h8.8c5.7 0 10.4 4.4 10.4 9.9v4.1c0 .9-.7 1.6-1.6 1.6zm-10.9 8.2h-4.4c-.9 0-1.6-.7-1.6-1.6s.7-1.6 1.6-1.6h4.4c.9 0 1.6.7 1.6 1.6s-.8 1.6-1.6 1.6z"/><path fill="#FFF" d="M24.9 35.5c-.9 0-1.6-.7-1.6-1.6v-4.1c0-.9.7-1.6 1.6-1.6s1.6.7 1.6 1.6v4.1c0 .9-.7 1.6-1.6 1.6z"/></symbol><symbol id="sprite-magnify" viewBox="0 0 50 50"><title>magnify</title><g fill="currentColor"><path d="M23.6 40.7C13.9 40.7 6 32.5 6 22.4 6 12.2 13.9 4 23.6 4s17.6 8.2 17.6 18.4c-.1 10.1-7.9 18.3-17.6 18.3zm0-33.4c-7.9 0-14.3 6.8-14.3 15.1s6.4 15.1 14.3 15.1 14.3-6.8 14.3-15.1c-.1-8.3-6.5-15.1-14.3-15.1z"/><path d="M44 45.5c-.4 0-.9-.2-1.2-.5l-9.1-9.6c-.6-.7-.6-1.7.1-2.3.7-.6 1.7-.6 2.3.1l9.1 9.6c.6.7.6 1.7-.1 2.3-.2.3-.6.4-1.1.4z"/></g></symbol><symbol id="sprite-map" viewBox="0 0 50 50"><title>map</title><g fill="currentColor"><path d="M24.7 46c-11 0-20-9.2-20-20.5S13.7 5 24.7 5s20 9.2 20 20.5c0 .7-.6 1.3-1.3 1.3s-1.4-.6-1.4-1.3c0-9.8-7.8-17.8-17.4-17.8-9.6 0-17.4 8-17.4 17.8S15 43.3 24.6 43.3c.7 0 1.3.6 1.3 1.3s-.5 1.4-1.2 1.4z"/><path d="M20.5 33.2H7.1c-.7 0-1.3-.6-1.3-1.3 0-.7.6-1.3 1.3-1.3h13.5c.7 0 1.3.6 1.3 1.3-.1.7-.7 1.3-1.4 1.3zm21.8-12.8H7.1c-.7 0-1.3-.6-1.3-1.3 0-.7.6-1.3 1.3-1.3h35.2c.7 0 1.3.6 1.3 1.3 0 .7-.6 1.3-1.3 1.3z"/><path d="M22.5 45.8c-.5 0-1-.3-1.2-.8-2.8-6.1-4.2-12.9-4.2-19.6 0-6.7 1.5-13.5 4.2-19.6.3-.7 1.1-1 1.8-.7.7.3 1 1.1.7 1.8-2.6 5.8-4 12.1-4 18.5 0 6.3 1.4 12.7 4 18.5.3.7 0 1.4-.7 1.8-.2.1-.4.1-.6.1zm8.2-23.3c-.7 0-1.3-.5-1.3-1.2-.4-4.9-1.7-9.8-3.8-14.3-.3-.7 0-1.4.7-1.7.7-.3 1.4 0 1.7.7 2.2 4.9 3.5 10 4 15.2.1.7-.5 1.4-1.2 1.4 0-.1-.1-.1-.1-.1zM33 41.7c-4.2 0-7.6-3.5-7.6-7.7s3.4-7.7 7.6-7.7c4.2 0 7.6 3.5 7.6 7.7s-3.5 7.7-7.6 7.7zm0-12.8c-2.7 0-4.9 2.3-4.9 5.1s2.2 5.1 4.9 5.1 4.9-2.3 4.9-5.1-2.2-5.1-4.9-5.1z"/><path d="M41.3 43.8c-.3 0-.7-.1-.9-.4l-3.9-4c-.5-.5-.5-1.4 0-1.9s1.4-.5 1.9 0l3.9 4c.5.5.5 1.4 0 1.9-.4.3-.7.4-1 .4z"/></g></symbol><symbol id="sprite-menu" viewBox="0 0 50 50"><title>menu</title><path fill="#01404F" d="M23 27.5H8.6c-2.2 0-4-1.8-4-4V10.2c0-2.2 1.8-4 4-4H23c2.2 0 4 1.8 4 4v13.3c0 2.2-1.8 4-4 4zM8.6 9.6c-.3 0-.6.3-.6.6v13.3c0 .3.3.6.6.6H23c.3 0 .6-.3.6-.6V10.2c0-.3-.3-.6-.6-.6H8.6z"/><path fill="#01404F" d="M15.8 14.1c-1 0-1.7-.8-1.7-1.7V7.9c0-1 .8-1.7 1.7-1.7s1.7.8 1.7 1.7v4.5c0 .9-.7 1.7-1.7 1.7zm7.1 31.3H8.7c-2.3 0-4.1-1.8-4.1-4V25.8c0-1 .8-1.7 1.7-1.7s1.7.7 1.7 1.7v15.7c0 .2.3.5.7.5h14.2c.4 0 .6-.2.6-.5V25.8c0-1 .8-1.7 1.7-1.7s1.7.8 1.7 1.7v15.7c.1 2.1-1.7 3.9-4 3.9z"/><path fill="#01404F" d="M15.8 32c-1 0-1.7-.8-1.7-1.7v-4.5c0-1 .8-1.7 1.7-1.7s1.7.8 1.7 1.7v4.5c0 .9-.7 1.7-1.7 1.7zm26.1 13.4H27.7c-2.3 0-4.1-1.8-4.1-4v-9c0-1 .8-1.7 1.7-1.7s1.7.8 1.7 1.7v9c0 .3.3.5.6.5h14.2c.4 0 .6-.2.6-.5v-9c0-1 .8-1.7 1.7-1.7s1.7.8 1.7 1.7v9c.2 2.2-1.6 4-3.9 4z"/><path fill="#01404F" d="M34.8 38.7c-1 0-1.7-.8-1.7-1.7v-4.5c0-1 .8-1.7 1.7-1.7s1.7.8 1.7 1.7V37c0 .9-.8 1.7-1.7 1.7z"/><path fill="#01404F" d="M42 34.2H27.6c-2.2 0-4-1.8-4-4v-6.6c0-2.2 1.8-4 4-4H42c2.2 0 4 1.8 4 4v6.6c0 2.2-1.8 4-4 4zM27.6 23c-.3 0-.6.3-.6.6v6.6c0 .3.3.6.6.6H42c.3 0 .6-.3.6-.6v-6.6c0-.3-.3-.6-.6-.6H27.6z"/><path fill="#01404F" d="M34.8 27.5c-1 0-1.7-.8-1.7-1.7v-4.5c0-1 .8-1.7 1.7-1.7s1.7.8 1.7 1.7v4.5c0 .9-.8 1.7-1.7 1.7z"/></symbol><symbol id="sprite-minus" viewBox="0 0 50 50"><title>minus</title><g fill="currentColor"><path d="M25.7 46.3c-12 0-21.7-9.9-21.7-22s9.7-22 21.7-22 21.7 9.9 21.7 22-9.7 22-21.7 22zm0-40.4c-9.9 0-18 8.2-18 18.3 0 10.1 8.1 18.3 18 18.3s18-8.2 18-18.3c0-10-8.1-18.3-18-18.3z"/><path d="M34.5 26.1H16.9c-1 0-1.9-.8-1.9-1.8s.8-1.8 1.9-1.8h17.6c1 0 1.9.8 1.9 1.8s-.8 1.8-1.9 1.8z"/></g></symbol><symbol id="sprite-plus" viewBox="0 0 50 50"><title>plus</title><g fill="currentColor"><path d="M25.7 46.3c-12 0-21.7-9.9-21.7-22s9.7-22 21.7-22 21.7 9.9 21.7 22-9.7 22-21.7 22zm0-40.4c-9.9 0-18 8.2-18 18.3 0 10.1 8.1 18.3 18 18.3s18-8.2 18-18.3c0-10-8.1-18.3-18-18.3z"/><path d="M34.5 26.1H16.9c-1 0-1.9-.8-1.9-1.8s.8-1.8 1.9-1.8h17.6c1 0 1.9.8 1.9 1.8s-.8 1.8-1.9 1.8z"/><path d="M23.9 33.1V15.4c0-1 .8-1.9 1.8-1.9s1.8.8 1.8 1.9V33c0 1-.8 1.9-1.8 1.9s-1.8-.8-1.8-1.8z"/></g></symbol><symbol id="sprite-ref" viewBox="0 0 50 50"><title>ref</title><g fill="currentColor"><path d="M48 10.3H2.5s-.1 0-.1.1v28.4s0 .1.1.1H48s.1 0 .1-.1L48 10.3c.1 0 0 0 0 0m-1.5 27H4V11.9h42.5v25.4z" transform="translate(0 5)"/><path d="M33.1 31.8h2.8s.1 0 .1-.1v-5.6h5.6s.1 0 .1-.1v-2.8s0-.1-.1-.1H36v-2.7h7s.1 0 .1-.1v-2.8s0-.1-.1-.1h-9.9s-.1 0-.1.1l.1 14.3c-.1-.1-.1 0 0 0m-12.8 0h9.9s.1 0 .1-.1v-2.8s0-.1-.1-.1h-7v-2.7h6.3s.1 0 .1-.1v-2.8s0-.1-.1-.1h-6.3v-2.7h7s.1 0 .1-.1v-2.8s0-.1-.1-.1h-9.9s-.1 0-.1.1l.1 14.3c-.1-.1 0 0 0 0m-12.8 0h2.8s.1 0 .1-.1v-5h3c.7.1 1.2.7 1.2 1.3v3.7s0 .1.1.1h3.5s.1 0 .1-.1c0 0 0-.1-.1-.1-.3 0-.6-.3-.6-.6v-3c0-1.1-.4-2.1-1.1-2.9 1.7-1.9 1.5-4.8-.4-6.5-.8-.8-1.9-1.2-3.1-1.2H7.5s-.1 0-.1.1l.1 14.3c-.1-.1 0 0 0 0m5.4-8.1h-2.5v-3.3h2.5c.9 0 1.6.7 1.6 1.6 0 .9-.7 1.7-1.6 1.7" transform="translate(0 5)"/></g></symbol></svg>