<svg xmlns="http://www.w3.org/2000/svg" xmlns:xlink="http://www.w3.org/1999/xlink"><symbol id="sprite-account" viewBox="0 0 50 50"><title>account</title><g fill="currentColor"><path d="M20.8 22c-4.8 0-8.7-3.9-8.7-8.7s3.9-8.7 8.7-8.7 8.7 3.9 8.7 8.7-3.9 8.7-8.7 8.7zm0-14.2c-3 0-5.5 2.5-5.5 5.5s2.5 5.5 5.5 5.5 5.5-2.5 5.5-5.5-2.5-5.5-5.5-5.5zM6.6 45.7c-.9 0-1.6-.7-1.6-1.6V37c0-6.1 5-11 11.1-11h7.1c.9 0 1.6.7 1.6 1.6 0 .9-.7 1.6-1.6 1.6h-7.1c-4.4 0-7.9 3.5-7.9 7.9v7.1c0 .8-.7 1.5-1.6 1.5zM44.5 45.7H30.3c-.9 0-1.6-.7-1.6-1.6V32.3c0-.9.7-1.6 1.6-1.6h14.2c.9 0 1.6.7 1.6 1.6v11.8c0 .9-.7 1.6-1.6 1.6zm-12.6-3.1H43v-8.7H31.9v8.7z"/><path d="M42.1 33.9c-.9 0-1.6-.7-1.6-1.6v-2.4c0-1.7-1.4-3.2-3.2-3.2s-3.2 1.4-3.2 3.2v2.4c0 .9-.7 1.6-1.6 1.6s-1.6-.7-1.6-1.6v-2.4c0-3.5 2.8-6.3 6.3-6.3s6.3 2.8 6.3 6.3v2.4c.2.9-.5 1.6-1.4 1.6z"/></g></symbol><symbol id="sprite-cart" viewBox="0 0 50 50"><title>cart</title><g fill="currentColor"><path d="M36.1 30.1H13.2c-.9 0-1.6-.7-1.6-1.6V13.9c0-.9.7-1.6 1.6-1.6h29.2c.5 0 1 .3 1.3.7.3.4.3 1 .1 1.5l-6.3 14.6c-.2.6-.8 1-1.4 1zm-21.4-3.2H35l5-11.4H14.7v11.4z"/><path d="M13.2 15.5c-.9 0-1.6-.7-1.6-1.6V7.1H9c-.9 0-1.6-.7-1.6-1.6S8.1 4 9 4h4.2c.9 0 1.6.7 1.6 1.6v8.3c-.1.9-.8 1.6-1.6 1.6zM36.1 38.4H17.3c-3.2 0-5.7-2.6-5.7-5.7v-4.2c0-.9.7-1.6 1.6-1.6.9 0 1.6.7 1.6 1.6v4.2c0 1.4 1.2 2.6 2.6 2.6h18.8c.9 0 1.6.7 1.6 1.6s-.8 1.5-1.7 1.5zm-16.7 6.3c-.4 0-.8-.2-1.1-.5-.3-.3-.5-.7-.5-1.1 0-.2 0-.4.1-.6.1-.2.2-.4.3-.5.1-.2.3-.3.5-.3.6-.2 1.3-.1 1.7.3.1.1.3.3.3.5.1.2.1.4.1.6 0 .4-.2.8-.5 1.1-.1.3-.5.5-.9.5zm12.5 0c-.4 0-.8-.2-1.1-.5-.3-.3-.5-.7-.5-1.1 0-.2 0-.4.1-.6.1-.2.2-.4.3-.5.4-.4.9-.5 1.4-.4.1 0 .2.1.3.1.1 0 .2.1.3.1.1.1.2.1.2.2.1.1.3.3.3.5.1.2.1.4.1.6 0 .4-.2.8-.5 1.1-.1.3-.5.5-.9.5z"/></g></symbol><symbol id="sprite-en" viewBox="0 0 40 28.4"><title>en</title><defs><path id="a" d="M-14.2-9.1h68.7v43.9h-68.7z"/></defs><clipPath id="b"><use xmlns:xlink="http://www.w3.org/1999/xlink" xlink:href="#a" overflow="visible"/></clipPath><g clip-path="url(#b)"><path fill="#000D7F" d="M0 19.6v4.3l6.3-4.3zm4.1 8.8h11.8v-7.9zM40 23.9v-4.3h-6.3zm-16 4.5h11.9L24 20.5zM0 4.6v4.2h6.5zM35.9 0H24v8zm-20 0H4.1l11.8 7.9zM40 8.8V4.6l-6.2 4.2z"/><path fill="#FFF" d="M0 17.4v2.2h6.3L0 23.9V26c0 .5.1.9.4 1.3l11.5-7.7h3.7L2.5 28.4h1.6l11.8-7.9v7.9h1.6v-11H0zm40-6.5V8.8h-6.2L40 4.6V2.4c0-.5-.1-.9-.4-1.2L28.2 8.8h-3.9L37.6 0h-1.7L24 8V0h-1.6v10.9H40zM17.5 0h-1.6v7.9L4.1 0H2.4C1.6 0 .8.5.4 1.1L12 8.8H8.3L0 3.3v1.3l6.5 4.2H0v2.1h17.5V0zm14.3 19.6L40 25v-1.1l-6.3-4.3H40v-2.2H22.4v11H24v-7.9l11.8 7.9h1.8c.9 0 1.6-.5 2-1.1l-11.5-7.7h3.7z"/><path fill="#D41800" d="M40 17.4v-6.5H22.4V0h-4.9v10.9H0v6.5h17.5v11h4.9v-11z"/><path fill="#D41800" d="M12 8.8.4 1.1c-.3.4-.4.8-.4 1.3v.9l8.3 5.5H12zm16.2 0 11.4-7.7c-.4-.7-1.2-1.1-2-1.1L24.4 8.8h3.8zM11.9 19.6.4 27.2c.4.7 1.2 1.1 2 1.1h.1l13.1-8.8-3.7.1zm19.9 0h-3.7l11.5 7.7c.2-.4.4-.8.4-1.3v-1l-8.2-5.4z"/></g></symbol><symbol id="sprite-magnify" viewBox="0 0 50 50"><title>magnify</title><g fill="currentColor"><path d="M23.6 40.7C13.9 40.7 6 32.5 6 22.4 6 12.2 13.9 4 23.6 4s17.6 8.2 17.6 18.4c-.1 10.1-7.9 18.3-17.6 18.3zm0-33.4c-7.9 0-14.3 6.8-14.3 15.1s6.4 15.1 14.3 15.1 14.3-6.8 14.3-15.1c-.1-8.3-6.5-15.1-14.3-15.1z"/><path d="M44 45.5c-.4 0-.9-.2-1.2-.5l-9.1-9.6c-.6-.7-.6-1.7.1-2.3.7-.6 1.7-.6 2.3.1l9.1 9.6c.6.7.6 1.7-.1 2.3-.2.3-.6.4-1.1.4z"/></g></symbol></svg>