<?xml version="1.0" encoding="utf-8"?>
<!-- Generator: Adobe Illustrator 23.0.5, SVG Export Plug-In . SVG Version: 6.00 Build 0)  -->
<svg version="1.1" id="Warstwa_1" xmlns="http://www.w3.org/2000/svg" xmlns:xlink="http://www.w3.org/1999/xlink" x="0px" y="0px"
	 viewBox="0 0 153 153" enable-background="new 0 0 153 153" xml:space="preserve">
<g>
	<g>
		<defs>
			<path id="SVGID_9_" d="M6.5,77.4c0,38,31.1,68.9,69.5,68.9c38.4,0,69.5-30.8,69.5-68.9S114.4,8.6,76,8.6
				C37.6,8.6,6.5,39.4,6.5,77.4"/>
		</defs>
		<clipPath id="SVGID_1_">
			<use xlink:href="#SVGID_9_"  overflow="visible"/>
		</clipPath>
		<g clip-path="url(#SVGID_1_)">
			<g>
				<defs>
					<rect id="SVGID_5_" x="-4254.5" y="-4635.3" width="139" height="137.7"/>
				</defs>
				<clipPath id="SVGID_2_">
					<use xlink:href="#SVGID_5_"  overflow="visible"/>
				</clipPath>
				<g clip-path="url(#SVGID_2_)">
					<defs>
						<rect id="SVGID_6_" x="-4254.5" y="-4635.3" width="139" height="137.7"/>
					</defs>
					<clipPath id="SVGID_3_">
						<use xlink:href="#SVGID_6_"  overflow="visible"/>
					</clipPath>
					<g clip-path="url(#SVGID_3_)">
						
							<image overflow="visible" width="290" height="288" xlink:href="B9A62126.jpg"  transform="matrix(0.48 0 0 0.48 -4254.52 -4635.4497)">
						</image>
					</g>
				</g>
			</g>
		</g>
	</g>
	<g>
		<g>
			<defs>
				<rect id="SVGID_15_" x="6.5" y="8.6" width="139" height="137.7"/>
			</defs>
			<clipPath id="SVGID_4_">
				<use xlink:href="#SVGID_15_"  overflow="visible"/>
			</clipPath>
			<path clip-path="url(#SVGID_4_)" fill="#EC008C" d="M6.5,77.4c0,38,31.1,68.9,69.5,68.9c38.4,0,69.5-30.8,69.5-68.9
				c0-38-31.1-68.8-69.5-68.8C37.6,8.6,6.5,39.4,6.5,77.4"/>
		</g>
	</g>
	<path fill="#FFFFFF" d="M69.2,45.4v15.7h-3.2v-9c0-0.2,0-0.4,0-0.7c0-0.2,0-0.5,0.1-0.7l-4.2,8.1c-0.1,0.3-0.3,0.4-0.5,0.6
		c-0.2,0.1-0.5,0.2-0.8,0.2H60c-0.3,0-0.5-0.1-0.8-0.2c-0.2-0.1-0.4-0.3-0.5-0.6l-4.2-8.1c0,0.3,0,0.5,0.1,0.8c0,0.2,0,0.5,0,0.7v9
		h-3.2V45.4h2.8c0.2,0,0.3,0,0.4,0c0.1,0,0.2,0,0.3,0.1c0.1,0,0.2,0.1,0.3,0.2s0.2,0.2,0.2,0.3l4.1,8c0.1,0.3,0.3,0.6,0.4,0.9
		c0.1,0.3,0.3,0.6,0.4,0.9c0.1-0.3,0.3-0.6,0.4-0.9c0.1-0.3,0.3-0.6,0.4-0.9l4.1-7.9c0.1-0.1,0.1-0.2,0.2-0.3s0.2-0.1,0.3-0.2
		c0.1,0,0.2-0.1,0.3-0.1c0.1,0,0.3,0,0.4,0H69.2z"/>
	<polygon fill="#FFFFFF" points="76.8,48.2 76.8,51.9 81.8,51.9 81.8,54.6 76.8,54.6 76.8,58.4 83.3,58.4 83.3,61.2 73.1,61.2 
		73.1,45.4 83.3,45.4 83.3,48.2 	"/>
	<path fill="#FFFFFF" d="M100.6,61.2h-2.8c-0.3,0-0.6-0.1-0.8-0.2s-0.3-0.3-0.4-0.6l-0.9-2.7h-6l-0.9,2.7c-0.1,0.2-0.2,0.4-0.4,0.5
		c-0.2,0.2-0.5,0.2-0.8,0.2h-2.9l6.1-15.7h3.8L100.6,61.2z M94.8,55.1l-1.5-4.3c-0.1-0.3-0.2-0.6-0.3-1s-0.2-0.8-0.4-1.2
		c-0.1,0.4-0.2,0.8-0.3,1.2c-0.1,0.4-0.2,0.7-0.3,1l-1.5,4.3H94.8z"/>
	<polygon fill="#FFFFFF" points="66.2,80.7 66.2,83.6 56.6,83.6 56.6,67.9 60.3,67.9 60.3,80.7 	"/>
	<path fill="#FFFFFF" d="M83.1,83.6h-2.8c-0.3,0-0.6-0.1-0.8-0.2c-0.2-0.1-0.3-0.3-0.4-0.6l-0.9-2.7h-6l-0.9,2.7
		c-0.1,0.2-0.2,0.4-0.4,0.5c-0.2,0.2-0.5,0.2-0.8,0.2h-2.9l6.1-15.7H77L83.1,83.6z M77.3,77.6l-1.5-4.3c-0.1-0.3-0.2-0.6-0.3-1
		s-0.2-0.8-0.4-1.2c-0.1,0.4-0.2,0.8-0.3,1.2c-0.1,0.4-0.2,0.7-0.3,1L73,77.6H77.3z"/>
	<polygon fill="#FFFFFF" points="94.8,80.7 94.8,83.6 85.3,83.6 85.3,67.9 88.9,67.9 88.9,80.7 	"/>
	<polygon fill="#FFFFFF" points="60.9,90.3 60.9,106.1 57.2,106.1 57.2,99.4 50.8,99.4 50.8,106.1 47.1,106.1 47.1,90.3 50.8,90.3 
		50.8,96.9 57.2,96.9 57.2,90.3 	"/>
	<path fill="#FFFFFF" d="M73.6,93.5c-0.1,0.2-0.2,0.3-0.3,0.4c-0.1,0.1-0.3,0.1-0.5,0.1c-0.2,0-0.3-0.1-0.5-0.2
		c-0.2-0.1-0.4-0.2-0.7-0.4c-0.2-0.1-0.5-0.2-0.8-0.3c-0.3-0.1-0.7-0.2-1.1-0.2c-0.7,0-1.2,0.1-1.5,0.4c-0.3,0.3-0.5,0.7-0.5,1.2
		c0,0.3,0.1,0.6,0.3,0.8c0.2,0.2,0.5,0.4,0.8,0.5c0.3,0.2,0.7,0.3,1.1,0.4c0.4,0.1,0.9,0.3,1.3,0.4c0.4,0.2,0.9,0.3,1.3,0.5
		c0.4,0.2,0.8,0.5,1.1,0.8c0.3,0.3,0.6,0.7,0.8,1.2c0.2,0.5,0.3,1,0.3,1.7c0,0.7-0.1,1.4-0.4,2c-0.3,0.6-0.6,1.2-1.1,1.7
		c-0.5,0.5-1.1,0.8-1.8,1.1c-0.7,0.3-1.5,0.4-2.4,0.4c-0.5,0-1-0.1-1.5-0.2c-0.5-0.1-1-0.2-1.5-0.4c-0.5-0.2-0.9-0.4-1.3-0.7
		c-0.4-0.3-0.8-0.5-1.1-0.8l1.1-1.7c0.1-0.1,0.2-0.2,0.3-0.3c0.1-0.1,0.3-0.1,0.5-0.1c0.2,0,0.4,0.1,0.7,0.2
		c0.2,0.1,0.5,0.3,0.7,0.5c0.3,0.2,0.6,0.3,1,0.5c0.4,0.1,0.8,0.2,1.3,0.2c0.7,0,1.2-0.1,1.6-0.4c0.4-0.3,0.6-0.8,0.6-1.4
		c0-0.4-0.1-0.7-0.3-0.9c-0.2-0.2-0.5-0.4-0.8-0.6c-0.3-0.2-0.7-0.3-1.1-0.4s-0.8-0.2-1.3-0.4c-0.4-0.1-0.9-0.3-1.3-0.5
		c-0.4-0.2-0.8-0.5-1.1-0.8s-0.6-0.8-0.8-1.3c-0.2-0.5-0.3-1.1-0.3-1.9c0-0.6,0.1-1.2,0.4-1.7c0.2-0.6,0.6-1.1,1.1-1.5
		c0.5-0.4,1-0.8,1.7-1.1s1.4-0.4,2.3-0.4c0.5,0,1,0,1.4,0.1c0.5,0.1,0.9,0.2,1.3,0.3c0.4,0.1,0.8,0.3,1.2,0.5c0.4,0.2,0.7,0.4,1,0.7
		L73.6,93.5z"/>
	<path fill="#FFFFFF" d="M86.5,93.5c-0.1,0.2-0.2,0.3-0.3,0.4c-0.1,0.1-0.3,0.1-0.5,0.1c-0.2,0-0.3-0.1-0.5-0.2
		c-0.2-0.1-0.4-0.2-0.7-0.4c-0.2-0.1-0.5-0.2-0.8-0.3c-0.3-0.1-0.7-0.2-1.1-0.2c-0.7,0-1.2,0.1-1.5,0.4c-0.3,0.3-0.5,0.7-0.5,1.2
		c0,0.3,0.1,0.6,0.3,0.8c0.2,0.2,0.5,0.4,0.8,0.5c0.3,0.2,0.7,0.3,1.1,0.4c0.4,0.1,0.9,0.3,1.3,0.4c0.4,0.2,0.9,0.3,1.3,0.5
		c0.4,0.2,0.8,0.5,1.1,0.8c0.3,0.3,0.6,0.7,0.8,1.2c0.2,0.5,0.3,1,0.3,1.7c0,0.7-0.1,1.4-0.4,2c-0.3,0.6-0.6,1.2-1.1,1.7
		c-0.5,0.5-1.1,0.8-1.8,1.1c-0.7,0.3-1.5,0.4-2.4,0.4c-0.5,0-1-0.1-1.5-0.2c-0.5-0.1-1-0.2-1.5-0.4c-0.5-0.2-0.9-0.4-1.3-0.7
		c-0.4-0.3-0.8-0.5-1.1-0.8l1.1-1.7c0.1-0.1,0.2-0.2,0.3-0.3c0.1-0.1,0.3-0.1,0.5-0.1c0.2,0,0.4,0.1,0.7,0.2
		c0.2,0.1,0.5,0.3,0.7,0.5c0.3,0.2,0.6,0.3,1,0.5c0.4,0.1,0.8,0.2,1.3,0.2c0.7,0,1.2-0.1,1.6-0.4c0.4-0.3,0.6-0.8,0.6-1.4
		c0-0.4-0.1-0.7-0.3-0.9c-0.2-0.2-0.5-0.4-0.8-0.6c-0.3-0.2-0.7-0.3-1.1-0.4c-0.4-0.1-0.8-0.2-1.3-0.4c-0.4-0.1-0.9-0.3-1.3-0.5
		c-0.4-0.2-0.8-0.5-1.1-0.8s-0.6-0.8-0.8-1.3c-0.2-0.5-0.3-1.1-0.3-1.9c0-0.6,0.1-1.2,0.4-1.7c0.2-0.6,0.6-1.1,1.1-1.5
		c0.5-0.4,1-0.8,1.7-1.1s1.4-0.4,2.3-0.4c0.5,0,1,0,1.4,0.1c0.5,0.1,0.9,0.2,1.3,0.3c0.4,0.1,0.8,0.3,1.2,0.5c0.4,0.2,0.7,0.4,1,0.7
		L86.5,93.5z"/>
	<path fill="#FFFFFF" d="M104.9,106.1h-2.8c-0.3,0-0.6-0.1-0.8-0.2c-0.2-0.1-0.3-0.3-0.4-0.6l-0.9-2.7h-6l-0.9,2.7
		c-0.1,0.2-0.2,0.4-0.4,0.5c-0.2,0.2-0.5,0.2-0.8,0.2h-2.9L95,90.3h3.8L104.9,106.1z M99.1,100.1l-1.5-4.3c-0.1-0.3-0.2-0.6-0.3-1
		S97,94,96.9,93.6c-0.1,0.4-0.2,0.8-0.3,1.2c-0.1,0.4-0.2,0.7-0.3,1l-1.5,4.3H99.1z"/>
	<path fill="#FFFFFF" d="M76,149.9c-40.1,0-72.8-32.5-72.8-72.5c0-40,32.7-72.5,72.8-72.5c40.1,0,72.8,32.5,72.8,72.5
		C148.8,117.4,116.2,149.9,76,149.9 M76,8.5C37.9,8.5,6.8,39.4,6.8,77.4c0,38,31,68.9,69.2,68.9c38.2,0,69.2-30.9,69.2-68.9
		C145.2,39.4,114.2,8.5,76,8.5"/>
	<polygon fill="#FFFFFF" points="13.5,84.9 14.2,88.4 24.3,86.4 24.8,88.9 14.7,90.9 15.4,94.4 13.4,94.7 11.5,85.3 	"/>
	<polygon fill="#FFFFFF" points="13.2,78.2 16.4,78.2 16.4,74.1 18.4,74.2 18.3,78.2 21.5,78.3 21.6,73.1 23.6,73.1 23.5,80.8 
		11.2,80.6 11.3,72.9 13.3,72.9 	"/>
	<path fill="#FFFFFF" d="M15.4,62.3c0.1,0.1,0.2,0.2,0.2,0.3c0,0.1,0.1,0.2,0,0.3c0,0.1-0.1,0.2-0.2,0.4c-0.1,0.1-0.2,0.3-0.4,0.4
		c-0.1,0.2-0.3,0.4-0.4,0.6c-0.1,0.2-0.2,0.5-0.3,0.8c-0.1,0.6-0.1,1,0.1,1.4s0.5,0.5,0.9,0.6c0.3,0.1,0.5,0,0.7-0.1
		c0.2-0.1,0.4-0.3,0.6-0.5c0.2-0.2,0.3-0.5,0.5-0.8c0.2-0.3,0.3-0.6,0.5-0.9c0.2-0.3,0.4-0.6,0.6-0.9c0.2-0.3,0.5-0.5,0.8-0.8
		c0.3-0.2,0.6-0.4,1-0.4c0.4-0.1,0.8-0.1,1.3,0c0.6,0.1,1,0.3,1.5,0.6c0.4,0.3,0.8,0.6,1.1,1.1c0.3,0.4,0.5,0.9,0.6,1.5
		c0.1,0.6,0.1,1.2,0,1.8c-0.1,0.4-0.2,0.7-0.3,1.1c-0.2,0.4-0.3,0.7-0.5,1c-0.2,0.3-0.4,0.6-0.7,0.9c-0.3,0.3-0.5,0.5-0.8,0.7l-1-1
		c-0.1-0.1-0.1-0.2-0.2-0.3c0-0.1,0-0.2,0-0.3c0-0.1,0.1-0.3,0.3-0.4c0.1-0.1,0.3-0.3,0.5-0.5s0.3-0.4,0.5-0.7
		c0.2-0.3,0.3-0.6,0.4-1c0.1-0.6,0.1-1-0.1-1.4c-0.2-0.4-0.6-0.6-1.1-0.7c-0.3-0.1-0.6,0-0.8,0.1c-0.2,0.1-0.4,0.3-0.6,0.5
		c-0.2,0.2-0.3,0.5-0.5,0.8c-0.2,0.3-0.3,0.6-0.5,0.9c-0.2,0.3-0.4,0.6-0.6,0.9c-0.2,0.3-0.5,0.5-0.8,0.7c-0.3,0.2-0.7,0.3-1.1,0.4
		c-0.4,0.1-0.9,0.1-1.5,0c-0.5-0.1-0.9-0.3-1.3-0.5c-0.4-0.3-0.7-0.6-1-1c-0.3-0.4-0.4-0.9-0.5-1.4c-0.1-0.5-0.1-1.1,0-1.8
		c0.1-0.7,0.4-1.4,0.7-1.9c0.3-0.6,0.8-1,1.2-1.4L15.4,62.3z"/>
	<polygon fill="#FFFFFF" points="19.8,49.2 18.4,52.5 27.9,56.4 27,58.7 17.5,54.8 16.1,58.1 14.2,57.4 17.9,48.5 	"/>
	<polygon fill="#FFFFFF" points="23.2,43.5 25.9,45.2 28.1,41.8 29.7,42.9 27.5,46.3 30.2,48 33.1,43.7 34.7,44.8 30.4,51.2 
		20.1,44.5 24.5,38 26.1,39.1 	"/>
	<path fill="#FFFFFF" d="M39.9,30.9c0.6,0.6,1.1,1.3,1.4,2.1c0.3,0.7,0.4,1.5,0.4,2.3c0,0.8-0.2,1.5-0.5,2.3
		c-0.3,0.7-0.9,1.4-1.5,2.1l-3.4,3.2l-8.5-8.8l3.4-3.2c0.7-0.6,1.4-1.1,2.2-1.4c0.8-0.3,1.5-0.5,2.3-0.4c0.8,0,1.5,0.2,2.3,0.5
		C38.6,29.8,39.3,30.3,39.9,30.9 M38,32.7c-0.4-0.5-0.9-0.8-1.4-1.1c-0.5-0.3-1-0.4-1.4-0.4c-0.5,0-0.9,0-1.4,0.2
		c-0.5,0.2-0.9,0.5-1.3,0.9l-1.6,1.5l5.8,6l1.6-1.5c0.4-0.4,0.7-0.8,0.9-1.3c0.2-0.4,0.3-0.9,0.3-1.4c0-0.5-0.2-1-0.4-1.4
		C38.8,33.7,38.4,33.2,38,32.7"/>
	<polygon fill="#FFFFFF" points="48.2,21.2 49.7,24.2 53.6,22.3 54.5,24.1 50.5,26 52.7,30.4 50.4,31.5 45,20.5 52.1,17.1 
		52.9,18.9 	"/>
	<path fill="#FFFFFF" d="M69.8,18.8c0.2,0.9,0.2,1.7,0.1,2.5c-0.1,0.8-0.4,1.5-0.8,2.2c-0.4,0.7-1,1.2-1.6,1.7
		c-0.7,0.5-1.5,0.8-2.4,1c-0.9,0.2-1.8,0.2-2.6,0.1c-0.8-0.1-1.6-0.4-2.2-0.9c-0.7-0.4-1.2-1-1.7-1.7c-0.5-0.7-0.8-1.5-1-2.3
		c-0.2-0.9-0.2-1.7-0.1-2.5c0.1-0.8,0.4-1.5,0.8-2.2c0.4-0.7,1-1.2,1.7-1.7c0.7-0.5,1.5-0.8,2.4-1c0.9-0.2,1.8-0.2,2.6-0.1
		c0.8,0.1,1.6,0.4,2.2,0.9c0.7,0.4,1.2,1,1.7,1.7C69.2,17.1,69.6,17.9,69.8,18.8 M67.2,19.3c-0.1-0.6-0.3-1.2-0.6-1.6
		c-0.3-0.5-0.6-0.8-1-1.1c-0.4-0.3-0.8-0.5-1.3-0.5c-0.5-0.1-1-0.1-1.6,0.1c-0.6,0.1-1,0.3-1.4,0.6c-0.4,0.3-0.7,0.6-1,1
		c-0.2,0.4-0.4,0.9-0.4,1.4c-0.1,0.5,0,1.1,0.1,1.7c0.1,0.6,0.3,1.2,0.6,1.6c0.3,0.5,0.6,0.8,1,1.1c0.4,0.3,0.8,0.5,1.3,0.5
		c0.5,0.1,1,0.1,1.6-0.1c0.6-0.1,1-0.3,1.4-0.6c0.4-0.3,0.7-0.6,1-1c0.2-0.4,0.4-0.9,0.4-1.4C67.4,20.5,67.4,19.9,67.2,19.3"/>
	<path fill="#FFFFFF" d="M83.3,25L81,24.9c-0.4,0-0.7-0.2-0.9-0.5l-2.2-3.8c-0.1-0.1-0.2-0.3-0.3-0.3s-0.3-0.1-0.5-0.1l-0.9,0
		L76,24.8l-2.5-0.1l0.3-12.2l3.9,0.1c0.9,0,1.6,0.1,2.2,0.3c0.6,0.2,1.1,0.4,1.5,0.8c0.4,0.3,0.7,0.7,0.8,1.1
		c0.2,0.4,0.2,0.9,0.2,1.4c0,0.4-0.1,0.8-0.2,1.1c-0.1,0.4-0.3,0.7-0.5,1s-0.5,0.5-0.8,0.8c-0.3,0.2-0.7,0.4-1.1,0.5
		c0.2,0.1,0.3,0.2,0.4,0.3c0.1,0.1,0.3,0.3,0.4,0.5L83.3,25z M77.5,18.4c0.4,0,0.8,0,1.1-0.1c0.3-0.1,0.5-0.2,0.7-0.4
		c0.2-0.2,0.3-0.4,0.4-0.6c0.1-0.2,0.1-0.5,0.2-0.8c0-0.6-0.2-1-0.5-1.4c-0.4-0.3-1-0.5-1.8-0.5l-1.3,0l-0.1,3.9L77.5,18.4z"/>
	<polygon fill="#FFFFFF" points="95.5,17.5 94.5,20.5 98.4,21.8 97.8,23.6 93.9,22.3 92.9,25.4 97.8,27 97.2,28.9 89.8,26.4 
		93.7,14.9 101.1,17.3 100.5,19.2 	"/>
	<path fill="#FFFFFF" d="M108.6,35.4l-1.7-1c-0.2-0.1-0.3-0.2-0.4-0.4c-0.1-0.2-0.1-0.3-0.1-0.5l0.5-2.4l-4.2-2.5l-1.9,1.6
		c-0.1,0.1-0.3,0.2-0.5,0.2c-0.2,0-0.4,0-0.5-0.1l-1.7-1l10.5-8l2.2,1.3L108.6,35.4z M107.4,29.2l0.8-3.9c0-0.2,0.1-0.4,0.1-0.7
		c0.1-0.3,0.1-0.6,0.2-0.9c-0.2,0.2-0.5,0.4-0.7,0.6c-0.2,0.2-0.4,0.3-0.6,0.5l-3.1,2.5L107.4,29.2z"/>
	<path fill="#FFFFFF" d="M118,40.1c0.1,0.1,0.2,0.2,0.1,0.4l0,1.5c-0.8,0.1-1.6,0-2.3-0.2c-0.8-0.3-1.5-0.8-2.2-1.5
		c-0.7-0.6-1.1-1.3-1.5-2s-0.5-1.5-0.4-2.2c0-0.8,0.2-1.5,0.5-2.2c0.3-0.7,0.8-1.4,1.5-2.1c0.4-0.4,0.9-0.8,1.4-1.1
		c0.5-0.3,1-0.5,1.5-0.7c0.5-0.2,1-0.2,1.5-0.3c0.5,0,1,0,1.5,0.2c0.5,0.1,1,0.3,1.5,0.6c0.5,0.3,0.9,0.6,1.4,1
		c0.3,0.3,0.6,0.6,0.8,1c0.2,0.3,0.4,0.7,0.6,1c0.2,0.3,0.3,0.7,0.3,1c0.1,0.3,0.1,0.7,0.1,1l-1.4,0.2c-0.1,0-0.2,0-0.3,0
		c-0.1,0-0.2-0.1-0.3-0.2c-0.1-0.1-0.2-0.2-0.2-0.4c0-0.2-0.1-0.4-0.1-0.6c-0.1-0.2-0.2-0.5-0.3-0.7c-0.1-0.3-0.4-0.6-0.7-0.9
		c-0.4-0.4-0.8-0.6-1.2-0.8c-0.4-0.2-0.9-0.2-1.4-0.2c-0.5,0-0.9,0.2-1.4,0.4c-0.5,0.3-0.9,0.6-1.4,1.1c-0.5,0.5-0.8,1-1,1.5
		c-0.2,0.5-0.4,1-0.4,1.5c0,0.5,0.1,0.9,0.2,1.3c0.2,0.4,0.4,0.8,0.8,1.1c0.2,0.2,0.4,0.4,0.6,0.5c0.2,0.1,0.4,0.3,0.6,0.3
		c0.2,0.1,0.4,0.2,0.6,0.2c0.2,0,0.4,0.1,0.7,0.1c0.1,0,0.2,0,0.2,0C117.8,40.1,117.9,40.1,118,40.1"/>
	<polygon fill="#FFFFFF" points="134.1,47 123.7,53.5 122.3,51.4 126.8,48.6 123.9,44 119.4,46.9 118,44.7 128.4,38.2 129.8,40.3 
		125.4,43.1 128.3,47.6 132.7,44.8 	"/>
	<polygon fill="#FFFFFF" points="130.5,67.4 128.5,67.9 126.6,60.9 138.5,57.8 139.2,60.3 129.3,62.9 	"/>
	<path fill="#FFFFFF" d="M135.5,81.4c-0.9,0-1.7-0.1-2.5-0.4c-0.8-0.3-1.5-0.7-2-1.2c-0.6-0.5-1-1.2-1.4-1.9s-0.5-1.6-0.6-2.5
		c0-0.9,0.1-1.8,0.4-2.6c0.3-0.8,0.7-1.4,1.2-2c0.5-0.6,1.2-1,1.9-1.3c0.8-0.3,1.6-0.5,2.5-0.5c0.9,0,1.7,0.1,2.5,0.4
		c0.8,0.3,1.5,0.7,2,1.2c0.6,0.5,1,1.2,1.4,1.9c0.3,0.8,0.5,1.6,0.6,2.5c0,0.9-0.1,1.8-0.4,2.6c-0.3,0.8-0.7,1.4-1.3,2
		c-0.5,0.6-1.2,1-1.9,1.3C137.2,81.2,136.4,81.4,135.5,81.4 M135.4,78.9c0.6,0,1.2-0.1,1.7-0.3s0.9-0.4,1.3-0.8
		c0.3-0.3,0.6-0.7,0.8-1.2c0.2-0.5,0.2-1,0.2-1.5c0-0.6-0.1-1.1-0.3-1.5c-0.2-0.4-0.5-0.8-0.9-1.1c-0.4-0.3-0.8-0.5-1.3-0.7
		c-0.5-0.1-1.1-0.2-1.7-0.2c-0.7,0-1.2,0.1-1.7,0.3c-0.5,0.2-0.9,0.4-1.3,0.8c-0.3,0.3-0.6,0.7-0.8,1.2c-0.2,0.5-0.2,1-0.2,1.5
		c0,0.6,0.1,1.1,0.3,1.5c0.2,0.4,0.5,0.8,0.9,1.1c0.4,0.3,0.8,0.5,1.3,0.7C134.2,78.8,134.8,78.9,135.4,78.9"/>
	<polygon fill="#FFFFFF" points="137.3,94.4 138,90.9 127.9,89 128.4,86.5 138.5,88.5 139.2,85 141.2,85.4 139.3,94.8 	"/>
	<path fill="#FFFFFF" d="M76,125.6c-26.7,0-48.4-21.6-48.4-48.2c0-26.6,21.7-48.2,48.4-48.2c26.7,0,48.4,21.6,48.4,48.2
		C124.4,104,102.7,125.6,76,125.6 M76,32.7c-24.8,0-44.9,20.1-44.9,44.7s20.1,44.7,44.9,44.7c24.8,0,44.9-20.1,44.9-44.7
		S100.8,32.7,76,32.7"/>
	<path fill-rule="evenodd" clip-rule="evenodd" fill="#FFFFFF" d="M28.7,106.1c0,2.1-1.7,3.7-3.7,3.7c-2.1,0-3.7-1.7-3.7-3.7
		c0-2.1,1.7-3.7,3.7-3.7C27,102.4,28.7,104,28.7,106.1"/>
	<path fill-rule="evenodd" clip-rule="evenodd" fill="#FFFFFF" d="M131.8,106.1c0,2.1-1.7,3.7-3.7,3.7c-2.1,0-3.7-1.7-3.7-3.7
		c0-2.1,1.7-3.7,3.7-3.7C130.2,102.4,131.8,104,131.8,106.1"/>
</g>
</svg>
