<?xml version="1.0" encoding="utf-8"?>
<!-- Generator: Adobe Illustrator 23.0.5, SVG Export Plug-In . SVG Version: 6.00 Build 0)  -->
<svg version="1.1" id="Warstwa_1" xmlns="http://www.w3.org/2000/svg" xmlns:xlink="http://www.w3.org/1999/xlink" x="0px" y="0px"
	 viewBox="0 0 168 62" enable-background="new 0 0 168 62" xml:space="preserve">
<g>
	<path fill="#FFFFFF" d="M19.6,22.5c-3.3,0-6.3,0.8-9.1,2.4c-2.8,1.6-5.1,3.9-6.7,6.8c-1.6,2.9-2.4,6-2.4,9.4c0,5,1.8,9.4,5.4,12.9
		c3.6,3.5,8,5.3,13.2,5.3c5.1,0,9.5-1.8,13.1-5.4c3.6-3.6,5.4-8,5.4-13.1c0-5.2-1.8-9.6-5.4-13.1C29.3,24.3,24.8,22.5,19.6,22.5
		 M34,40.9c0,2.7-0.6,5.1-1.9,7.3c-1.2,2.2-3,3.9-5.2,5.2c-2.2,1.3-4.7,1.9-7.3,1.9c-3.9,0-7.3-1.4-10-4.1C6.9,48.4,5.5,45,5.5,41
		c0-2.7,0.6-5.2,1.9-7.4c1.2-2.2,3-3.9,5.2-5.2c2.2-1.3,4.6-1.9,7.1-1.9c2.5,0,4.9,0.7,7.2,1.9c2.2,1.3,4,3,5.3,5.2
		C33.4,35.8,34,38.2,34,40.9"/>
	<path fill="#FFFFFF" d="M52.6,29.9c-3.4,0-6.3,1.3-8.6,3.8c-2,2.3-3.1,5-3.1,8c0,3.1,1.1,5.8,3.3,8.2c2.2,2.3,5,3.5,8.4,3.5
		c3.4,0,6.2-1.2,8.4-3.5c2.2-2.3,3.3-5.1,3.3-8.2c0-3.1-1-5.8-3.1-8C58.9,31.2,56,29.9,52.6,29.9 M45.5,46c-0.7-1.3-1.1-2.7-1.1-4.2
		c0-2.3,0.8-4.3,2.4-6c1.6-1.6,3.5-2.5,5.7-2.5c2.2,0,4.1,0.8,5.7,2.5c1.6,1.6,2.4,3.6,2.4,6c0,1.5-0.4,2.9-1.1,4.2
		c-0.7,1.3-1.7,2.3-2.9,3C55.4,49.7,54,50,52.6,50c-1.5,0-2.9-0.4-4.1-1.1C47.2,48.3,46.2,47.3,45.5,46"/>
	<path fill="#FFFFFF" d="M74.7,33.2c1.3,0,2.7,0.7,4.1,2.1l0.2,0.2l2.3-2.3l-0.2-0.2c-2.1-2-4.2-3-6.3-3c-1.8,0-3.3,0.6-4.5,1.7
		c-1.2,1.1-1.8,2.6-1.8,4.3c0,1.3,0.4,2.5,1.1,3.6c0.7,1,2.1,2,4.1,3.1c1.8,0.9,2.9,1.7,3.4,2.2c0.5,0.6,0.7,1.2,0.7,1.9
		c0,0.9-0.3,1.6-1.1,2.3c-0.7,0.7-1.6,1-2.6,1c-1.5,0-2.9-0.8-4.3-2.3l-0.3-0.3L67.5,50l0.2,0.2c0.8,1,1.8,1.8,2.9,2.3
		c1.2,0.6,2.4,0.8,3.7,0.8c2,0,3.6-0.7,4.9-1.9c1.3-1.3,2-2.9,2-4.8c0-1.3-0.4-2.5-1.2-3.6c-0.8-1-2.2-2.1-4.3-3.2
		c-1.7-0.9-2.7-1.6-3.2-2.2c-0.5-0.6-0.7-1.2-0.7-1.8c0-0.7,0.3-1.3,0.9-1.8C73.2,33.5,73.9,33.2,74.7,33.2"/>
	<path fill="#FFFFFF" d="M105.3,33.8c-0.7-1.2-2-2.1-3.2-2.7c-1.5-0.8-3.1-1.2-5-1.2c-3.2,0-5.9,1.2-8.1,3.4c-2.2,2.3-3.4,5-3.4,8.2
		c0,3.3,1.1,6.1,3.4,8.3c2.2,2.3,5,3.4,8.1,3.4c1.8,0,3.4-0.4,4.9-1.1c1.2-0.6,2.7-1.5,3.4-2.6v3.4h3.4V30.6h-3.4V33.8z M103.2,35.7
		c1.6,1.6,2.4,3.6,2.4,6c0,1.6-0.4,3-1.1,4.3c-0.7,1.2-1.7,2.3-3,3c-2.6,1.5-5.7,1.5-8.2,0c-1.3-0.7-2.3-1.8-3-3.1
		c-0.7-1.3-1.1-2.7-1.1-4.2c0-1.5,0.4-2.9,1.1-4.2c0.7-1.3,1.8-2.4,3-3.1c1.3-0.7,2.6-1.1,4.1-1.1C99.6,33.3,101.6,34.1,103.2,35.7"
		/>
	<path fill="#FFFFFF" d="M118.7,22.2c-0.7,0.4-1.2,1-1.5,1.8c-0.3,0.7-0.4,1.8-0.4,3.5v3.2h-2.7v2.7h2.7v19.7h3.4l0-19.7h4.8v-2.7
		h-4.8l0-2.7c0-1.6,0.1-2.1,0.1-2.2c0.1-0.2,0.2-0.4,0.5-0.6c0.7-0.4,2-0.4,3.7,0.3l0.5,0.2v-3.5l-0.2-0.1
		C122,21.3,120.1,21.4,118.7,22.2"/>
	<path fill="#FFFFFF" d="M147.5,45.1c-0.8,1.4-1.6,2.4-2.3,3c-0.7,0.6-1.6,1.1-2.6,1.5c-1,0.4-2,0.6-3.1,0.6c-2.2,0-4-0.8-5.5-2.3
		c-1.4-1.5-2.2-3.6-2.3-5.6h19.5l0-0.3c0-3-0.9-5.6-2.5-7.6c-2.3-2.9-5.3-4.3-9.1-4.3c-3.7,0-6.7,1.4-8.9,4.2
		c-1.7,2.2-2.6,4.7-2.6,7.6c0,3,1,5.7,3.1,8.1c2.1,2.4,4.9,3.6,8.5,3.6c1.6,0,3.1-0.3,4.4-0.7c1.3-0.5,2.5-1.2,3.5-2.2
		c1-1,2-2.2,2.7-3.8l0.2-0.3l-2.9-1.5L147.5,45.1z M132.1,38.8c0.5-1.4,1.3-2.8,2.3-3.7c1.5-1.3,3.2-1.9,5.3-1.9
		c1.2,0,2.4,0.3,3.5,0.8c1.1,0.5,2,1.1,2.7,1.9c0.6,0.8,1.1,2.2,1.4,2.9H132.1z"/>
	<path fill="#FFFFFF" d="M165.9,31.4c0,1.2-0.3,2.2-0.9,3.2c-0.6,1-1.4,1.8-2.4,2.4c-1,0.6-2.1,0.9-3.2,0.9c-1.1,0-2.2-0.3-3.2-0.9
		c-1-0.6-1.8-1.4-2.4-2.4c-0.6-1-0.9-2.1-0.9-3.2c0-1.1,0.3-2.2,0.9-3.2c0.6-1,1.4-1.8,2.4-2.4c1-0.6,2.1-0.9,3.2-0.9
		c1.1,0,2.2,0.3,3.2,0.9c1,0.6,1.8,1.4,2.4,2.4C165.6,29.2,165.9,30.3,165.9,31.4 M165,31.4c0-1-0.2-1.9-0.7-2.8
		c-0.5-0.9-1.2-1.5-2-2c-0.9-0.5-1.8-0.7-2.8-0.7c-1,0-1.9,0.2-2.8,0.7c-0.9,0.5-1.5,1.2-2,2c-0.5,0.9-0.7,1.8-0.7,2.8
		c0,1,0.2,1.9,0.7,2.8c0.5,0.9,1.2,1.5,2,2s1.8,0.7,2.8,0.7c1,0,1.9-0.3,2.8-0.8c0.9-0.5,1.5-1.2,2-2C164.8,33.3,165,32.4,165,31.4
		 M156.8,27.7h3.1c0.7,0,1.2,0.1,1.6,0.2c0.3,0.1,0.6,0.4,0.8,0.7c0.2,0.3,0.3,0.7,0.3,1.2c0,0.4-0.1,0.7-0.2,1
		c-0.1,0.2-0.3,0.4-0.7,0.7c0.3,0.2,0.6,0.4,0.7,0.6c0.1,0.2,0.2,0.6,0.2,1.1v0.8c0,0.4,0.1,0.7,0.3,1l0.1,0.2h-1.3
		c-0.1-0.3-0.1-0.7-0.2-1.1l-0.1-0.9c0-0.3-0.1-0.6-0.2-0.7c-0.1-0.1-0.2-0.2-0.4-0.3c-0.2-0.1-0.5-0.1-0.9-0.1H158v3.1h-1.2V27.7z
		 M158,28.7v2.2h1.8c0.6,0,0.9-0.1,1.1-0.2c0.3-0.2,0.4-0.5,0.4-0.9c0-0.4-0.1-0.7-0.3-0.8c-0.2-0.2-0.6-0.3-1.2-0.3H158z"/>
	<polygon fill="#FFFFFF" points="145.5,17.1 141.5,10.3 145.5,3.5 153.4,3.5 157.3,10.3 153.4,17.1 	"/>
	<polygon fill="#FFFFFF" points="133.5,25.2 130,19.1 133.5,13 140.6,13 144.1,19.1 140.6,25.2 	"/>
	<polygon fill="#FFFFFF" points="125.1,17.1 123.1,13.7 125.1,10.3 128.9,10.3 130.8,13.7 128.9,17.1 	"/>
</g>
</svg>
