<svg xmlns="http://www.w3.org/2000/svg" xml:space="preserve" width="950" height="620" fill="#b9b9b9" style="height:100vh;width:100%" version="1.2" viewBox="0 0 950 620">
  <path d="m781.7 324.4-2.3 8.7-12.6 4.2-3.7-4.4-1.8.5 3.4 13.1 5 .6 6.8 2.6v2.5l3.2-.5 4.5-6.3v-5.1l2.5-5.2 2.9.6-3.4-7.1-.6-4.6-4 .4z" data-original-title="kalimantan" data-placement="top" data-toggle="tooltip"/>
  <path d="m852.8 348.3-.4 24.4 3.5-.2 4.6-5.4 4 .2 2.4 2.3.9 6.9 8 4.2 2-.8v-2.5l-6.4-5.3-3.2-7.3 2.5-1.2-1.8-4-3.7-.1-1-4.3-9.8-6.6-1.6-.3z" data-original-title="papua new guinea" data-placement="top" data-toggle="tooltip"/>
  <path d="m137.5 225.4 4.8 15.2-2.2 1.3.2 3 4.3 3.3v6l5.2 5-2.2-14.8-3-9.8.7-6.8 2.5.2 1 2.3-1 5.8 13 25.4v9.1l10.5 12.3 11.5 5.3 4.8-2.7 6.7 5.5 4-4-1.7-4.6 5.7-1.7 1.8 1 1.7-1.8h2.8l5-8.8-2.5-2.3-9.8 2.3-2.2 6.6-5.8 1-6.7-2.8-3-9.6 2.2-12-4.6-3-2.2-11.5-1.9-.8-3.3 3.4-4-2-1.4-7.8L153 231l-8-6-7.5.4z" data-original-title="mexico" data-placement="top" data-toggle="tooltip"/>
  <path d="m517.8 143.7-5.6-.2-3.6 2.1v1.6l2.3 2.2 7.1 1.2-.2-7z" data-original-title="estonia" data-placement="top" data-toggle="tooltip"/>
  <path d="m473.9 227.5-4.1-1.4-17 3.2-3.7 2.8 2.3 11.7-6.8.3-4 6.5-9.7 2.3v4.8l31.9 24.3 5.4.5 18.1-14.2-1.8-2.3-3.4-.4-2-3.4V248l-1.4-1.4.2-3.6-3.6-3.7-.4-3.8 1.6-1.2-.7-4-1-2.8z" data-original-title="algeria" data-placement="top" data-toggle="tooltip"/>
  <path d="M448.3 232.3h-11.6l-2.2 5-5.2 2.5-4.3 11.6-8.4 5-11.8 19.5 11.6-.3.4-5.7h3v-7.7H430l.2-10 9.7-2.4 4.1-6.6 6.3-.2-2-10.7z" data-original-title="morocco" data-placement="top" data-toggle="tooltip"/>
  <path d="m404.9 276.7 2.2 2.8-.5 12.3 3.2-2.2 2.3-.5 3.1 1.1 3.7 5 3.4-2.2 16.5-.3-4.1-27.6h4.4l-8.2-6.2v4h-10.3v7.8h-3l-.4 5.7-12.3.3z" data-original-title="mauretania" data-placement="top" data-toggle="tooltip"/>
  <path d="m410.1 290.3-4 2.9-.8 1.6-.3 1.6 1.5 1h4.8l3.1-.9.4 1.5-.3 2 3 1.5.6.7 3.9.2.1-1.8-3.6-4.3-4-5.4-2.5-1-1.9.4z" data-original-title="senegal" data-placement="top" data-toggle="tooltip"/>
  <path d="m406.9 298.3-.1 1.1h6.9l.3-1-.1-1.1-2 .8-5 .2z" data-original-title="gambia" data-placement="top" data-toggle="tooltip"/>
  <path d="m406.8 300.2 1.2 3 .7-1.8 8.4.9-3.6-2h-6.7z" data-original-title="casamance" data-placement="top" data-toggle="tooltip"/>
  <path d="m408.6 304.5 1.4 2.8 4-3.4v-1l-4.7-.7-.7 2.3z" data-original-title="bissau" data-placement="top" data-toggle="tooltip"/>
  <path d="m410.4 308 3 4.6 4-3.4 4-.2 3.5 4.5 2.8 1.9 1.1-2.1 1-.6-.1-4.6-2-5.5-5.8.7-7.2-.6v1.9l-4.3 3.3z" data-original-title="guinee" data-placement="top" data-toggle="tooltip"/>
  <path d="m414 313.1 5.6 5.5 4-4.9-2.5-4-3.5.4-3.7 3z" data-original-title="sierra leone" data-placement="top" data-toggle="tooltip"/>
  <path d="m420.2 319.2 11 7.3-.3-5.5-3.3-4-3.3-2.8-4.1 5z" data-original-title="liberia" data-placement="top" data-toggle="tooltip"/>
  <path d="m432 326.8 4.3-3 5.4-1 5.4 1.2-2.8-4.2-.8-2.6.8-7.6-4.8.3-2.2-2.1h-4.6l-2.2.4.2 5.2-1.2.4-1.4 2.6 3.6 4.2.4 6.1z" data-original-title="ivoire" data-placement="top" data-toggle="tooltip"/>
  <path d="m419.5 295.8 3-2 17.2-.2-4-27.5 4.5-.1 21.9 16.6 3 .5-1.2 9.2-13.7 1.3-10.6 8-2 5.3-7.3.3-2-5.4-5.6.4.2-1.7-3.4-4.7z" data-original-title="mali" data-placement="top" data-toggle="tooltip"/>
  <path d="m450.6 294.3 3.6-.3 6 8.4-5.5 4.2-4-1h-5.4l-1 3.2-4.4.2-1.3-1.7 1.6-5.1 10.4-8z" data-original-title="burkina" data-placement="top" data-toggle="tooltip"/>
  <path d="M460.9 302h2.5l2.3-3.5 3.9-.7 4.1 2.5 8.8.3 6.8-2.8 2.5-2.2.2-2.9 4.7-4.7 1.3-10.6-3.1-6.5-8-2-18.4 14.4-2.6-.2-1.1 10-9.4.9 5.5 8z" data-original-title="niger" data-placement="top" data-toggle="tooltip"/>
  <path d="m444.3 317 1.2 2.7 2.9 4.6 1.6-.1 4.4-2.5-.3-14.3-3.4-1-4.8.1-1.6 10.6z" data-original-title="ghana" data-placement="top" data-toggle="tooltip"/>
  <path d="m455.2 321.3 2.7-1.6v-10.4l-1.8-2.8-1.1 1 .2 13.8z" data-original-title="togo" data-placement="top" data-toggle="tooltip"/>
  <path d="M458.7 319.5h2.1l.1-6 2.7-4v-6.7H461l-4.2 3.2 1.7 3.3.1 10.2z" data-original-title="benin" data-placement="top" data-toggle="tooltip"/>
  <path d="m461.6 319.4 3.9.2 4.7 5.2 2.3.7 1.8-1 2.8-.3.9-3.8 3.7-2.5 4-.2 7.5-13.6-.2-3-3.4-2.7-6.8 3h-9.2l-4.3-2.8-3.1.6-1.7 2.9v8l-2.7 3.6-.2 5.7z" data-original-title="nigeria" data-placement="top" data-toggle="tooltip"/>
  <path d="m475 227.3 5.4-2.2 1.9 1.2v1.4l-.8 1.1.1 2 .9.5v3.5l-1 1.6.1 1 3.7 1.4-3 4.7-1.1-.1-.2 3.7-1.3.2-1.2-1 .3-3.8-3.6-3.5-.5-3 1.8-1.5-1.6-7.2z" data-original-title="tunisia" data-placement="top" data-toggle="tooltip"/>
  <path d="m480 248 1.6-.2.5-3.6h.7l3.2-5.3 8 2.3 2 3.4 7.8 3.5 4-1.7-.4-1.7-1.7-1.7.2-1.2 2.8-2.4h5.7l2.1 2.9 4.6.6.6 37-3.4-.2-20.4-10.6-2.2 1.2-8.4-2-2.3-3-3.3-.5-1.7-3V248z" data-original-title="libya" data-placement="top" data-toggle="tooltip"/>
  <path d="m522 243 2.6.1 5.2 1.5h2.5l3-2.5h1.5l2.6 1.4H543.2l2.1 6 .6 1.9.6 2.9-1 .7-1.7-.9-2-6.3-1.7-.1-.2 2.1 1.2 3.8 9.4 11.6.2 5-2.7 3-25.7-.2-.4-30z" data-original-title="egypt" data-placement="top" data-toggle="tooltip"/>
  <path d="m492.8 296 .1-3 4.8-4.6 1.2-11.3-3.1-6 2.2-1.2 21.4 11.2-.1 11-3.8 3.1v5.7l2.5 4.8h-4.4l-7.2 7.1-.2 2.2-5.3-.1-.1 1-3-.4-2.1-4-1.6-.7.2-1.2 2-1.5v-7l-2.8-.5-3.2-2.4 2.5-2.2z" data-original-title="chad" data-placement="top" data-toggle="tooltip"/>
  <path d="m549 310.3-2.9-4.9-.3-3.6-.7.1-.2 1.1-3.8 5.7-3.1-1.5-3 2.6-6.4-.4-2.8-2.2-4 2-.2 1.4-1.3.7 12.4 12.7 6.7.4 1 1.5 9.6.2v-2.2l.9-1.5 3.2-.4-4-5.8h-3l-.7-4 2.3-1.1.4-.8z" data-original-title="south_sudan" data-placement="top" data-toggle="tooltip"/>
  <path d="m552 270.6-3.7 3.7-25.8-.2.3 6.6-2.5-.1-.1 11.8-3.8 3.2-.1 5 2.7 5.3 3 1.7-.1.4 4-2 3 2.4 5.7.4 3.2-2.8 3 1.4 3.2-4.7.3-1.6 2.4-.5.4 4.5 2.5 4.1 6-12.9v-7.8l4.4-5.2-8-12.7z" data-original-title="sudan" data-placement="top" data-toggle="tooltip"/>
  <path d="m477.8 324.3 3.2 3-.2 4.5 17.7-.4 1.4-1.6-5-5.5-.8-2 3.2-6-2.2-4-1.8-1v-2l2.1-1.4.1-6.3-1.6-.2v3.3l-7.5 13.9-4.5.2-3.1 2.2-1 3.3z" data-original-title="cameroon" data-placement="top" data-toggle="tooltip"/>
  <path d="m556.7 294.7-.2-5.9 4-4.6 1 .8 2 6.5 9.3 7-1.7 2-6.8-5.8h-7.6z" data-original-title="eritrea" data-placement="top" data-toggle="tooltip"/>
  <path d="m571.5 301.5-.6 3.4h4v-5l-1.4-.9-2 2.5z" data-original-title="djibouti" data-placement="top" data-toggle="tooltip"/>
  <path d="m549.5 311.8 7.3-16.2h7.2l6.4 5.6-.4 4.6h5l.4 2.7 8 4.8 5 .3-9.4 10.1-13 4h-3.2l-5.7-4.9-2.2-1-4.4-6.4h-2.9l-.3-2.9 2.2-.7z" data-original-title="ethiopia" data-placement="top" data-toggle="tooltip"/>
  <path d="m575.7 305 4.1 2.8h1.2l10.2-3.5 1.1 3.7-.8 3.1-2.2 1.8-5.5-.4-7.8-4.8-.3-2.7z" data-original-title="somaliland" data-placement="top" data-toggle="tooltip"/>
  <path d="m599.6 299.6 2.1 2.4 3-1.7 1-.4-1.4-1.2-2.5.7-2.2.3z" data-original-title="soqotra" data-placement="top" data-toggle="tooltip"/>
  <path d="m592 304 4.3-1.6 1.6.9-.2 3.9-4 11.5-21.8 23.3-2.5-1.7-.2-9.9 3.3-3.7 7-2.2 10.1-10.8 2.7-2.4.8-3.4-1.1-3.8z" data-original-title="somalia" data-placement="top" data-toggle="tooltip"/>
  <path d="m495.7 324 4.6 5 1.9-2.3 2.9.1.6-2.3 2.9-1.8 6 4.1 3.4-3.4 13.4.6-12.4-12.8 1.7-1 .2-2.3-2.8-1.3h-4.2l-6.6 6.6-.3 2.7-5.3-.2-.1 1.2-3.5-.4-3 6 .6 1.6z" data-original-title="centrafrique" data-placement="top" data-toggle="tooltip"/>
  <path d="m470.7 337.1 1.2-.5.9.7-1 1.3-1-.4v-1z" data-original-title="sao tome" data-placement="top" data-toggle="tooltip"/>
  <path d="m473 333.5 1.8-.3.6 1.1-.9 1-.9-.2-.6-1.6z" data-original-title="principe" data-placement="top" data-toggle="tooltip"/>
  <path d="m476.8 327.4-.4 2 1.4.7 1.3-1-.5-2-1.8.3z" data-original-title="bioko" data-placement="top" data-toggle="tooltip"/>
  <path d="m486.4 332.6-.1 2.5-5.7-.1-3.4 6.7 8 8.8 2.1-1.6V347l-1.4-.6v-1.2l3-2 2.8 2 3 .1V335l-4.8-.2v-2.2l-3.5.1z" data-original-title="gabon" data-placement="top" data-toggle="tooltip"/>
  <path d="M481 332.7v1.4l4.5.2v-1.6H481z" data-original-title="equatorial guinea" data-placement="top" data-toggle="tooltip"/>
  <path d="M491 332.5v1.5h4.7l.2 12.5-4.4-.1-2.5-2-2 1.1v.6l1 .4.2 2.6-2.7 2.3.6 1.2 3-2.3h1.5l.4 1.4 2 .8 6-5.1-.1-3.8 1.3-3 3.9-3 1-9.8h-2.8l-3.2 4.4-8.1.3z" data-original-title="congo" data-placement="top" data-toggle="tooltip"/>
  <path d="m486.6 353.2 1.7 2.3 2.2-2.1-.6-2.2h-.6l-2.8 2z" data-original-title="cabinda" data-placement="top" data-toggle="tooltip"/>
  <path d="m489.4 355.7 10.3-.2 2 3v2.2l.8.7h5l1.6-2.9h2l.9.9 2.9-.1.8 10 5 .2v.8l13.3 6 .6 1.2h2.8l-.3-4.2-5-2.5.3-3.2 2.2-5 5-.2-4.3-14.1v-6l6.8-10.6v-1.5l-1-.5v-2.9H540l-1.3-1.7-20.3-.9-3.8 3.6-6-4-2.2 1.3-1.6 13.2-3.8 3-1.2 2.6.2 3.9-7 5.7-1.8-.9.2 1.1-2 2z" data-original-title="drc" data-placement="top" data-toggle="tooltip"/>
  <path d="m537.8 339.9 2.8 2.6v2.8H536v-3l1.7-2.4z" data-original-title="rwanda" data-placement="top" data-toggle="tooltip"/>
  <path d="M536.2 346.2h4.3l-1.1 3.7-1.1.9H537l-1-2.5.2-2z" data-original-title="burundi" data-placement="top" data-toggle="tooltip"/>
  <path d="m538.3 339 3 3 2-1.3 5-.8h1l.3-1.9 2.9-6-2.5-5.2h-7.9v2.2l1 1-.1 2-4.7 7z" data-original-title="uganda" data-placement="top" data-toggle="tooltip"/>
  <path d="m550.8 326.5 2.7 5.2-3.2 6.7-.4 2 16 9.9 4.8-7.8-2.5-2v-10.2l3.1-3.5-5 1.7h-3.7l-6-5-1.8-.7-3.4.3-.6 1v2.4z" data-original-title="kenya" data-placement="top" data-toggle="tooltip"/>
  <path d="m550.6 371.4 17.4-2.1-3.9-7.6-.2-7.3 1.3-3.5-16.6-10.4-5.3.8-1.8 1.4-.1 3-1.2 4.3-1.2 1.4-1.8.2 3.4 11.6 5.5 2.6h3.7l.8 5.6z" data-original-title="tanzania" data-placement="top" data-toggle="tooltip"/>
  <path d="m514.5 384.7 3.2 4.4 5 .3 1.7 1h5.1l4.4-6.2 12.4-5.5 1.1-5-1.4-6.9-6.5-3.7-4.3.3-2.2 4.8.1 2.1 5 2.5.4 5.4-4.4.2-1-1.8-12.2-5.2-.4 4-5.7.2-.3 9.1z" data-original-title="zambia" data-placement="top" data-toggle="tooltip"/>
  <path d="m488.6 356.7 3.4 12.7v4l-5 5.4-.8 8.7 19.2.2 6.3 2.3 5.1-.7-3-3.8v-10.7l6-.3v-4.2l-4.9-.2-1-9.9h-2l-1-1-1.2.1-1.6 3.1H502l-1.4-1.4.4-2-1.7-2.5-10.7.2z" data-original-title="angola" data-placement="top" data-toggle="tooltip"/>
  <path d="m547.2 379.4 3 3.3v4.1l.6 1.8 4.1-4.5-.4-5.7-2.2-1.7-2-10h-3.4l1.5 7.1-1.2 5.6z" data-original-title="malawi" data-placement="top" data-toggle="tooltip"/>
  <path d="m541.2 413.3 2.7 2.2 6.3-3.9 1-5.7v-9.4l10.2-8.4 1.7.1 6.2-6-1-12-16.3 2 .5 3.7 2.8 2.1.7 6.7-5.6 5.3-1.3-3 .3-4-3.2-3.4-7.8 3.6 7.3 3.7.2 10.7-4.8 7.1v8.6z" data-original-title="mozambique" data-placement="top" data-toggle="tooltip"/>
  <path d="m524.7 392.3 9 10.1 6.8 1.8 4.6-7.2-.3-9.6-7.5-3.9-2.8 1.3-4.2 6.4h-5.8l.2 1.1z" data-original-title="zimbabwe" data-placement="top" data-toggle="tooltip"/>
  <path d="m496.6 422 3.3.2 2 2h4.6l1.2-13.2v-8.7l3-.6 1.1-9 7.6-.3 2.7-2.3-4.5-.1-6.2.8-6.6-2.4H486l.5 5.3 6.2 9.1-1 4.7v2.5l4.8 12z" data-original-title="namibia" data-placement="top" data-toggle="tooltip"/>
  <path d="m508.5 411.2 2.2.7-.3 6.1 2.2.3 5-4.5 6.1.6 1.7-4 7.7-7.1-9.3-10.7-.1-1.8-1-.2-2.8 2.5-7.3.2-1 9.1-3 .7v8.1z" data-original-title="botswana" data-placement="top" data-toggle="tooltip"/>
  <path d="m540.9 414-2.5.4-1.1 3 1.9 1.7h2.3l2-2.8-2.6-2.3z" data-original-title="swaziland" data-placement="top" data-toggle="tooltip"/>
  <path d="m527.4 425.4 3-2.4 1.5.1 1.7 2.2-.1 2.1-3 1.1v.9l-3.2-.2-.8-2.4 1-1.4z" data-original-title="lesotho" data-placement="top" data-toggle="tooltip"/>
  <path d="m534.2 403.6-8 7.3-1.8 4.5-6.3-.7-5.2 4.6-3.5-.3.3-6.4-1.2-.5-.9 13.1h-6.1l-1.9-2.2H497l2.5 7 4.4 4.2-3.1 3.7 2 4.6 4.7 1.8 3.8-3.2H522l.7-1 4.8-.8 16.2-16v-5.1l-1.8 2.2h-2.6l-3.1-2.6 1.5-4 2.8-.6-.3-8.2-6-1.4zm-3.8 18.5h1.5l2.4 2.6v3.1l-3 1.5v1h-4.5l-1.3-3.3 1.2-2.4 3.7-2.5z" data-original-title="south africa" data-placement="top" data-toggle="tooltip"/>
  <path d="m321.1 50-1.3 2.2 2.4 2.5-1 2.4 3.5 4.7 4.3-1.4 5.7-.5 6.6 7 4.3 11.7-3.5 7.4 4.9-.9 2.7 1.7.3 3.5-6 .3 3.2 3.2 4.1.9-9 12-1 7.3 1.9 6-1.4 3.5 2.4 7.6 4.7 5.2 1.3-.3 3-.8.3 4.3 1.9 2.7 3.5-.2 2.7-10 8.2-10.2L382 117l7.6-9.6 3.6 1.7h7.3l6-6 7.3-3 .9-4.6-4.7-4.1-4-1.4-2.2-5.7 5.1-3 8.2 4.4 2.7-3-4.3-2.5 9.2-12.5-1.6-5.4-4.4-.3 1.7-4.9 5.4-2.4 11.2-9.8-3.3-3.5-12.5 1-6.5 6.6 3.8-8.4-4.4-1.1-2.4 4.3-3.6-3-9.7 1.1 2.7-4.3 16-.6-4-5.4-17.5-3.3-7 1.1.2 3.6-7.3-2.5.3-2.4-5.2 1-1 2.8 5.4 1.9-5.8 4-4-4.6-5.7-1.6-.9 4.3H359l-2.2-4.6-9-1.3-4.8 2.4-.3 3.3-6.2-.8-3.8 1.6.2 3.8v1.9l-7 1.4-3.3-2.2-2.2 3.5 3.3 3.6 6.8-.9.5 2.2-5.2 2.5-4.6-2.2z" data-original-title="greenland" data-placement="top" data-toggle="tooltip"/>
  <path d="m342.9 92.5 1.6 2.4-.8 3h-1.6l-2.2-2.4.5-2 2.5-1z" data-original-title="disko" data-placement="top" data-toggle="tooltip"/>
  <path d="m410.9 85.7 4.6 1.3-.3 3.9-4.9-2.5-1-1.4 1.6-1.3z" data-original-title="milne" data-placement="top" data-toggle="tooltip"/>
  <path d="m388.5 623 3.8-5.1 15-7.7 2.5-5.5 6.4-1.3 6-7.6 5.9-.5 1.3-6 5-3.8 4.3 1.3 12.4-3.8 3 3 5.5.4 5.1-2.6 30.6-.4 11.1 3 14-3 4.7.4 1.3-4.2h4.7l6.4 6.8 11.9-7.7 13.2-3.8 4.6 3 .5-6 6.8-.8 7.2 3.4v3.4l18.3 7.6 5.1-.4 2.2 2.5-6 6.9v4.6l5.5 3 1.3-3 25.1-9.8 18.3-1.7 3.8 2.2 14.5 2.1 3.4 1.3 4.7-2.6 6.8-.4 6.4 4.7.4 5.1 14.5-3 2.1.9.9 4.6 13.2 4.3 4.2-3 .4 3.9 4.7.4 6.4 5.1 6-2.6 5 .5h4l2.5-.5.4 6.9 8.5 5-375.8.5z" data-original-title="east antarctica" data-placement="top" data-toggle="tooltip"/>
  <path d="m260 623 13.6-3.8.9-3.9L289 612l8.5 2.2 18.7-7.7-.4-8-5.6-8.6 1.3-2.1-2.1-5.6v-6h3.4l-2.2-4.2 15.4-13.2-.5 6-3 .8-3 5.2 3 1.2-3 4.3-3.3-.9-1.7 3.9.4 5 5.1-.3 3.4 4.6 1.3 6 6.8 8.5.4 10.6-2.5 1.3 2.1 5.6-1.3 2-70.2.5z" data-original-title="antarctic peninsula" data-placement="top" data-toggle="tooltip"/>
  <path d="m250.2 615.3 5.1-.8 2.2 1.7-.9 2.1-.4 2.6-3 1.2-2.1-2.5h-8.5v-1.7l3.8-.9 3.8-1.7z" data-original-title="thurston" data-placement="top" data-toggle="tooltip"/>
  <path d="m304.7 587.7-4.3.8 2.6 4.7 3 1.3-1.3 2.5v1.7l-8.1 2.2.8 2.5 3.4 1.3 3.9-3 3.4.9-2.2 3.4 1.3.8 3.9-1.7 3-5.5-9.4-12z" data-original-title="alexander" data-placement="top" data-toggle="tooltip"/>
  <path d="m295.8 606.8-3.5 3 3 .9 3.9.8 3.8-2.5-3.8-.9-3.4-1.3z" data-original-title="smyley" data-placement="top" data-toggle="tooltip"/>
  <path d="m319.6 556.5-2.5.5-.6 2.5 4.8-.7-1.7-2.3z" data-original-title="robert" data-placement="top" data-toggle="tooltip"/>
  <path d="m323.6 552.5-3 .6.6 2.3 3.6-.1-1.2-2.8z" data-original-title="king george" data-placement="top" data-toggle="tooltip"/>
  <path d="M328.3 557.2v3.5l2.1.1 1.7-2.6-3.8-1z" data-original-title="james ross" data-placement="top" data-toggle="tooltip"/>
  <path d="m329.3 547.2-2.1.9-.6 2 1.9.7 3.1-2.2-2.3-1.4z" data-original-title="elephant" data-placement="top" data-toggle="tooltip"/>
  <path d="m761.2 428-.4 25.4-3.9 2.8-.3 2.5 5.3 3.6 13.1-2.5h6.8l2.4-3.6 15-2.8 10.6 3.2-.7 4.3 1.4 4.3 8.1-1.5.4 2.2-5.3 3.9 1.7 1.4 4-1.4-1.1 11.8 7.4 5.7 4.3-1.4 2.1 2.1 12.4-1.8 11.8-19 4.2-1 8.5-15.7 2.2-13.6-5.4-6.8 2.2-1.4-4.3-13.2-4.6-3.3.7-17.8-4.3-3.3-1-10h-2.1l-7.1 23.6-4 .4-8.8-9 5-13.2-9.3-1.8L818 384l-2.8 8.2-4.6 1-.4-5.7-18.8 11.5.4 4.3-2.8 4h-7.1l-15.3 6.3-5.3 14.4z" data-original-title="australia" data-placement="top" data-toggle="tooltip"/>
  <path d="m825.7 496.3-1.7 7.1.3 5 5.3-.4 6-9.2-9.9-2.5z" data-original-title="tasmania" data-placement="top" data-toggle="tooltip"/>
  <path d="m913 482 1 11.8-1.3 5.3-5.4 4 .4 4.6v5l1.4 1.8 14.6-12.5V499H920l-5-16.8-2-.3z" data-original-title="new zealand north island" data-placement="top" data-toggle="tooltip"/>
  <path d="m902.4 507.7 2.8 5.4-7.8 7.5-.7 3.9-5.3.7-8.9 8.2-8.2-3.9-.7-2.9 15-6.4 13.8-12.5z" data-original-title="new zealand south island" data-placement="top" data-toggle="tooltip"/>
  <path d="m906.6 420.5-.3 1.8 4.6 6.4 2.5 1 .3-2.4-7-6.8z" data-original-title="new caledonia" data-placement="top" data-toggle="tooltip"/>
  <path d="m722.5 317.6-.3 2.2 6.8 11.5h2l14.1 23.6 5.7.6 2.8-8.3-4.5-2.8-.9-4.6-25.7-22.2z" data-original-title="sumatra" data-placement="top" data-toggle="tooltip"/>
  <path d="m764.1 333 3 3.4 11.6-4 2.3-8.8 5.2-.4 4.7-3.4-6.1-4.5-1.4-2.4-3 5.5 1 3.2-1.8 2.7-3.4-.9-8.4 6.2.2 3.6-3.9-.3z" data-original-title="east malaysia" data-placement="top" data-toggle="tooltip"/>
  <path d="m779.8 319.3-3 3.4 2.5.8 1.3-1.9-.8-2.4z" data-original-title="brunei" data-placement="top" data-toggle="tooltip"/>
  <path d="m789.5 349.1 2.3 2.8-1.5 4.1v.8h3.4l1.1-10.4 1.1.3 2 9.5 1.9.5 1.7-4-1.8-6.2-1.4-2.6 4.6-3.4-1-1.5-4.5 2.9h-1.2l-2.1-3.2.7-1.4 3.6-1.8 5.5 1.7h1.7l4-4-1.6-1.6-3.8 3h-2.5l-3.7-1.8h-2.6l-3 4.8-1.9 8.2-1 3.3z" data-original-title="sulawesi" data-placement="top" data-toggle="tooltip"/>
  <path d="m814.2 330.5-1.9 4.5 3 4h1l1.2-2.7.7-.8-1.3-1.4-1.8-.7-1-2.9z" data-original-title="maluku" data-placement="top" data-toggle="tooltip"/>
  <path d="m820 345.4-4 1-1.2 1.2 1 1.7 2.6-1 1.7-1 2.4 2 1.1-.9-2-2.4-1.6-.6z" data-original-title="seram" data-placement="top" data-toggle="tooltip"/>
  <path d="m753.2 358.3-2.8 1.9.6 1.6 8.8 2 4.4.7 1.8 2 5 .4 2.4 2 2.2-.5 2-1.8-3.7-1.6-3.1-2.7-8.2-2-9.4-2z" data-original-title="java" data-placement="top" data-toggle="tooltip"/>
  <path d="m781.8 367-2.2 1.1 1.3 1.4 3.1-1.2-2.2-1.4z" data-original-title="bali" data-placement="top" data-toggle="tooltip"/>
  <path d="m785.5 366 .4 2 2.3.5.8-1-1-1.6-2.5.1z" data-original-title="lombok" data-placement="top" data-toggle="tooltip"/>
  <path d="m791 371-2.8.4 2.4 2h2l-1.7-2.4z" data-original-title="sumba" data-placement="top" data-toggle="tooltip"/>
  <path d="m791.7 367.7-.6 1.2 4.4.7 3.5-2-2-.6-3.1 1-1.2-1-1 .7z" data-original-title="flores" data-placement="top" data-toggle="tooltip"/>
  <path d="m806.1 368.4-5 4.3.4 1 2.2-.3 2.5-2.4 5-.7-1-1.7-4-.2z" data-original-title="timor" data-placement="top" data-toggle="tooltip"/>
  <path d="m880.5 349-.9 1.3 4.8 4.2.7 2.5 1.3-.1.1-2.6-1.4-1.3-4.6-4z" data-original-title="new ireland" data-placement="top" data-toggle="tooltip"/>
  <path d="m882.9 355-1 .2-.5 2.6-1.9 1.2-5.4 1 .2 2 5.7-.3 3.7-2.3-.2-4-.6-.4z" data-original-title="new britain" data-placement="top" data-toggle="tooltip"/>
  <path d="m889.4 359.5 1.2 3.5 2.2 2 .7-.5-.2-2.3-2.5-3-1.4.3z" data-original-title="bougainville" data-placement="top" data-toggle="tooltip"/>
  <path d="m895.4 364.6.2 2.3 1.4 1.3 1.3-.8-1.2-2.4-1.7-.4z" data-original-title="choiseul" data-placement="top" data-toggle="tooltip"/>
  <path d="m897.2 370.3-1.2 1.3 1.2 2.2 1.5.5v-1.6l-1.5-2.4z" data-original-title="new georgia" data-placement="top" data-toggle="tooltip"/>
  <path d="m900 369 1 2.5 2 2.3 1.1-1.7-1.5-2.5-2.6-.6z" data-original-title="santa isabel" data-placement="top" data-toggle="tooltip"/>
  <path d="m905.1 372.7.6 3.1 1.4 2 1.2-2.5-3.2-2.6z" data-original-title="malaita" data-placement="top" data-toggle="tooltip"/>
  <path d="m906.7 379.6-.5 1 1.7 2.1 1.2.1-.8-2.9-1.6-.3z" data-original-title="santa ana" data-placement="top" data-toggle="tooltip"/>
  <path d="m903 384-1.7.9 1.5 2 1.3-.6-1-2.3z" data-original-title="rennell" data-placement="top" data-toggle="tooltip"/>
  <path d="m920.9 397.2-1.3 1.7.5 1.9.7.4 1.1-1.5-1-2.5z" data-original-title="espiritu santo" data-placement="top" data-toggle="tooltip"/>
  <path d="M921.5 402.3v1.4l1.4.4 1-.5-1-1.5-1.4.2z" data-original-title="malakula" data-placement="top" data-toggle="tooltip"/>
  <path d="m923.5 414.4-.7 1 1 1 1.5-.6-1.8-1.4z" data-original-title="efate" data-placement="top" data-toggle="tooltip"/>
  <path d="m948.6 412.3-1.2 1.7-.1 1.8 1.4 1.5v-5z" data-original-title="fiji" data-placement="top" data-toggle="tooltip"/>
  <path d="m789.4 297.5-.9 1.7-.5 2-4.8 6 .3 1.3 2-.3 6.3-7-2.4-3.7z" data-original-title="palawan" data-placement="top" data-toggle="tooltip"/>
  <path d="M797.1 295.2v5l1.7 1.9.7 3.5 1.8.4.9-2.2-1.4-1-.4-6.3-3.3-1.3z" data-original-title="negros" data-placement="top" data-toggle="tooltip"/>
  <path d="m802.3 297.1-.1 4.5 1 1.7 1.8-2.1-.4-3.9-2.3-.2z" data-original-title="cebu" data-placement="top" data-toggle="tooltip"/>
  <path d="m803.4 293.3 1.8 2.4.9 2.3h1.6l-.3-4-1.8-1.2-2.2.5z" data-original-title="samar" data-placement="top" data-toggle="tooltip"/>
  <path d="m807 302.4.3 2.8-3.3 2.7-2.8.3-3 3.2.2 1.5 2.7-1 2-1.2 1.6 4.2 2.8 2 1.2-.4 1-1.2-2.3-2.4 1.4-1 1.5 1.2 1-1.7-1-2.1-.2-4.7-3.1-2.3z" data-original-title="path7462" data-placement="top" data-toggle="tooltip"/>
  <path d="m791.4 273-2.6 1.8-.3 5.8 4 7.8 1.4 1 1.7-1.1 3 .5.5 2.6 2.2.2 1-1.5-1.3-1.8-1.6-1.6-3.4-.3-1.9-3 2.1-3.2.2-2.8-1.4-3.6-3.6-.8z" data-original-title="luzon" data-placement="top" data-toggle="tooltip"/>
  <path d="m792.7 290.2.8 2.7 1.3.9 1-1.3-1.5-2-1.6-.3z" data-original-title="mindoro" data-placement="top" data-toggle="tooltip"/>
  <path d="m759.8 270.2-2.4.6-1.7 2.2 1.4 2.8 2.1.1 2.4-2 .6-2.9-2.4-.8z" data-original-title="hainan" data-placement="top" data-toggle="tooltip"/>
  <path d="m787.5 248.3-3.6 2.7-.2 5.2 3 3.6.8-.7v-10.8z" data-original-title="taiwan" data-placement="top" data-toggle="tooltip"/>
  <path d="m803.2 216.4-1.6 1.7.7 2.3h1.4l1 5 1.1 1.3 2-1.8.9-3.3-2.5-3.5-3-1.7z" data-original-title="kyushu" data-placement="top" data-toggle="tooltip"/>
  <path d="m812 213.2-2.7 2.6-.1 3 .6.8 3.8-3.2-.3-3.1-1.3-.2z" data-original-title="shikoku" data-placement="top" data-toggle="tooltip"/>
  <path d="m808.2 207-4.9 5.6.9 1.3 2.4.3 4.5-3.5 3.1-.5 2.9 3.3 2.2-.7.9-3.3 4-.1 4-4.8-2-8-1-4.3 2.1-1.7-4.8-7.2h-1.2l-2.6 3v2.4l1.2 1.3.4 6.4-3 3.6-1.7-1-1.4 3-.3 2.8 1 1.6-.6 1.2-2.2-1.8h-1.5l-1.4.8-1 .3z" data-original-title="honshu" data-placement="top" data-toggle="tooltip"/>
  <path d="m816.4 163.4-1.5 1.4.8 2.9 1.3 1.3v4.5l-1.8.6-1.4 3 4 5.4 2.5-.9.5-1.3-2.7-2.5 1.7-2.2 1.8.3 1.4 1.5.1-3.2 4-3.2 2.1-.5-1.8-3.1-.8-1.4-1.5 1-1.2 1.5-2.7-.6-2.8-1.8-2-2.7z" data-original-title="hokkaido" data-placement="top" data-toggle="tooltip"/>
  <path d="m830.9 160.4-2.7 3.8.2 1.8 1.3-.5 3.2-4-2-1z" data-original-title="iturup" data-placement="top" data-toggle="tooltip"/>
  <path d="m834.4 155-1 2.6.1 1.7 1.7-1 1.5-3.2V154l-2.3 1z" data-original-title="urup" data-placement="top" data-toggle="tooltip"/>
  <path d="m840 132-1.2 1.6.1 2.4 1.1-.1 2-3.4-2-.5z" data-original-title="paramushir" data-placement="top" data-toggle="tooltip"/>
  <path d="M837.8 138v4.1l1.3.5 1-1.5v-3.3l-2.4.1z" data-original-title="onekotan" data-placement="top" data-toggle="tooltip"/>
  <path d="M798.6 122.6v6.2l7.7 12L809 151l4.8 9.3 2 .6 1.6-1.3.7-2.2-7-7.7.2-3.9 1.6-.7.4-2.3-13.7-19.3-1-1z" data-original-title="sakhalin" data-placement="top" data-toggle="tooltip"/>
  <path d="m852.6 103.4-2 .2 1.2 1.7 2.4 1.6.7-.8-2.3-2.7z" data-original-title="bering island" data-placement="top" data-toggle="tooltip"/>
  <path d="m856.3 104.6.3 1.6 3 .9.2-1.2-3.5-1.3z" data-original-title="medny" data-placement="top" data-toggle="tooltip"/>
  <path d="m872.5 110.9 1.3 2.2 2-.1.5-1.6-3.8-.5z" data-original-title="attu" data-placement="top" data-toggle="tooltip"/>
  <path d="m893.5 114.4 1.7 3 1.2-1.4v-2l-2.9.4z" data-original-title="amchitka" data-placement="top" data-toggle="tooltip"/>
  <path d="m907.8 104.6-2.4 3 .6 1.4 3-1.8.2-1.8-1.4-.8z" data-original-title="adak" data-placement="top" data-toggle="tooltip"/>
  <path d="m919.6 95-2 2.4 2.1.9v-3.4z" data-original-title="umnak" data-placement="top" data-toggle="tooltip"/>
  <!-- <path d="m922.5 90.7-1.4 2.3.2 2.2 2-.8-.8-3.7z" data-original-title="unalaska" data-placement="top" data-toggle="tooltip"/> -->
  <path d="m881.3 38.4-2.4 1.5-.5 2 1 1.3 2.6-.9 2.5.8 1.4.5-.2-4.7-4.4-.5z" data-original-title="st. lawrence island" data-placement="top" data-toggle="tooltip"/>
  <path d="m69.2 53.4 3.4 6.4 2.3-.5v-2.2l-5.7-3.8z" data-original-title="st. lawrence island west" data-placement="top" data-toggle="tooltip"/>
  <path d="m883.4 17.5-4.2 7.6 8 5.1 9.1-7.6 5.5 9.2-5.7 1.2-2.3 5.9L906.5 56l7.7 1.2 11 2.2 1.3-4 3.9 1.5.7 16.8-7.1 11.8 3.4.8 9-19 2.8-14.1-5.6-2.6-.9-19 4.3.8V44l4.6 4 2.7-9.9-2.1-5.9 6.5 3.1.7-35-75.7.2-4.4 3.4.6 6.7 13.4 1.9 10.3-2.4-3.7 7-6.5.4z" data-original-title="alaska" data-placement="top" data-toggle="tooltip"/>
  <path d="m1.2 55 14 1.5 2.3 4.9 11.2-6.6 18.7-2.6 1.3-9.7 9.3-3.4 6.1-5.7v7.8l6.2 8.5 13-8.2-6.2-7-7.8-21.1-9.4-10.7-6.6-.6-.2 5.8-5.5 2.8L46 7.3l3.3-7L1.3.5 1.2 55z" data-original-title="chukotka" data-placement="top" data-toggle="tooltip"/>
  <path d="m78.5 3.3-3.9 3.5 1.2 2.7 2-1.5L79 9.3 83 8l-.1-2.2-4.3-2.4z" data-original-title="wrangel-w" data-placement="top" data-toggle="tooltip"/>
  <!-- <path d="m49.7 110.3-.2 3 2.1-.5v-1.4l-2-1.1z" data-original-title="unalaska west" data-placement="top" data-toggle="tooltip"/> -->
  <path d="m46.3 111.6-4.3 2.2.7 2.3 1.7-1.3 3.3-1.5-1.4-1.7z" data-original-title="umnak west" data-placement="top" data-toggle="tooltip"/>
  <path d="m28.4 114.4-3-.6-.5 1.3.3 2.5 3.2-3.2z" data-original-title="another aleutian west" data-placement="top" data-toggle="tooltip"/>
  <path d="m22 114.3-2.8-1.2-1 1.9 1.9 1.8 2-2.5z" data-original-title="adak west" data-placement="top" data-toggle="tooltip"/>
  <path d="m12.3 111.6-1.4-1.8-1.3.5v2.5l1.5 1 1.2-2.2z" data-original-title="amchitka west" data-placement="top" data-toggle="tooltip"/>
  <path d="M1.5 99.7 3 101l-.5 1.3H1.5v-2.5z" data-original-title="attu west" data-placement="top" data-toggle="tooltip"/>
  <path d="m622.8 499.6-.2 4.3 6 1.4 1.3-3.5-2.1.6-2.7.6-.8-3.2-1.5-.2z" data-original-title="kerguelen" data-placement="top" data-toggle="tooltip"/>
  <path d="m613 399-1.5 2 .3 2.1 3.2-2.6-2-1.5z" data-original-title="mauritius" data-placement="top" data-toggle="tooltip"/>
  <path d="m607.4 402.4-2.3.1-.1 2 1.5.3 2.3-1-1.4-1.4z" data-original-title="reunion" data-placement="top" data-toggle="tooltip"/>
  <path d="m592.3 373-2.1 5-3.7 6.4-6.4.5-2.7 3.2.5 9.8-4 4.6.5 7.8 3.3 3.9 4-.5 4-3-1-4.5 9.1-15.8-1.8-2 1.8-3.8 2 .6.6-1.5-1.8-7.9-1-3.2-1.3.3z" data-original-title="madagascar" data-placement="top" data-toggle="tooltip"/>
  <path d="m577.7 371.2.5 1.6 2 .3.7-2-3.2.1z" data-original-title="grande comore" data-placement="top" data-toggle="tooltip"/>
  <path d="m580.6 374.3.7 1.7h1.3l.6-2.2-2.6.5z" data-original-title="mayotte" data-placement="top" data-toggle="tooltip"/>
  <path d="m602.4 358.3-.7 1.3 1.7 1.3 1.2-1.3-2.3-1.3z" data-original-title="aldabra" data-placement="top" data-toggle="tooltip"/>
  <path d="m610.9 349.1-1.8 1.3 1.3 2.1h1.8l-1.3-3.4z" data-original-title="praslin" data-placement="top" data-toggle="tooltip"/>
  <path d="m611.6 354.5-1.2 1.4 1 1.4 1.6.3.1-3h-1.5z" data-original-title="mahe" data-placement="top" data-toggle="tooltip"/>
  <path d="m656.4 320.8.3 2.6 1.7.6.3-2.3-2.3-1z" data-original-title="male" data-placement="top" data-toggle="tooltip"/>
  <path d="m658.5 326.3-.1 3.2 1.2.6 1-2.1-2-1.7z" data-original-title="maldive" data-placement="top" data-toggle="tooltip"/>
  <path d="m658.8 332.6-1 1 1.2 1.1 1.5-1-1.7-1.1z" data-original-title="gan" data-placement="top" data-toggle="tooltip"/>
  <path d="m372.6 217-1.3 1.4 2.4 1.4.3-2-1.4-.8z" data-original-title="path151" data-placement="top" data-toggle="tooltip"/>
  <path d="m380 216.2-1.7 1 1.4 1.2 2.2-.6-2-1.6z" data-original-title="terceira" data-placement="top" data-toggle="tooltip"/>
  <path d="m381 220-.8 2.2 1.1 1.4 1.4-1.1-1.6-2.5z" data-original-title="pico" data-placement="top" data-toggle="tooltip"/>
  <path d="m387.6 224.4-.6 1.4.8.8 2.2-1.4-2.4-.8z" data-original-title="sao miguel" data-placement="top" data-toggle="tooltip"/>
  <path d="m408.2 236.4-1.1 1.4 1 1.4 1.7-.9-1.6-1.9z" data-original-title="madeira" data-placement="top" data-toggle="tooltip"/>
  <path d="m415.6 253.7-1.7 1 .8.9 1-1.9z" data-original-title="lanzarote" data-placement="top" data-toggle="tooltip"/>
  <path d="m409.5 254-2.1.5 1 1.6h1.7l-.6-2.2z" data-original-title="gran canaria" data-placement="top" data-toggle="tooltip"/>
  <path d="m404.4 252.3-1.4 1.3 2 1.7 1-2.5-1.6-.5z" data-original-title="tenerife" data-placement="top" data-toggle="tooltip"/>
  <path d="m387.6 290.5-2 1.1 1.4 1.1 1.7-.8-1.1-1.4z" data-original-title="santo antao" data-placement="top" data-toggle="tooltip"/>
  <path d="m392.2 292.7-1.2 1.1.9 1.7 2-1-1.7-1.8z" data-original-title="boa vista" data-placement="top" data-toggle="tooltip"/>
  <path d="m389.5 295.8-1.6 1 1.7 2.3 1.4-.7-1.5-2.6z" data-original-title="santiago" data-placement="top" data-toggle="tooltip"/>
  <path d="m10 248.7-.1 2.3 2 1.4 1.2-1-3.1-2.7z" data-original-title="kauai" data-placement="top" data-toggle="tooltip"/>
  <path d="m15.3 252.1-2 1.4 1.7 2 2-1.6-1.7-1.8z" data-original-title="oahu" data-placement="top" data-toggle="tooltip"/>
  <path d="m19.1 255.4-1.6 2.2.5 1.4 2.3-1.1-1.2-2.5z" data-original-title="kahului" data-placement="top" data-toggle="tooltip"/>
  <path d="m21.8 259.6-1 5.5 1 2 3.1-.9 1.7-2.7-3.4-3.2-1.4-.7z" data-original-title="hawaii" data-placement="top" data-toggle="tooltip"/>
  <path d="m27.3 402.7-2-.2v1.8l1.4 1 1.8-1.1-1.3-1.5z" data-original-title="raiatea" data-placement="top" data-toggle="tooltip"/>
  <path d="m33.8 404.6-2.7 1.8 2 2.4 1.8-.4 1-1.2-2.1-2.6z" data-original-title="tahiti" data-placement="top" data-toggle="tooltip"/>
  <path d="m276.6 283.4-1.5.6.5 1.3 1.8-1.1-.4-.4-.4-.4z" data-original-title="guadeloupe" data-placement="top" data-toggle="tooltip"/>
  <path d="m279 284.9-.8 1.9 1 1.4 1.4-1.2-1.5-2.1z" data-original-title="dominica" data-placement="top" data-toggle="tooltip"/>
  <path d="m282 290-1 1 .8 1.6 1.5-.4-1.2-2.2z" data-original-title="martinique" data-placement="top" data-toggle="tooltip"/>
  <path d="m282 294-.7 1.5 1.1 1.3 1.5-.8-2-2z" data-original-title="st. lucia" data-placement="top" data-toggle="tooltip"/>
  <path d="m282 297.9-1.2.8 1 1.8 1.6-.9-1.3-1.8z" data-original-title="st. vincent" data-placement="top" data-toggle="tooltip"/>
  <path d="m280.6 301.3-1.2 1.2.5.7h1.4l.4-1.2-1.1-.7z" data-original-title="grenada" data-placement="top" data-toggle="tooltip"/>
  <path d="m282.2 304.8-1 1-1.2.1v1.5l2.2 2 .8-1.5.6-1.6-.2-1.3-1.2-.2z" data-original-title="trinidad" data-placement="top" data-toggle="tooltip"/>
  <path d="m271 281-2.6-.8-2.1 1.3 1 1.2 3.7.6V281z" data-original-title="puerto rico" data-placement="top" data-toggle="tooltip"/>
  <path d="m250.9 275.4-1.7 1.7 2 .8.2 2.4-4.2.3.4 2.3 1.2.1.7-1 5 .1.9 1.7 1.1-1.3 3.3-1 3 .7.3-1.8-5.3-3.4-3.4-1.3-3.5-.3z" data-original-title="haiti-dominican border" data-placement="top" data-toggle="tooltip"/>
  <path d="m263.1 280.4-5.3-3.4-2.5-.9-.8 6 .9 1.7 1.1-1.3 3.4-.9 2.9.6.3-1.8z" data-original-title="domincan republic" data-placement="top" data-toggle="tooltip"/>
  <path d="m250.9 275.4 3.4.3-.4 4.3-.3 2.2-4-.2-.8 1h-1.2l-.4-2.4 4.2-.3-.3-2.4-2-.8 1.8-1.7z" data-original-title="haiti" data-placement="top" data-toggle="tooltip"/>
  <path d="m308 508.2-2.7-.3-2.6 1.8 1.9 2 3.3-3.5z" data-original-title="falklands west" data-placement="top" data-toggle="tooltip"/>
  <path d="m310.6 506.9-.9 2.8-2.5 2.2.2.7 4.2-1.6 1.7-2.2-2.7-2z" data-original-title="falklands east" data-placement="top" data-toggle="tooltip"/>
  <path d="m406.4 117.3-2-1.1-2.6 1.7-2.3 2v1.2l3 .4-.2 2.1-1 1 .2.7 3 .2v3.4l4.2.8 2.5 1.4 2.8.1 4.9-2.4 3.7-5v-3.3l-2.2-1.9-2-1.6-.8.6-1.3 1.7-1.4-.2-1.5-1.6-1.9.2-2.8 2.3-1.6 1.7-1-.8v-2l1-.6-.7-1z" data-original-title="iceland" data-placement="top" data-toggle="tooltip"/>
  <path d="m488.3 54-1.7-1.7-3.7 1.8h-6.7l-1 3.9 3.7 3.3 1.7-.2 2.3-4 2 1.4-1.4 2.8-.7 4.2 1.7 2.6 3.5-6 4.6-5.5-1.8-1.6-2.5-1z" data-original-title="spitsbergen" data-placement="top" data-toggle="tooltip"/>
  <path d="m490.3 46.8-3 2.8 1.8 2.7h3.2l1.3 1.8 3.8 2 4.5-2.6 3.1-2.6-1-2.2-3.1-1.8-2.3 2-1.5-1.8h-1.2l-1.5 3.4-2.2-2.2-.3-1.6-1.6.1z" data-original-title="nordaustlandet" data-placement="top" data-toggle="tooltip"/>
  <path d="m497 59-2.4 2.2-2 1.5 1 1.7 1.8.6 3.1-1.4 1.4-1.8-1.3-2.1-1.6-.6z" data-original-title="edgeoya" data-placement="top" data-toggle="tooltip"/>
  <path d="m547.8 38.8 1.7.7-1.2 2v3l-2.5 1.6H543l-1.6-2 .2-2 1.2-1.6h2.4l2.6-1.7z" data-original-title="prince george" data-placement="top" data-toggle="tooltip"/>
  <path d="M554.4 36.9v2l1.7 1.5 2.4-.2 2-2V37h-1.8l-1.6.5L556 36l-1.5.9z" data-original-title="salisbury" data-placement="top" data-toggle="tooltip"/>
  <path d="m564.2 37 1.2 2.7 2.4.1 1.7-.7-.8-2.4-2.3-.5-2.2.9z" data-original-title="wilczek" data-placement="top" data-toggle="tooltip"/>
  <path d="m574 33.6-1.9-.4-1.7 1.8.8 1.5.6 2.5 2.2-1.8.5-1.9-.5-1.7z" data-original-title="bell" data-placement="top" data-toggle="tooltip"/>
  <path d="m584.5 52-.5 2.4-4 3.5-8.4 1.9-7 11.4-1.1 3.3 6.9 1.8 1-4.2 2-6.4 5.4-2.8 4.5-3.5 3.3-1.3h1.7v-4.7l-3.8-1.4z" data-original-title="novaya zemlya north" data-placement="top" data-toggle="tooltip"/>
  <path d="m562.3 77.3 4.6.5 1.6 5.4 4 4.2L571 90h-2.5l-2.2-2.6-5-.1-2-2.8v-2l3-.8-.1-4.5z" data-original-title="novaya zemlya south" data-placement="top" data-toggle="tooltip"/>
  <path d="m635 18.1-2.3-1.3h-2.6l-.5 1.5L627 20l-2.1.7-.3 2 4.8.4 5.7-4.9z" data-original-title="komsomolets" data-placement="top" data-toggle="tooltip"/>
  <path d="m640.3 18.7-1.2 2.6-2.4-.2-3.8 2.8-1 3.5h2.4l1.3-2.3 3.3 2.4 3.1-1.4 2.2-1.9-.8-3-1.2-2-2-.5z" data-original-title="october" data-placement="top" data-toggle="tooltip"/>
  <path d="m645.3 20.6 1.2 4.8 1.9 4.5 2-3.6 4-.9v-2.6l-2.6-1.9-6.5-.3z" data-original-title="bolshevik" data-placement="top" data-toggle="tooltip"/>
  <path d="m739.8 12.8 2.7 2.3 1.9-.8.5-3.2-3.9-2.7-2.6 1.7-6.3.6v2.8l-6.6.1v4.6l7.8 5.8 2-1.5-.5-4 5-1.3-1-2-1.8-1.7 2.8-.7z" data-original-title="kotelny" data-placement="top" data-toggle="tooltip"/>
  <path d="m747 10 1.7 3.5 7-.8 1.9-2.5-.5-2.1-1.9-.8-1.8 1.3-5.1 1.2-1.4.3z" data-original-title="novaya sibir" data-placement="top" data-toggle="tooltip"/>
  <path d="m746.5 23.3-3.5-.9-2 2.2-.9 2.9 4.7-.5 3.6-1.8-2-1.9z" data-original-title="lyakhovsky" data-placement="top" data-toggle="tooltip"/>
  <path d="m836.7 3.8-3-1-3.3 1.3-1.7 2.5 2.1 2.8 5.7-2.5 1-1.2-.8-2z" data-original-title="wrangel" data-placement="top" data-toggle="tooltip"/>
  <path d="m680.5 308 .3 2.8.2 2-1.4.2.7 4.5 2.2 1.2 3.4-2-1-4.7.3-1.7-3.2-3-1.5.8z" data-original-title="sri lanka" data-placement="top" data-toggle="tooltip"/>
  <path d="M220.8 267v1.2h5.4l2.5-1.4.4 1.1 5.2 1.3 4.6 4.2-1 1.4.2 1.7 3.8 1 3.9-1.8 1.7-1.7-2.5-1.3-13-7.6-4.5-.5-6.7 2.3z" data-original-title="cuba" data-placement="top" data-toggle="tooltip"/>
  <path d="m239.6 259.1-1.2-.4-.1 2.5 1.5 1.5 1-1.5-1.2-2z" data-original-title="bimini" data-placement="top" data-toggle="tooltip"/>
  <path d="m242.1 263-1.7.9 1.6 2.3.9-1.1-.8-2.2z" data-original-title="andros" data-placement="top" data-toggle="tooltip"/>
  <path d="m247.7 264.7-1.8-.1.2 1.1 1.3 2 1.2-1.3-.9-1.7z" data-original-title="inagua" data-placement="top" data-toggle="tooltip"/>
  <path d="m246.9 262.4-3-1.3-.6-3 1.1-.5 1.2 2.3 1.2.9v1.6z" data-original-title="eleuthera" data-placement="top" data-toggle="tooltip"/>
  <path d="m244 256.2-1.6-.4-.3-2-1.6-.5 1-1 2 .6 1.4.9-1 2.4z" data-original-title="grand bahama" data-placement="top" data-toggle="tooltip"/>
  <path d="m239 279.6-3.5.9v1l2 1.1h2.1l1.4-1.6-2-1.4z" data-original-title="jamaica" data-placement="top" data-toggle="tooltip"/>
  <path d="m832 339.3-4.2.5-2.7 2 1 2.2 4.6.8v.9L828 348l1.4 4.9h1.3l1.2-4.7h2.3l.9 4.7 10.8 9 .3 7 3.7 4 1.7-.2.3-24.7-6.2-4.4-6 4-2.1 1.4-3.5-2.3-.1-7-2-.4z" data-original-title="irian jaya" data-placement="top" data-toggle="tooltip"/>
  <path d="m93.1 44.9-8.4 2 1.7 9.4 9.2 2.5.5 2L82.5 65l-7.7 12.7 2.8 13.4 4.4 3 3.5-3.2 1 2-4.3 5-16.2 7.4-10.4 2.5-.3 3.7 24-7 9.8-2.7 9.2-11.2 10.1-6.7-5.2 8.7 5.7.8 9.6-4.2 1.8 7 6.6 1.4 7 6.7.4 5-1 1.2 1.3 4.7h1.7l.2-8h2l.5 19.7 5-4.2-3.5-20.4h-5.2l-5.7-7.2 28-47.3-27.7-21.6-30.9 6-1.2 9.4 6.7 4-2.5 6.5-8.9-7.2z" data-original-title="alaska-westcopy" data-placement="top" data-toggle="tooltip"/>
  <path d="m195 338.2-.7 2.7-1.1 1.2.8 1.4 2-.8 1-1.7-.6-1.8-1.4-1z" data-original-title="galapagos" data-placement="top" data-toggle="tooltip"/>
  <path d="m203.7 35.9.3 4-8 8.3 2 6.7 5.7-1.6 3.4-4.9 8.4-3.1 6.8-.5L217 39l-2.6 2-2-.7-1.1-2.4-2.5-2.5-5 .5z" data-original-title="banks" data-placement="top" data-toggle="tooltip"/>
  <path d="m214.2 24-1.8 3.2 8.6 3.1 3.1-4.7 1.4 3.1h2.2l4.2-4.6-5.1-1.4-2-1.5-2.7 2.6-8 .3z" data-original-title="prince patrick" data-placement="top" data-toggle="tooltip"/>
  <path d="m229.2 30.3-6.8 3v2.1l8.8 3.4-2 2.2 1.4 3 5.5-2.5h4.7L243 45l3.7-3.8-.8-3.6-3.1 1.2-.5-4.5 1.6-2.7h-1.6l-2.4 1.6-1.1.9.6 3.1-1.7 1.3-2.7-.2-.7-4-5-4z" data-original-title="eglinton" data-placement="top" data-toggle="tooltip"/>
  <path d="m238.3 23.4-.7 2.2 4.3 2 3-1.8-.2-1.3-6.4-1.1z" data-original-title="mackenzie king" data-placement="top" data-toggle="tooltip"/>
  <path d="m241.6 19.6-3 1.1.2 1.6 6.8-.5-.2-1.6-3.8-.6z" data-original-title="king christian" data-placement="top" data-toggle="tooltip"/>
  <path d="m256.5 23.4-.4 1.5-1.2 1.6v2.2l4.3-.6 4.4 3.8h1.5V28l-4.4-5-4.2.3z" data-original-title="ellef ringnes" data-placement="top" data-toggle="tooltip"/>
  <path d="m267.8 27.9 1.8 2-1.6 2.6 1.1 3 5-2.7v-2l-3-3.4-3.3.5z" data-original-title="amund ringnes" data-placement="top" data-toggle="tooltip"/>
  <path d="m274.2 22.7.3 3.6h6l1.5 1.3-.2 1.6-5.3.7 3.7 5 5.1 1 7.1-3.1-10.2-15.5-3 2 .1 2.7-3.5-1.3-1.6 2z" data-original-title="axel heiberg" data-placement="top" data-toggle="tooltip"/>
  <path d="m222.6 48-8.4 2.2-5 4.2.5 4.7 8.9 2.7-2 4.5-6.4-4-1.8 3.3 4.2 3-.2 4.6 6.4 1.8 7.8-.5 1.3-2.4 5.8 6.5 4-1.4.6-4.4 2.9 2 .4-4.5-3.5-2.2.2-14.1-3-2.5-3.4 4.5-9.3-8z" data-original-title="victoria" data-placement="top" data-toggle="tooltip"/>
  <path d="m249.6 57.8-2.8-1.3-1.6 2 3.1 4.9.2 4.7 6.7-4v-5.9l2.4-2.4-2.4-1.8h-4l-1.6 3.8z" data-original-title="prince of wales" data-placement="top" data-toggle="tooltip"/>
  <path d="m263.8 55.8-4.6 3.8 1 4.7h3l1.3-2.5 2 2 2-.2 5.3-4.5-10-3.3z" data-original-title="prescott" data-placement="top" data-toggle="tooltip"/>
  <path d="m263.4 48.4-1.1 2.2 4.8 1.8 1.4-2-5.1-2z" data-original-title="cornwallis" data-placement="top" data-toggle="tooltip"/>
  <path d="m260.5 40-4.9.6-2.9 2.7 5.4.2-1.6 4 1.1 1.8 1.6-.2 3.7-6-2.4-3.2z" data-original-title="bathurst" data-placement="top" data-toggle="tooltip"/>
  <path d="m269 38.4-2.7.8.4 3.6 4.4 3 .2 2.1-1.3 1.4.7 4.5 17 5.5 4.7 1.6 4.7-4-5.6-4.5-5 1.3-7.1-.6-2.7-2.7-.7-7.4-4.4-2.2-2.7-2.4z" data-original-title="devon" data-placement="top" data-toggle="tooltip"/>
  <path d="M282.9 61.6 278 61l-5.8 2.3-3 4.2.8 11.6 9.6.5 9 4.5 6.5 7.3 4.9-.2-1.4 7-4.4 7.3-4.9 2.2-3.5-.6-1.8-1.6-2.7 3.6 1.1 3.5 3.8.3 4.7-2.3 4 10.3 10 6.5 6.8-8.7-5.7-9.4 3.3-3.8 4.6 7.8 8.5-7.4-1.6-3.3-5.7 1.8-4-11 3.7-6.2-7.5-8-4.2 2.8-4-8.7-8.4 1.2-2.2-10.5-7 4.6-.6 5.9h-3.8l.5-5.2 5.3-7.8z" data-original-title="baffin" data-placement="top" data-toggle="tooltip"/>
  <path d="m292.9 65.6-1.8 1.8 1.5 2.5 7.4.8-4.7-4.9-2.4-.2z" data-original-title="bylot" data-placement="top" data-toggle="tooltip"/>
  <path d="M285.8 40.4v2l-5 1 1.4 2.3 5.6 2.2 6.2.7 4.4 3.1 4.4-2.4-3-3.1h4l2.4-2.7 6-1v-1.3l-3.4-2.2.5-2.4 9.3 1.5 13.7-5.3-5-1.6 1.2-1.8h10.7l1.8-1.8-21.6-7.6-5-1.8-5.6 4-6.2-5-3.3-.3-.7 4.2-4.2-3.8-4.9 1.6.9 2.5 7.3 1.5-.4 3.6 4 2.4 9.7-2.4.2 3.3-8 3.8-4.8-3.8-4.4.5 4.4 6.2-2.2 1.2-3.4-3-2.4 1.6 2.2 4.3h3.8l-.9 4-3.1-.5-4-4.2-2.6.5z" data-original-title="ellesmere" data-placement="top" data-toggle="tooltip"/>
  <path d="m266 101.8-4.2 5.4-.3 5.8 3.7-2.1h4.5l3.2 3 2.9-2.5-9.8-9.6z" data-original-title="southhampton" data-placement="top" data-toggle="tooltip"/>
  <path d="M317.5 171 307 181.3l1.1 2.4 13 4.8 1.8-3.2-1-5.3-4.3.5-2.4-2.7 4-4-1.6-2.6z" data-original-title="newfoundland" data-placement="top" data-toggle="tooltip"/>
  <path d="m158.2 48.7 2 3 1 4 5 1.2 3.5-3.7 3 1.5 8.4.7 6-2.5 1 8.3h3.5v-3.5l3.5.3 8.7 10.2 5.8 3.6-3 4.7 1.2 1.3L219 80l.3 5 3 .5.7-7.5 4.7-1.2 3.5 5.2 7.5 3.5 3.7.8 2.5-3 .3-4.8 4.4-2.7 1.5 4-4 7 .5 3.5 2.3-3.5 4.5-4 .2-5.3-2.5-4 .8-3.3 6-3 2.7 2 .5 17.6 4.2-3.7 2.5 1.5-3.5 6 4.5 1 6.5-10 5.5 5.7-2.3 10.3-5.5 3-5.2-2.5-9.4 2 1 3.3-2.5 4-7.8 1.7-8.7 6.8-7.7 10.3-1 3.3 5.2 2 2 5 7.2 7.3 11.5 5-2.5 11.5-.2 3.3 3 2 4-5.3.4-10 6.3-.2 3-5.8.5-8.8 8-15.6 9.9 3.6 5.2 7.2-2.2 7.3 4 2.3 9.7-6.6 2.7 17.9 9 10.8.2 5.5-10 2.5-4.6 5-10-2.3-5-.2-8.7 6.8 5.2-1.3 6.5-1.2 1.3 1.5-1.8 5.5.3 5 3 2 3-.7 1.4-2.3h2l-3.2 6-6.2.3-2.8 4h-3.5l-1-3 5-5-6 2-.2-8.5-1.8-1-5.2 2.2-.5 4.3h-12l-10.2 7L241 201l-1.4-2 6.9-10.3-4-3.7-2.5-4.8-5-3.9-5.5-.4-9.7-6.9-70.7-11.6-1.2-4.8-6.5-6v-5l1-4.5-.5-2.5-2.5-2.6-.5-4 6.5-4.5-4-21.6-5.5-.2-5-6.6 27.4-46.4z" data-original-title="canada" data-placement="top" data-toggle="tooltip"/>
  <path d="m148.8 158.3-1 4-3.5-2.2h-1.8l-1 4.3-12.2 27.3 3.3 23.9 4 2 .7 6.5h8.2l8 6 15.7 1.5 1.7 8 2.5 1.8 3.5-3.5 2.7 1.3 2.5 11.5 4.3 2.8 3.5-6.6 10.7-7.7 7 3.2 6 .5.2-3.7 12.4.2 2.5 2.8.5 6.2-1.5 3.5 1.8 6h3.7l3.7-5.7-1.5-2.8-1.4-6 2.2-6.8 10.2-8.7 7.7-2.3-1-7.3 10.7-11.5 10.7-1.8-1.7-6 10.5-6v-8l-1-.6-3.8 1.3-.5 5h-12.4l-9.8 6.5-15.2 5-2.5-3 7-10.5-3.5-3.2-2.3-4.5-4.8-3.8-5.3-.5-9.9-6.8-70.5-11.6z" data-original-title="usa" data-placement="top" data-toggle="tooltip"/>
  <path d="m133.8 128.4-1.7 3.3.6 2.3 1.1.7-.2 1-1.2.2.3 3.5 1.3 1.3 1-1.1-1.3-3.4.8-2.6 1.9-2.5-1.4-2.3-1.2-.4z" data-original-title="haida gwaii" data-placement="top" data-toggle="tooltip"/>
  <path d="m139.4 148-1.5.5 2.8 3.3.7 3.9 2.8 3 2.4-.5v-3.9l-2.9-1.8-4.3-4.6z" data-original-title="vancouver" data-placement="top" data-toggle="tooltip"/>
  <path d="m194.9 291.5 6 4.4 5.9-7.5-1-1.5h-2v-4.4l-1.6-1-4.6 1.4 1.7 4.1-4.4 4.5z" data-original-title="guatemala" data-placement="top" data-toggle="tooltip"/>
  <path d="m207.6 288.8 9.2-.4 2.7 3.3-1.7-.4-3.3.1-4.3 4-1.8 4.2-1.2-.7v-4.5l-2.7-1.7 3-4z" data-original-title="honduras" data-placement="top" data-toggle="tooltip"/>
  <path d="m201.7 296.3 4.7 2.3-.1-3.7-2.4-1.5-2.3 2.9z" data-original-title="el salvador" data-placement="top" data-toggle="tooltip"/>
  <path d="m217.7 292.1 2.2.4.1 4.5-2.5 7.3-7-.7-1.5-3.5 2-4.2 4-3.6 2.7-.2z" data-original-title="nicaragua" data-placement="top" data-toggle="tooltip"/>
  <path d="m217.4 305 1.4 2.7 1.1 1.5-1.5 4.5-3-2-4.7-4.4v-2.8l6.7.5z" data-original-title="costa rica" data-placement="top" data-toggle="tooltip"/>
  <path d="m220.6 309.6-1.5 4.6 4.9 1.2 3 .6.4-3.5 3.3-1.6 2.8 1.4 1.1 1.8 1.4-.1 1-3.3-3.5-1.5-2.7-1.4-2.7 1.8-3.2 1.6-3.3-1.3-1-.3z" data-original-title="panama" data-placement="top" data-toggle="tooltip"/>
  <path d="m253.7 299.8-2-.2-13.7 11.2-1.4 4-1.9.2.9 8.7-4.8 11.6 5.2 4.4 6.6.4 4.5 6.7 6.6.2-.2 5h2.5l2.7-9.2-2.5-3 .6-5.9 5.2-.4-.6-13.5-11.6-3.8-2.7-7.3 6.6-9.1z" data-original-title="colombia" data-placement="top" data-toggle="tooltip"/>
  <path d="m250.5 306 .4 2.5 3.3 1 .7-4.7 3.4-3.6 3.4 4 8 2.2 6.6-1.4 4.6 5.6 3.4 2.1-3.8 5.8 1.3 4.3-2.1 2.7-2.3 1.8-4.8-2.4-1.1 1.1v3.5l3.5 1.7-2.6 2.8-2.6 2.8-3.4-.3-3.5-3.8-.7-14.2-11.8-4-2.1-6.3 2.2-3.3z" data-original-title="venezuela" data-placement="top" data-toggle="tooltip"/>
  <path d="m285 314.1 7.3 6.6-2.9 3.3-.2 2 3.7 3.9v3.7l-6.6 2.5-4-5.3.9-6.4-1.7-4.7 3.6-5.6z" data-original-title="guyana" data-placement="top" data-toggle="tooltip"/>
  <path d="m293.1 321.1 2 2 3.2-2h3l-.5 1.2-1.2 2.5-.2 6.2-5.7 2.4.3-4-3.7-3.5.2-1.8 2.6-3z" data-original-title="suriname" data-placement="top" data-toggle="tooltip"/>
  <path d="m302.1 321.8 5.9 3.6-3 6.1-1.2 1.4-3.2-1.8v-6.6l1.5-2.7z" data-original-title="guyane" data-placement="top" data-toggle="tooltip"/>
  <path d="m230.2 335.9-4.7 2.9-.4 4.4-1 1.4 3 2.8-1.2 1.5.3 3.6 5.3 1.2 8-9.5v-3.4l-3.8-.2-5.5-4.8z" data-original-title="ecuador" data-placement="top" data-toggle="tooltip"/>
  <path d="m225 349.5-2 2 .2 3.1 17 30.9 17.6 11.3 2.7-4.5.6-10-1.4-6.3-4.8-8-2.8.8-1.3 1.4-5.7-6.5 1.4-7.7 6.6-4.3-.5-4-6.7-.3-3.5-5.8-2-.7.2 3.6-8.7 10.2-6.5-1.5-.4-3.7z" data-original-title="peru" data-placement="top" data-toggle="tooltip"/>
  <path d="m258.7 372.8 8.2-3.6 2.8.3 1.8 7.5 12.5 4.2 2 6.4 5.3.6 2.2 5.5-1.6 5-8.4.6-3.1 8-6.6-.2-2-.4-3.9 3.7-1.9-.1-6.4-15 1.7-2.7.7-10.6-1.6-6.3-1.7-3z" data-original-title="bolivia" data-placement="top" data-toggle="tooltip"/>
  <path d="m291.8 399.5 2.2 2.4-.3 5 6.3-.3 4.8 6.1-.4 5.5-3 4.7-6.4.3-.3-2.7 1.9-4.3-6.3-3.9h-5.1l-4-4.1 3-8.1 7.6-.6z" data-original-title="paraguay" data-placement="top" data-toggle="tooltip"/>
  <path d="m300.4 432-2 2.1.8 11.8 6.4 1.9 8.2-8.2-13.4-7.7z" data-original-title="uruguay" data-placement="top" data-toggle="tooltip"/>
  <path d="m305.5 418.2 2 1.8-7.5 11-2.5 2.8.9 12.5 5.6 7-4.7 8.3-3.7 1.6h-4.1l1.2 6.5-6.5 2.2 1.5 5.5-3.8 12.3 4.8 4-2.6 6.3-4.4 7 2.3 4.8-5.7.9-4.7-5.8-.7-17.8-7.3-30.3 2.2-10.6-4.6-13.6 3-17.6 2.9-3.4-.7-2.5 3.7-3.4 8.1.6 4.6 4.9h5.3l5.4 3.4-1.6 3.7.3 3.7 7.7-.3 3.6-5.5z" data-original-title="argentina" data-placement="top" data-toggle="tooltip"/>
  <path d="m285 514.1-4.2 9.4 7.3.8.2-6.3-3.3-3.9z" data-original-title="tierra del fuego chile" data-placement="top" data-toggle="tooltip"/>
  <path d="m289 518.8.2 5.7 4.4-.4 3.7-2.5-6.3-1.3-2-1.5z" data-original-title="tierra del fuego argentina" data-placement="top" data-toggle="tooltip"/>
  <path d="m283.6 512.6-3.2 3.6-.4 4.1-6.2-3.5-6.6-9.5-2-3.4 2.8-3.5-.3-4.4-3.1-1.3-2.5-1.8.6-2.5 3.2-1 .6-14.3-5-2.8-3.3-74.6.9-1.5 6.4 14.8h2l.7 2.5-2.7 3.3-3.2 17.8 4.5 13.8-2 10.4 7.3 30.7.7 17.9 5.3 6 5.5-.8z" data-original-title="chile" data-placement="top" data-toggle="tooltip"/>
  <path d="m262.3 475.1-1.3 2 .6 3.4 1.3.1.7-4.3-1.3-1.2z" data-original-title="chiloe" data-placement="top" data-toggle="tooltip"/>
  <path d="m314.2 438.9 6.3-12 .2-10.2 11.7-7.5h6.5l5.1-8.7 1-16.7-2.1-4.4 12.3-11.3.5-12.4-16.8-8.3-20.3-6.3-9.5-1 2.5-5.3-.7-8.3-2-.7-3.1 6.2-1.7 2-4.1-1.8-14 4.9-4.7-5.9.8-6.1-4.4 4.5-4.9-2.6-.5.7v2l4.2 2.3-6.3 6.7h-4l-4-4.2-4.5.2-.6 4.8 2.6 3.2-3 9.9-3.6.3-5.8 3.6-1.4 7 5 5.4 1-1 3.4-1 3 5 8.5-3.6 3.3.2 2.3 8 12.2 4 2 6.4 5.3.6 2.4 6.1-1.6 5.5 2.1 2.9-.3 4.2 5.9-.5 5.3 6.7-.4 4.8 3.2 2.7-7.6 11.5 13.3 7.5z" data-original-title="brazil" data-placement="top" data-toggle="tooltip"/>
  <path d="M204.6 282.4v3.6h.7l3-5.3h-2l-1.7 1.7z" data-original-title="belize" data-placement="top" data-toggle="tooltip"/>
  <path d="m818 73 1.7 6 3.5 1 3.6-5.5-2-3.8.7-3.3h5.3l-1.3 2.5.5 9.1-7.5 18.8.7 4-.2 6.8 14 20.6 2.8.7.3-16.7 2.7-2.5-3-6.6 2.5-2.8-5.5-7.3-3 .2-1-12.1 7.8-2 .5-3.6 4-1 2.2 2 2.8-11.1 4.8-8.1 3.7-2 3.3.2v-3.8l-5.3-1-7.3-6.1 3.6-4-3-6.9 2.5-2.5 3 4 7.5 2.8 8.3.8 1-3.6L868 32l4.8-6.6-10.8-3.8-2.8 5.6-3.5-4.5-19.8-6.9-18.9 3.3-2.7 1.5V22l4 2-.5 4.9-7.3-3-16 6.3-2.9-5.8h-11l-5 5.3-17.9-4-16.3 3.2-2 5 2.5.8-.3 3.8-15.8 1.8 1 5-14.6-2.5 3.6-6.5-14.9-.8 1.3 6.8-4.8 2.3-4-3.8-16.3 2.8-6.3 5.8-.3 3.6-4 .2-.5-4L678.7 40v-7.6l-8.3-2.3-10.8 3.6-4.5-4.6h-2l-2.5 5 2 2.4-14.3 7.8-12.3 9.4-7.6 10.4v4.3l8 3.3-4 3-8.5-3-3.5 3-5.3-6-1 2.2 5.8 18.2 1.5.5 4-2 2 1.5v3.3l-3.7-1.5-2.3 1.8 1.5 3.3-1.3 8.6-7.7.7-.5-2.8 4.5-2.8 1-7.6-5-6.5-1.8-11.4-8-1.3-.8 4 1.5 2-3.3 2.9 1.3 7.6 4.8 2 1 5.6-4.8-3-12.3-2.3-1.5 4-9.8 3.5-1.5-2.5-12.8 7.1-.3 4.8-5 .8 1.5-3.6v-3.5l-5-1.8-3.3 1.3 2.7 5.3 2 3.6v2.7l-3.7-.7-.8-.8-3.7 4 2 3.6-8.6-.2 2.8 3.5-.8 1.5h-4.5l-3.2-2.2-.8-6.4-5.3-2v-2.5l11 2.2 6.1.6 2.5-3.8-2.2-4-16.1-6.4-5.6 1.4-1.9 1.6.6 3.7 2.4.4-.6 6 7.3 17-5.2 8.4-.4 1.9 2.7 1.8-2.4 1.6h-1.6l.3 7.4 2.2 3.1v3l2.8.3 4.4 1.7 4.5 6.3v1.7l-1.4 2.5 3.4-.2 3.3 1 4.5 6.3 11.1 1-.5 7.6-3.8 3.3.8 1.3-3.8 4-1 3.8 2.3 3.3 7.3 2.6 3-1.8 19.4 7.3.7-2-4-3.8v-4.8l-2.5-.8.5-4 4-4.8-7.2-5.4.5-7.5 7.7-5.1 9 .5 1.6 2.8 9.3.5 6.8-3.8-3.6-3.8.8-7 17.6-8.7 13.5 6.1 4.5-4 13.3 12.6 10-1 3.6 3.5 9.6 1 6.2-8.6 8 3.6 4.4.7 4.2-3.8-3.7-2.5 3.2-5 9.3 3 2 4 4 .3 2.6-1.8 6.7-.2.8 1.7 7.8.6 5.3-5.6 10.8 1.3 3.2-1.3 1-6-3.2-7.4 3.2-2.8h10.3l9.8 11.6 12.6 7.1h3.8l.5-3 4.5-2.8.5 16.4-4 .3v4l2.2 2.8-.4 3.7 1.7.6 1-2.5 1.5.5 1 1 4.5-1 4.5-13.1.5-16.5-5.7-13.2-7.3-8.8-3.5.5v2.8l-8.6-3.3 3.3-7.1 2.7-18.8 11.6-3.5 5.5-3.5h6l-1.4 2 1.5 2.5 5.3-5.5 3 .2-.5-3.3-4.8-1 3.3-11.9 4.3-4z" data-original-title="russia" data-placement="top" data-toggle="tooltip"/>
  <path d="m670.4 170-3.5 8.8-4.7-.3-5 11 4.2 5.5-8.8 12.1-4.5-.7-3 3.8.7 2.2 3.5.3 1.8 4 3.5.8 10.8 14v7l5.3 3.3 5.8-1 7.3 4.3 8.8 2.5 4.2-.5 4.8-.5 10-6.6 3.3.5 1.3 3 2.8.8 3.7 5.6-2.5 5.6 1.5 3.8 4.3 1.5.8 4.6 5 .5.7-2.3 7.3-3.8 4.5.2 5.3 5.9 3.5-1.6 2.3.3 1 2.8 1.8.2 2.5-3.5 10-3.8 9-10.9 3.1-10.4-.2-6.8-3.8-.8 2.2-2.5-.5-4-9.5-9.7v-4.8l2.8-3.5 2.7-1.3.3-2.8h-7l-1.3 3.8-3.3-.7-4-4.3 2.5-6.6 3.5-3.8 3.3.2-.5 5.8 1.7 1.6 4.3-4.3 1.5-.3-.5-3.3 4-4.8 3 .3 1.8-5.6 2-1.1.3-3.5-2-2-.2-5.5 3.9-.3-.3-14.1-2.7 1.6-1 3.6h-4.5l-13-7.3-9.5-11.4-9.6-.1-2.4 2 3 7.2-1 6.7-3.9 1.6-2.1-.2-.2 6.6 2.3.5 4-1.8 5.3 2.5v2.6l-3.8.2-3 6.6-2.8.3-9.8 12.9-10.3 4.5-7 .5-4.8-3.3-6.8 3.6-7.3-2.3-1.7-4.8-12.4-.8-6.5-10.6h-2.7l-2.3-5-2.6-.1z" data-original-title="china" data-placement="top" data-toggle="tooltip"/>
  <path d="m673.8 170.2 5.8-7.8 7 3.3 4.8 1.2 5.8-5.3-4-2.9 2.6-3.7 7.8 2.8 2.7 4.4 4.8.1 2.6-1.9 5.2-.2 1.2 2 8.6.4 5.5-5.6 7.7.8-.5 7.6 3.3.8 4.1-1.9 4.4 2.2-.1 1-3.2.1-3.2 6.9-2.6.2-9.9 13-10 4.4-6.4.5-5.2-3.4-6.7 3.6-6.6-2-1.9-4.9-12.5-.8-6.4-10.9-3-.2-1.7-3.8z" data-original-title="mongolia" data-placement="top" data-toggle="tooltip"/>
  <path d="m778.3 194.3 1.8.7.6 6.5 3.6.2 3.5-4-1.2-1.1.1-4.3 3.2-3.8-1.6-3 1-1.1.6-3-1.8-.9-1.6.8-2 5.9-3-.3-3.7 4.3.5 3z" data-original-title="north korea" data-placement="top" data-toggle="tooltip"/>
  <path d="m788.3 198.2 6.2 5 1 5-.1 2.5-3 3.4-2.7.2-3-6.4-1-3 1.2-1-.3-1.2-1.5-.7 3.2-3.8z" data-original-title="south korea" data-placement="top" data-toggle="tooltip"/>
  <path d="m576.7 188.6 4-1.7 4.7-.2.3 7H583l-2 3.4 2.6 4.4 4 2.2.4 2.6 1.4-.5 1.3-1.6 2.3.5 1 2.2h2.9v-2.8l-1.7-5.1-.8-4.2 5-2.2 6.8 1.1 4.3 4.3 9.6-1 5.4 7.7 6.3.3 1.7-2.9 2.2-.4.4-3.2 3.3-.2 1.7 2.1 1.7-4.1 15 2 2.6-3.3-4.3-5.3 5.7-12.4 4.6.4 3.1-7.7-6.3-.6-3.6-3.5-10 1.2-13-12.5-4.4 4-13.8-6.2-17 8.3-.4 5.8 4 4.6-7.7 4.4-10-.2-2.1-3-7.8-.5-7.5 4.7-.1 6.6 6.9 5.5z" data-original-title="kazakhstan" data-placement="top" data-toggle="tooltip"/>
  <path d="m593.9 207.6-.7 2.6h-4.1v3.6l4.4 3-1.3 4v1.8l1.8.3 2.5-3.2 5.5-1.3L614 223l.1 3.3 6.6.6 7.4-7.8-1-2.4-4.8-1.1-13.9-9-.6-3.3h-5.2l-2.3 4.4h-6.4z" data-original-title="turkmenistan" data-placement="top" data-toggle="tooltip"/>
  <path d="m629 219 3 .2V214l-3-1.8 5-6.1h2l2 2.3 5.2-2-7.2-2.5-.3-1.5-1.7.4-1.7 3-7.3-.3-5.3-7.6-9.4 1-4.5-4.5-6.2-1-4.5 1.8 2.6 8.7v3h2l2.3-4.5h6.2l.9 3.5 13.3 8.8 5.1 1.2 1.4 3.2z" data-original-title="uzbekistan" data-placement="top" data-toggle="tooltip"/>
  <path d="m630.2 211.8 4.1-5h1.6l.5 1-2 1.5v1.1l1.3.9 6 .4 2-.9.9.2.6 2 3.6.3 1.8 3.8-.6 1.1h-.7l-.7-1.4-1.6-.1-2.6.4-.2 2.5-2.7-.2.1-3.2-2-1.9-3 2.5.2 1.6-2.7.9h-1.5l.1-5.6-2.5-1.9z" data-original-title="tajikistan" data-placement="top" data-toggle="tooltip"/>
  <path d="m636.8 199.2-.3 2.5.3 1.6 8.7 3-7.7 3-.9-.7-1.6 1v.6l1 .4 5.3.2 2.7-.9 3.5-4.4 4.4.8 5.3-7.3-14.1-2-2 4.8-2.4-2.6h-2.2z" data-original-title="kirgizstan" data-placement="top" data-toggle="tooltip"/>
  <path d="m614.1 227 1.6 12.5 4 .9.3 2.2-2.8 2.4 5.3 4.3 10.3-3.7.8-4.4 6.5-4 2.4-9.4 1.9-2-2-3.3 6.3-4-.8-1-2.9.1-.2 2.7h-3.9v-3.6l-1.3-1.5-2.1 2v1.7l-3.1 1.2-5.9-.4-7.6 8-6.8-.6z" data-original-title="afghanistan" data-placement="top" data-toggle="tooltip"/>
  <path d="m623.1 249.8 2.6 3.9-.2 2-3.5 1.4-.2 3.2h4l1.3-1.1h7.5l6.8 6 .9-3h5l.2-3.5-5.2-5 1.1-2.7 5.3-.4 7.2-15-4-3-1.4-5.3 9.6-.9-5.7-8-3-.9-1.3 1.5h-.9l-5.7 3.7 1.9 3.1-2.1 2.3-2.6 9.5-6.5 4.2-.8 4.4-10.3 3.6z" data-original-title="pakistan" data-placement="top" data-toggle="tooltip"/>
  <path d="m671 313 4.6-2.2 2.7-9.9-.1-12 15.5-16.9v-4l3.3-1.2-.2-4.6-3.4-6.7 2-3.7 4.3 4 5.5.3v2.2l-1.7 1.9.4 1 3 .1.6 3.4h.8l2.3-4 1-10.5 3.8-2.6.1-3.6-1.5-2.9-2.3-.1-9.2 6 .6 4h-6.5l-2.3-2.8-1.2.1.4 4-14-1-8.6-4-.5-4.7-5.8-3.6v-7.3l-4-4.6-9 .9.9 4 4.5 3.6-7.7 15.8-5.2.3-.9 2 5.1 4.6-.2 4.8h-5.2l-.6 2.3 4.3-.2.1 1.9-3 1.6 2 3.7 3.8 1.3 2.3-1.8 1.1-3 1.4-.7 1.6 1.6-.5 4-1.1 1.9.3 3.2L671 313z" data-original-title="india" data-placement="top" data-toggle="tooltip"/>
  <path d="m671.2 242.6.5 4.2 8 3.7 13 1-.5-3.2-8.7-2.4-7.3-4.3-5 1z" data-original-title="nepal" data-placement="top" data-toggle="tooltip"/>
  <path d="m695.4 248 1.6 2.2h5.2l-.5-2.9-6.3.8z" data-original-title="bhutan" data-placement="top" data-toggle="tooltip"/>
  <path d="m695.6 253.1-1.3 2.4 3.4 6.4v5l.7 1.4 4 .1 2.2-2.2 1.7 1 .3 3 1.3-.7v-4h-1l-.7-3.4-2.8-.1-.7-1.9 1.7-2.2v-1.1h-4.9l-4-3.7z" data-original-title="bangladesh" data-placement="top" data-toggle="tooltip"/>
  <path d="m729.4 303.6-2.7-4.4 2-2.8-2-3.5-1.7-.3-.3-5.9-2.7-5.2-.8 1.2-1.8 3-2.2.4-1.2-1.4-.5-4-1.7-3.2-6.8-6.4 1.6-1.1.4-4.7 2.5-4.2 1-10.4 3.7-2.5v-3.8l2.2.7 3.5 5-2.6 5.4 1.7 4.3 4.3 1.6.7 4.7 5.7.9-1.6 2.7-7.1 2.8-.8 4.6 5.3 6.8.2 3.6-1.2 1.2v1.1l4 5.8v6l-1 2z" data-original-title="burma" data-placement="top" data-toggle="tooltip"/>
  <path d="m730 270.5 3.3 4.1v5.1l1 .6 5.2-2.5 1 .3 6.2 7.1-.2 4.9-2-.4-1.8-1h-1.4l-2.3 4 .4 2.1 2 1-.2 2.4-1.3.7-4.6-3.2v-2.8l-1.9-.1-.8 1.2-.4 12.6 3 5.5 5.2 5-.2 1.5-2.8-.1-2.5-3.8h-2.7l-3.4-2.8-1-2.8 1.4-2.3.5-2.2 1.6-2.8v-6.4l-3.9-5.6-.2-.7 1.3-1.2-.3-4.5-5.1-6.5.6-3.7 6.3-2.7z" data-original-title="thailand" data-placement="top" data-toggle="tooltip"/>
  <path d="m732.7 315.4 2 4.6.5 5.8 2.7 4.2 6.5 4 2.4.2-.4-4.1-2.2-5.2-3-6.6-.3 1.2-3.8-.2-2.7-3.9h-1.7z" data-original-title="malaysia" data-placement="top" data-toggle="tooltip"/>
  <path d="m740.5 299.5 4 4.3 7.7-5.6.7-8.9-4 2.7-2-1.1-2.8-.4-1.5-1h-.8l-2 3.3.3 1.5 2 1.2-.2 3.1-1.4.9z" data-original-title="cambodia" data-placement="top" data-toggle="tooltip"/>
  <path d="m735.5 263-2.4 1.2-2 5.8 3.3 4.3-.6 4.7.6.3 5.6-2.7 7.5 8.3-.2 5.3 1.6.9 4-3.3-.3-2.6-11.6-11 .1-1.7 1.5-1-1-2.8-4.8-.8-1.3-5z" data-original-title="laos" data-placement="top" data-toggle="tooltip"/>
  <path d="m745 304.4 1.2 2 .3 2 3.1.4 3.8-5 3.6-1 1.9-5.3-1-8.3-3.6-5-3.9-3.2-5-8.5 3.6-6-5-5.8-4.1-.1-3.7 2 1 4.6 5 1 1.3 3.5-1.7 1.2v.9l11.5 11.2.5 3.2-.7 10.5-8 5.8z" data-original-title="vietnam" data-placement="top" data-toggle="tooltip"/>
  <path d="m555.5 204.2 3.2 4.2 4.1 2 2.5-.1 4.3-1.2 1.1-1.7-12.7-4.7-2.5 1.5z" data-original-title="georgia" data-placement="top" data-toggle="tooltip"/>
  <path d="m569.7 209.9 4.8 6.2-1.4 1.7-3.4-.6-4.2-3.8.2-2.5 4-1z" data-original-title="armenia" data-placement="top" data-toggle="tooltip"/>
  <path d="m571.4 207.7-1 1.7 4.7 6.2 1.6-.5 2.7 2.8 1.2-5 3 .5-.2-1.4-4.8-4.2-1 2.5-6.2-2.6z" data-original-title="azerbaijan" data-placement="top" data-toggle="tooltip"/>
  <path d="m569.6 218-1.2 1.2.1 2 1.6 2.2 5.4 5.9-.9 2.3h-.9l-.5 2.4 3 3.9 2.9.2 5.6 7.8 3.2.3 2.4 1.7.2 3.6 9.7 5.6h3.6l2.2-1.9h2.9l1.6 3.7 10.5 1.5.3-3.9 3.5-1.3.2-1.3-2.8-3.8-6.2-5 3.3-3-.3-1.2-4-.7-1.8-13.7-.2-3.1-11-4.2-4.8 1-2.8 3.4-2.4-.1-.7.6-5.4-.4-6.8-5-2.5-2.7-1.2.3-2 2.3-3.8-.7z" data-original-title="iran" data-placement="top" data-toggle="tooltip"/>
  <path d="m558.7 209.2-2.2 2.4-8.2-.3-5-3h-4.7L533 212l-5.1.3-.5 3h-5.8l-2.4 2v1.2l1.4 1.2v1.3l-.6 1.6.6 1.3 1.9-1 1.9 2-.5 1.5-.7.9 1 1.2 5.2 1 3.6-1.5v-2.2l1.8.3 4.2 2.5 4.6-.7 2-2 1.3.6v2h1.7l1.6-2.9 13.3-1.4 5.8-.7-1.5-2v-2.7l1.2-1.4-4.3-3.5.2-3h-2.3l-3.9-1.8z" data-original-title="turkey" data-placement="top" data-toggle="tooltip"/>
  <path d="m572 289.2 1.4 4.3v4.2l3.5 3.1 24.4-9.9.2-2.7-4-7-9.7 3-5.6 5.6-6.6-3.8-3.6 3.2z" data-original-title="yemen" data-placement="top" data-toggle="tooltip"/>
  <path d="m598.4 280.8 7.4-4.2 1.3-6.3-1.6-.9.6-6.7 1.4-.8 1.5 2.4 9 4.6v2.7l-10.9 16-5 .2-3.7-7z" data-original-title="oman" data-placement="top" data-toggle="tooltip"/>
  <path d="m594 265 .9 3.4 9.8.9.7-7.1 2-1 .5-2.7-3.2.9-3.4 5.2-7.3.3z" data-original-title="emirates" data-placement="top" data-toggle="tooltip"/>
  <path d="m592.6 259-.5 4 1.5 1.2 1.4-.1.6-5-1.2-1-1.8 1z" data-original-title="qatar" data-placement="top" data-toggle="tooltip"/>
  <path d="m583.3 247.2-2.3-1.3-1.5 1.6.2 3.2 3.6 1.3v-4.8z" data-original-title="kuwait" data-placement="top" data-toggle="tooltip"/>
  <path d="m584 253.2 7 9.8 2.3 1.8 1 4.4 10.8.8 1.2.7-1.2 5.4-7.1 4.2-10.4 3.1-5.5 5.4-6.6-3.8-4 3.4-5.5-9-3.8-1.7-1.4-2.1V271L547 254.3l-.5-3h4l4.8-4.1.2-2.1-1.4-1.4 2.8-2.3 5.8.4 10 8.4 6-.3.4 1.4 4.9 2z" data-original-title="saudi" data-placement="top" data-toggle="tooltip"/>
  <path d="m546.7 229.1-.4 2.6 2.8 1.1v7h2.7l2.9-2.1 1-.2 6.4-5 1.3-7.5-12.8 1.3-1.3 3-2.6-.2z" data-original-title="syria" data-placement="top" data-toggle="tooltip"/>
  <path d="m564.3 225-1.6 7.7-6.4 5.4.4 2.6 6.3.4 10 8.2 5.7-.2.1-1.9 2-2.2 3 1.6.3-.3-5.5-7.4-2.7-.2-3.5-4.5.7-3.3 1.1-.2.4-1.4-4.8-5-5.5.7z" data-original-title="iraq" data-placement="top" data-toggle="tooltip"/>
  <path d="m548.9 240.8-2.5 8.6v1.3h3.8l4.3-3.8.1-1.5-1.7-1.8 3.1-2.6-.4-2.5-.9.2-2.6 2h-3.2z" data-original-title="jordan" data-placement="top" data-toggle="tooltip"/>
  <path d="M546.2 232.4v2l-.8 3 2.9.2.1-4.2-2.2-1z" data-original-title="lebanon" data-placement="top" data-toggle="tooltip"/>
  <path d="m545.3 238-1.6 5 2 6.1 2.4-8.8v-1.9l-2.8-.3z" data-original-title="israel" data-placement="top" data-toggle="tooltip"/>
  <path d="m543.2 229.8 1.2 1-3.8 3.5h-1.8l-1.3-1 .1-1.7 2.8-.2 2.8-1.6z" data-original-title="cyprus" data-placement="top" data-toggle="tooltip"/>
  <path d="m515.5 102.1 2-1.4-.2-1.7-1.3-.7.2-2h1.1V95l-4.8-1.3-7.1.8-.7 3.1-1.7-.5-1.1-1.9-3.5.2-.4 3.5-1.6.7-1-1.8-7.3 5.9 1.5 1.7-2.7 1.2-6.3 12.4-2.2 1.5.2 1.1 2.2 1.1-.6 2.4-3.6-.2-1.1-1.2-2.4 2.7-1.5 1.1-.4 2.6-1.2.8-3.3.7-1.7 5.2 1.1 8.5 1.3 3.9 1.5 1.4 3.3-.1 4.7-4.7 1.9-3.1.5 4.6 3.1-5.5.2-15.5 2.6-1.6.7-8.6 7.7-11.1 3.7-1.3 1.6-2 5.5 1.3 2.8 1.6 1-4.6 4.5-2.8 2.8 4.8z" data-original-title="norway" data-placement="top" data-toggle="tooltip"/>
  <path d="m446.1 149-1.8 2.9.7 1h4.2v2l-1 1.4.7 3.9 2.4 4.6 1.8 4.2 3 1.2 1.2 2.2-.2 2-1.8 1.1-.2 1 1.3.7-1.1 1.5-2.6 1-5-.5-7.6 3.5-2.6-1.3 7.3-4.2-.9-.6-3.9-.3 2.4-3.5.4-3 3.1-.4-.5-5.7-3.7-.2-1.1-1.3.2-4.2-2.2.2 2.2-7.4 4-3 1.3 1.3z" data-original-title="britain" data-placement="top" data-toggle="tooltip"/>
  <path d="m438.4 161.5-3.3.3-.2 3 2.2 1.5 2.4-.6 1-1.6-2-2.6z" data-original-title="ulster" data-placement="top" data-toggle="tooltip"/>
  <path d="m439.5 166.6-.9 6-8 3H428l-1.9-1.4v-1l4-2.7-1-2.2.1-3.1 3.5.1 1.6-3.7-.2 3.3 2.7 2.2 2.7-.5z" data-original-title="ireland" data-placement="top" data-toggle="tooltip"/>
  <path d="m497.7 104.6 2 1.8h3.7l2 3.9.5 6.6-5 3.5v3.5l-3.4 4.9-2 .1-2.8 4.7.2 4.4 4.8 3.5-.4 2-1.8 2.8-2.8 2.4.2 8-4.2 1.4-1.5 3.2h-2l-1.1-5.6-4.6-7 3.8-6.3.2-15.6 2.6-1.4.6-9 7.5-10.6 3.5-1.2z" data-original-title="sweden" data-placement="top" data-toggle="tooltip"/>
  <path d="m506.8 117 2 .8 1.3 2.4-1.2 1.7-6.5 7-1 3.7 1.4 5.4 5 3.7 6.6-3.1 5.3-.8 5-8-3.7-8.6-3.5-8.3.5-5.4-2.2-.4-.5-3.9-3-4.8-3.3 2.3-1.3 5.2-3.5-2-4.8-1.2-1 1.2 1.8 1.7h3.4l2.7 4.3.5 7z" data-original-title="finland" data-placement="top" data-toggle="tooltip"/>
  <path d="m518 151.4-6.8-1.1.2 3.8 6.3 3.9 2.6-.8-.1-3-2.1-2.8z" data-original-title="path302" data-placement="top" data-toggle="tooltip"/>
  <path d="M506.8 147.6h-1.6l-.9.9.7 1h1.5l.8-1.1-.5-.8z" data-original-title="hiumaa" data-placement="top" data-toggle="tooltip"/>
  <path d="m506.6 151.7-1.5-.1-2.7 3.2v1.5l1 .4h1.7l2.9-2.4.4-.8-1.8-1.8z" data-original-title="saaremaa" data-placement="top" data-toggle="tooltip"/>
  <path d="M510.8 154.7h-2.1l-3 2.8h-2.5l.2 3.5-1.5 2.8h5.4l1.5-.2 1.6 1.9 3.5-.2 3.4-4.3-.2-2.6-6.3-3.7z" data-original-title="lithuania" data-placement="top" data-toggle="tooltip"/>
  <path d="m510.7 166.3 1.5 2.5-.6 2v1.5l.6 1.9 3.1-1.8 3.9.1 2.7 1.1h6.8l2-4.8 1.2-1.8v-1.2l-4.3-6-3.8-1.6-3-.3-2.8.9.1 2.7-3.7 4.7h-3.7z" data-original-title="belarus" data-placement="top" data-toggle="tooltip"/>
  <path d="m511.5 174.8.8 1.5.2 1.7-.7 1.6-1.6 3-1.3.7-1.8-.8h-1l-2.6 1-2.9-.8-4.7-3.4-4.6-2.4-1.8-2.8-.4-6.7 3.6-3.1 4.7-1.6 1.8-.2-.7 1.4.4.6 8 .1h1.6l2.8 4.3-.7 1.7.3 2 .6 2.2z" data-original-title="poland" data-placement="top" data-toggle="tooltip"/>
  <path d="M448.4 205h-12.8l-2.6-1.2-1.2.1-1.5 3.2.5 3.2 5 .4.5 2-2 12v2.2l3.4 1.8 4 .3 8-2 3.9-4.9v-5l7-6.2.3-2.8h-6.3l-6.2-3.1z" data-original-title="spain" data-placement="top" data-toggle="tooltip"/>
  <path d="m431 211.2-.7 8.7-1.8 1.6.2 1 1.3 2-.8 2.5 1.3.5 3-.4v-2.5l2-11.6-.5-1.6-4-.2z" data-original-title="portugal" data-placement="top" data-toggle="tooltip"/>
  <path d="m461.1 217.2-1.6.6.4 1.4h2.3l1-1-2.1-1z" data-original-title="majorca" data-placement="top" data-toggle="tooltip"/>
  <path d="m477.6 213.4-2.7 1.3.4 5.2 2 .3 1.7-1.5v-4.9l-1.4-.4z" data-original-title="sardinia" data-placement="top" data-toggle="tooltip"/>
  <path d="m477.8 207-2 2-.1 1.7 1.6 1 .6-.1.4-2.6-.5-2z" data-original-title="corsica" data-placement="top" data-toggle="tooltip"/>
  <path d="m460.4 178.7-2.2.5-4.4 4.8-1.4.1-1.7-1.2-1.2.3-.9 2.7-6.4.2.2 1.4 4.4 3 5.1 4v5l-2.8 4.8 6 2.8 6 .2 1.8-2.1h3.8l1 1 3.9-.2 1.9-2.5-2.5-3-.2-1.8.6-2-1.3-1.9-2 .6-.4-1.6 4.7-5.1v-3.1l-3-1.8-1.7-.3-7.3-4.8z" data-original-title="france" data-placement="top" data-toggle="tooltip"/>
  <path d="m470 168.3-4.4 2.2 1 .9v2.2l-1-.2-1-1.6-2.5 4 3.9.8 1.4 1.5h.8l.5-3.4 2.4-1-1-5.4z" data-original-title="netherlands" data-placement="top" data-toggle="tooltip"/>
  <path d="m461.6 176.5-.6 1.6 6.9 4.6 2 .4V181l-1.7-2h-1l-1.5-1.6-4-.9z" data-original-title="belgium" data-placement="top" data-toggle="tooltip"/>
  <path d="m471.1 167.9 3.6-.6v-2.5l3-.5 1.6 1.6 1.8.2 2.7-1.1 2.4.6 2.1 1.9.3 6.9 2.1 2.8-2.8.4-4.6 2.9.4 1 4.1 3.8-.3 2-3.8 2H480l-.9 1.9h-1.8l-.9-2-3.1-.8-.1-3.2-2.7-1.8.2-2.3-1.8-2.6.5-3.3 2.5-1.1-.9-6.2z" data-original-title="germany" data-placement="top" data-toggle="tooltip"/>
  <path d="m476.8 151.5-4.2 4.6-.1 3 1.9 5 3-.6-.4-4 2-2.4v-1.7l-1.5-3.8-.7-.1z" data-original-title="denmark" data-placement="top" data-toggle="tooltip"/>
  <path d="M481.4 159.6h-.9l-1.2 1.1.1 1.8h3v-2l-1-.9z" data-original-title="sjlland" data-placement="top" data-toggle="tooltip"/>
  <path d="m498.5 150.2-2.1 1.6 1 2.5 2-1.8-1-2.3z" data-original-title="gotland" data-placement="top" data-toggle="tooltip"/>
  <path d="m473 189.4-4.4 4.6v.5l1.8-.6 1.6 2.3 2.8-1 1.8 1.5.8-.5 2.3-3.6-.6-.6H477l-1.2-2.3-2.8-.3z" data-original-title="switzerland" data-placement="top" data-toggle="tooltip"/>
  <path d="M488.4 184.9h4.5l2.3 1.7 4.4-3.7-4.2-3-4.3-2-2.9.5-3.9 2.5 4.1 4z" data-original-title="czech" data-placement="top" data-toggle="tooltip"/>
  <path d="m495.8 187.1.7.6.1 1h7.6l5.7-2.5-.1-2.5-1 .5-1.6-.8h-1l-2.5 1-3.4-.9-4.5 3.6z" data-original-title="slovakia" data-placement="top" data-toggle="tooltip"/>
  <path d="m480.6 190.1-.6 1.4.5 1 2.4-.5h2l2.1 1.8 4.6-.9 3.3-2 .9-1.3-.1-1.7-3-2.3h-4.1l-.3 2.3-4.3 2.1-3.4.1z" data-original-title="austria" data-placement="top" data-toggle="tooltip"/>
  <path d="m496.7 189.6-1.1 1.8v2.8l2 1 5.6.1 8-6.7v-1.4l-.9-.5-5.7 2.6-7.9.3z" data-original-title="hungary" data-placement="top" data-toggle="tooltip"/>
  <path d="m494.8 192-2.5 1.5-4.8 1 1 2.8h3.3l3-2.5V192z" data-original-title="slovenia" data-placement="top" data-toggle="tooltip"/>
  <path d="m495.6 195.2-3.5 2.9h-3.6l-.4 2.5 1.6.4.8-1.2 1.3 1.1 1 3.6 7.1 3.3.7-.8-7.1-7.4.7-1.3 6.8-.3.7-2.1h-4.4l-1.7-.7z" data-original-title="croatia" data-placement="top" data-toggle="tooltip"/>
  <path d="m494.8 199-.4.5 6.7 7 2.5-3.7v-1.4l-2.2-2.6-6.6.1z" data-original-title="bosnia" data-placement="top" data-toggle="tooltip"/>
  <path d="m472.3 197-.7 1.5.2 1.8 2.4 2.7h3.8l8.3 9.6 5.1 1.5 3.1 2.9.7 6.5 1.7-1 1.4-3.5-.3-2.6 2.4-.2.3-1.5-6.8-3.3-6.5-6.3-2.6-3.9-.6-3.6 3.3-.8-.9-2.4-2-1.7h-1.8l-2.4.6-2.3 3.2-1.4 1-2.1-1.4-2.3.9z" data-original-title="italy" data-placement="top" data-toggle="tooltip"/>
  <path d="m492.4 223-1.4-.8-5 .8.2 1.4 4.5 2.2.6.7 1.2.2V223z" data-original-title="sicily" data-placement="top" data-toggle="tooltip"/>
  <path d="m492.6 230.5-1.7.3.1 1.9 1.5.5.7-.6-.6-2.1z" data-original-title="malta" data-placement="top" data-toggle="tooltip"/>
  <path d="m515.6 173.2-3 1.6.8 3-2.7 5.7v2.5l1.3.8 8 .4 2.3-1.9 2.5.8 3.4 4.7-2.5 4.5 3 1 4-4.6 2.2.4 2.1 1.4-1.8 2.5 2.5 3.9h2.6l1.4-2.6 2.8-.6v-2.1l-5.1-.8.1-2.3h5l5.6-4.4 2.4-2 .4-6.7-10.8-1-4.4-6.3-3.1-1-3.7.1-1.7 4.2h-7.6l-2.4-1-3.6-.3z" data-original-title="ukraine" data-placement="top" data-toggle="tooltip"/>
  <path d="m520.8 187.7 3 4.8-.2 2.7h1.1l2.6-4.4-3.1-4-1.8-.7-1.6 1.6z" data-original-title="moldova" data-placement="top" data-toggle="tooltip"/>
  <path d="m512.2 187.6-.3 1.5-5.8 4.8 4.9 7.1 3 2.2h5.6l1.9-1.6 2.5-.3 1.8 1.1 3.3-3.7-.7-1.9-3.3-.8-2.2-.1v-3.2l-3-4.7-7.7-.4z" data-original-title="romania" data-placement="top" data-toggle="tooltip"/>
  <path d="M504.9 207.2v-.9l-1.4-1.8-2.1 3 .4 1.3 1.8.3 1.3-1.9z" data-original-title="montenegro" data-placement="top" data-toggle="tooltip"/>
  <path d="m505.6 194.5-2.1 1.6h-1l-.7 2.1 2.4 2.8.2 2.2-.3.5 1.6 2.3v1.2l1.2 1.2 3.9-1.2-.4-5.4-4.8-7.3z" data-original-title="serbia" data-placement="top" data-toggle="tooltip"/>
  <path d="m511.4 202.4.2 5 1.7 3.5h6.3l2.8-2 2.8-1-.7-3.2.7-1.7-1.5-.8-1.9.2-1.5 1.5h-6.4l-2.5-1.5z" data-original-title="bulgaria" data-placement="top" data-toggle="tooltip"/>
  <path d="M504 209.8v4.6l1.3 2.5 1-.1 1.6-3-1-1.4-.3-3.2-1.3-1.2-1.3 1.8z" data-original-title="albania" data-placement="top" data-toggle="tooltip"/>
  <path d="m511 208-3.4 1.1.1 2.9.8 1 4-1.9-1.6-3z" data-original-title="macedonia" data-placement="top" data-toggle="tooltip"/>
  <path d="m506.7 217.6-.1 1.3 4.6 2.4 2.2.8-1.1 1.2-2.6.3-.4 1.2 1 2 2.8 1.5 1.3.1.1-3.4 2-2.3-5.2-6.1.6-2 1.2-.1 1.9 1.4 1.2-.5.3-2.1h5.4l.2-3.1-2.2 1.6-6.6-.2-4.3 2.2-2.3 3.8z" data-original-title="greece" data-placement="top" data-toggle="tooltip"/>
  <path d="m523 209.7-.1 3.5 3-.9 1.5-1-.4-1.5-1.5-1.2-2.5 1.1z" data-original-title="thrace" data-placement="top" data-toggle="tooltip"/>
  <path d="M516.8 230.6h1.6l.7 1h2.3l1.6-.5.5.6-1 1.4-4.6.1-.9-1-.9-.6.7-1z" data-original-title="crete" data-placement="top" data-toggle="tooltip"/>
</svg>
