<?xml version="1.0" encoding="utf-8"?>
<!-- Generator: Adobe Illustrator 23.0.5, SVG Export Plug-In . SVG Version: 6.00 Build 0)  -->
<svg version="1.1" id="Warstwa_1" xmlns="http://www.w3.org/2000/svg" xmlns:xlink="http://www.w3.org/1999/xlink" x="0px" y="0px"
	 viewBox="0 0 213.1 100" enable-background="new 0 0 213.1 100" xml:space="preserve">
<g>
	<g>
		<path fill="#016B70" d="M7.4,93h4.8v0.4c0,0.9-0.1,1.7-0.3,2.3c-0.2,0.6-0.5,1.2-1,1.8c-1.1,1.2-2.5,1.8-4.1,1.8
			c-1.6,0-3-0.6-4.2-1.8c-1.2-1.2-1.7-2.6-1.7-4.3c0-1.7,0.6-3.1,1.8-4.3c1.2-1.2,2.6-1.8,4.3-1.8c0.9,0,1.8,0.2,2.6,0.6
			c0.8,0.4,1.5,1,2.2,1.8l-1.3,1.2c-1-1.3-2.1-1.9-3.5-1.9c-1.2,0-2.3,0.4-3.1,1.3C3,91,2.6,92,2.6,93.3c0,1.3,0.5,2.4,1.4,3.2
			c0.9,0.8,1.8,1.2,2.8,1.2c0.9,0,1.6-0.3,2.3-0.9c0.7-0.6,1.1-1.3,1.2-2.1H7.4V93z"/>
		<path fill="#016B70" d="M14.2,93.2c0-1.6,0.6-3.1,1.8-4.2c1.2-1.2,2.6-1.8,4.3-1.8c1.7,0,3.1,0.6,4.3,1.8c1.2,1.2,1.8,2.6,1.8,4.3
			c0,1.7-0.6,3.1-1.8,4.3c-1.2,1.2-2.7,1.8-4.4,1.8c-1.5,0-2.9-0.5-4.1-1.6C14.9,96.6,14.2,95.1,14.2,93.2z M16,93.3
			c0,1.3,0.4,2.3,1.3,3.2c0.9,0.8,1.9,1.2,3,1.2c1.2,0,2.3-0.4,3.1-1.3c0.8-0.9,1.3-1.9,1.3-3.1c0-1.2-0.4-2.3-1.2-3.1
			c-0.8-0.8-1.8-1.3-3.1-1.3c-1.2,0-2.2,0.4-3.1,1.3C16.4,91,16,92,16,93.3z"/>
		<path fill="#016B70" d="M28.4,95.4c0-1.1,0.4-2,1.1-2.7c0.8-0.7,1.7-1.1,2.8-1.1c1.1,0,2,0.4,2.8,1.1c0.8,0.8,1.1,1.7,1.1,2.8
			c0,1.1-0.4,2-1.1,2.8c-0.8,0.7-1.7,1.1-2.8,1.1c-1.1,0-2-0.4-2.8-1.1C28.7,97.5,28.4,96.5,28.4,95.4z M30.1,95.4
			c0,0.7,0.2,1.3,0.6,1.7c0.4,0.4,0.9,0.6,1.6,0.6c0.7,0,1.2-0.2,1.6-0.6c0.4-0.4,0.6-1,0.6-1.7s-0.2-1.3-0.6-1.7
			c-0.4-0.4-0.9-0.6-1.6-0.6c-0.7,0-1.2,0.2-1.6,0.6C30.3,94.2,30.1,94.7,30.1,95.4z"/>
		<path fill="#016B70" d="M42.7,93l-1.4,0.7c-0.2-0.4-0.5-0.7-0.8-0.7c-0.2,0-0.3,0.1-0.4,0.2c-0.1,0.1-0.2,0.2-0.2,0.4
			c0,0.3,0.3,0.6,1,0.8c0.9,0.4,1.5,0.7,1.8,1.1c0.3,0.3,0.5,0.8,0.5,1.3c0,0.7-0.3,1.3-0.8,1.8c-0.5,0.5-1.1,0.7-1.8,0.7
			c-1.2,0-2.1-0.6-2.6-1.8l1.5-0.7c0.2,0.4,0.4,0.6,0.5,0.7c0.2,0.2,0.5,0.3,0.7,0.3c0.6,0,0.9-0.3,0.9-0.8c0-0.3-0.2-0.6-0.7-0.8
			c-0.2-0.1-0.3-0.2-0.5-0.3c-0.2-0.1-0.3-0.2-0.5-0.2c-0.5-0.2-0.8-0.5-1-0.7c-0.3-0.3-0.4-0.7-0.4-1.2c0-0.6,0.2-1.2,0.7-1.6
			c0.4-0.4,1-0.6,1.6-0.6C41.5,91.6,42.2,92,42.7,93z"/>
		<path fill="#016B70" d="M50.5,91.8h1.7v7.4h-1.7v-0.8c-0.7,0.7-1.5,1-2.3,1c-1,0-1.9-0.4-2.5-1.1c-0.7-0.7-1-1.7-1-2.8
			c0-1.1,0.3-2,1-2.8c0.7-0.7,1.5-1.1,2.5-1.1c0.9,0,1.6,0.4,2.3,1.1V91.8z M46.4,95.4c0,0.7,0.2,1.3,0.6,1.7
			c0.4,0.4,0.9,0.7,1.5,0.7c0.6,0,1.1-0.2,1.5-0.6c0.4-0.4,0.6-1,0.6-1.7c0-0.7-0.2-1.3-0.6-1.7c-0.4-0.4-0.9-0.7-1.5-0.7
			c-0.6,0-1.1,0.2-1.5,0.7C46.6,94.2,46.4,94.8,46.4,95.4z"/>
		<path fill="#016B70" d="M56.5,93.4v5.8h-1.7v-5.8h-0.6v-1.6h0.6v-2.8c0-0.9,0.2-1.6,0.5-2c0.4-0.5,1.1-0.8,1.9-0.8
			c0.3,0,0.7,0.1,1.1,0.3v1.7l-0.2-0.1c-0.4-0.2-0.7-0.3-0.9-0.3c-0.3,0-0.5,0.1-0.6,0.3c-0.1,0.2-0.2,0.6-0.2,1.2v2.4h1.9v1.6H56.5
			z"/>
		<path fill="#016B70" d="M66.6,95.8h-5.3c0,0.6,0.2,1.1,0.6,1.4c0.3,0.4,0.8,0.5,1.3,0.5c0.4,0,0.8-0.1,1.1-0.3
			c0.3-0.2,0.6-0.6,0.9-1.1l1.4,0.8c-0.2,0.4-0.5,0.7-0.7,1c-0.2,0.3-0.5,0.5-0.8,0.7c-0.3,0.2-0.6,0.3-0.9,0.4
			c-0.3,0.1-0.7,0.1-1.1,0.1c-1.1,0-2-0.4-2.6-1.1c-0.7-0.7-1-1.7-1-2.8c0-1.2,0.3-2.1,1-2.8c0.6-0.7,1.5-1.1,2.6-1.1
			c1.1,0,1.9,0.3,2.6,1c0.6,0.7,0.9,1.6,0.9,2.8L66.6,95.8z M64.9,94.5c-0.2-0.9-0.8-1.4-1.7-1.4c-0.2,0-0.4,0-0.6,0.1
			c-0.2,0.1-0.3,0.2-0.5,0.3c-0.1,0.1-0.3,0.3-0.4,0.4c-0.1,0.2-0.2,0.4-0.2,0.6H64.9z"/>
		<path fill="#016B70" d="M73.8,88.7c0-0.3,0.1-0.6,0.3-0.8c0.2-0.2,0.5-0.3,0.8-0.3c0.3,0,0.6,0.1,0.8,0.3c0.2,0.2,0.3,0.5,0.3,0.8
			c0,0.3-0.1,0.6-0.3,0.8c-0.2,0.2-0.5,0.3-0.8,0.3c-0.3,0-0.6-0.1-0.8-0.3C73.9,89.3,73.8,89,73.8,88.7z M75.7,91.8v7.4H74v-7.4
			H75.7z"/>
		<path fill="#016B70" d="M78.3,91.8H80v0.7c0.6-0.6,1.3-0.9,2-0.9c0.9,0,1.5,0.3,2,0.8c0.4,0.5,0.6,1.2,0.6,2.2v4.5h-1.7V95
			c0-0.7-0.1-1.2-0.3-1.5c-0.2-0.3-0.6-0.4-1.1-0.4c-0.6,0-1,0.2-1.2,0.6c-0.2,0.4-0.3,1-0.3,1.9v3.5h-1.7V91.8z"/>
		<path fill="#016B70" d="M94.4,87.5v11.7h-1.8V87.5H94.4z"/>
		<path fill="#016B70" d="M98.2,87.5l3.2,8.1l3.3-8.1h1.9l-5.2,12.5l-5.1-12.5H98.2z"/>
		<path fill="#016B70" d="M114.3,89.1h-4.1v2.8h3.9v1.7h-3.9v5.6h-1.8V87.5h5.8V89.1z"/>
		<path fill="#016B70" d="M123.6,87.5v10h3.4v1.7h-5.2V87.5H123.6z"/>
		<path fill="#016B70" d="M134.2,91.8h1.7v7.4h-1.7v-0.8c-0.7,0.7-1.5,1-2.3,1c-1,0-1.9-0.4-2.5-1.1c-0.7-0.7-1-1.7-1-2.8
			c0-1.1,0.3-2,1-2.8c0.7-0.7,1.5-1.1,2.5-1.1c0.9,0,1.6,0.4,2.3,1.1V91.8z M130.2,95.4c0,0.7,0.2,1.3,0.6,1.7
			c0.4,0.4,0.9,0.7,1.5,0.7c0.6,0,1.1-0.2,1.5-0.6c0.4-0.4,0.6-1,0.6-1.7c0-0.7-0.2-1.3-0.6-1.7c-0.4-0.4-0.9-0.7-1.5-0.7
			c-0.6,0-1.1,0.2-1.5,0.7C130.4,94.2,130.2,94.8,130.2,95.4z"/>
		<path fill="#016B70" d="M140.1,86.4v6.3c0.7-0.7,1.5-1.1,2.3-1.1c1,0,1.8,0.4,2.5,1.1c0.7,0.7,1,1.7,1,2.8c0,1.1-0.3,2.1-1,2.8
			c-0.7,0.7-1.5,1.1-2.5,1.1c-0.9,0-1.6-0.3-2.3-1v0.8h-1.7V86.4H140.1z M144.2,95.5c0-0.7-0.2-1.3-0.6-1.7
			c-0.4-0.5-0.9-0.7-1.5-0.7c-0.6,0-1.1,0.2-1.5,0.7c-0.4,0.4-0.6,1-0.6,1.7c0,0.7,0.2,1.3,0.6,1.7c0.4,0.4,0.9,0.7,1.5,0.7
			c0.6,0,1.1-0.2,1.5-0.7C144,96.7,144.2,96.2,144.2,95.5z"/>
		<path fill="#016B70" d="M147.8,95.4c0-1.1,0.4-2,1.1-2.7c0.8-0.7,1.7-1.1,2.8-1.1c1.1,0,2,0.4,2.8,1.1c0.8,0.8,1.1,1.7,1.1,2.8
			c0,1.1-0.4,2-1.1,2.8c-0.8,0.7-1.7,1.1-2.8,1.1c-1.1,0-2-0.4-2.8-1.1C148.1,97.5,147.8,96.5,147.8,95.4z M149.5,95.4
			c0,0.7,0.2,1.3,0.6,1.7c0.4,0.4,0.9,0.6,1.6,0.6c0.7,0,1.2-0.2,1.6-0.6c0.4-0.4,0.6-1,0.6-1.7s-0.2-1.3-0.6-1.7
			c-0.4-0.4-0.9-0.6-1.6-0.6c-0.7,0-1.2,0.2-1.6,0.6C149.7,94.2,149.5,94.7,149.5,95.4z"/>
		<path fill="#016B70" d="M157.8,91.8h1.7v0.7c0.3-0.3,0.6-0.6,0.8-0.7c0.2-0.1,0.5-0.2,0.9-0.2c0.4,0,0.9,0.1,1.4,0.4l-0.8,1.6
			c-0.3-0.2-0.6-0.3-0.9-0.3c-0.9,0-1.4,0.7-1.4,2.1v3.8h-1.7V91.8z"/>
		<path fill="#016B70" d="M169.3,91.8h1.7v7.4h-1.7v-0.8c-0.7,0.7-1.5,1-2.3,1c-1,0-1.9-0.4-2.5-1.1c-0.7-0.7-1-1.7-1-2.8
			c0-1.1,0.3-2,1-2.8c0.7-0.7,1.5-1.1,2.5-1.1c0.9,0,1.6,0.4,2.3,1.1V91.8z M165.3,95.4c0,0.7,0.2,1.3,0.6,1.7
			c0.4,0.4,0.9,0.7,1.5,0.7c0.6,0,1.1-0.2,1.5-0.6c0.4-0.4,0.6-1,0.6-1.7c0-0.7-0.2-1.3-0.6-1.7c-0.4-0.4-0.9-0.7-1.5-0.7
			c-0.6,0-1.1,0.2-1.5,0.7C165.4,94.2,165.3,94.8,165.3,95.4z"/>
		<path fill="#016B70" d="M175.3,93.4v5.8h-1.7v-5.8h-0.7v-1.6h0.7v-2.7h1.7v2.7h1.3v1.6H175.3z"/>
		<path fill="#016B70" d="M177.9,95.4c0-1.1,0.4-2,1.1-2.7c0.8-0.7,1.7-1.1,2.8-1.1c1.1,0,2,0.4,2.8,1.1c0.8,0.8,1.1,1.7,1.1,2.8
			c0,1.1-0.4,2-1.1,2.8c-0.8,0.7-1.7,1.1-2.8,1.1c-1.1,0-2-0.4-2.8-1.1C178.3,97.5,177.9,96.5,177.9,95.4z M179.6,95.4
			c0,0.7,0.2,1.3,0.6,1.7c0.4,0.4,0.9,0.6,1.6,0.6c0.7,0,1.2-0.2,1.6-0.6c0.4-0.4,0.6-1,0.6-1.7s-0.2-1.3-0.6-1.7
			c-0.4-0.4-0.9-0.6-1.6-0.6c-0.7,0-1.2,0.2-1.6,0.6C179.8,94.2,179.6,94.7,179.6,95.4z"/>
		<path fill="#016B70" d="M187.9,91.8h1.7v0.7c0.3-0.3,0.6-0.6,0.8-0.7c0.2-0.1,0.5-0.2,0.9-0.2c0.4,0,0.9,0.1,1.4,0.4l-0.8,1.6
			c-0.3-0.2-0.6-0.3-0.9-0.3c-0.9,0-1.4,0.7-1.4,2.1v3.8h-1.7V91.8z"/>
		<path fill="#016B70" d="M194.1,88.7c0-0.3,0.1-0.6,0.3-0.8c0.2-0.2,0.5-0.3,0.8-0.3c0.3,0,0.6,0.1,0.8,0.3
			c0.2,0.2,0.3,0.5,0.3,0.8c0,0.3-0.1,0.6-0.3,0.8c-0.2,0.2-0.5,0.3-0.8,0.3c-0.3,0-0.6-0.1-0.8-0.3C194.2,89.3,194.1,89,194.1,88.7
			z M196,91.8v7.4h-1.7v-7.4H196z"/>
		<path fill="#016B70" d="M205.3,95.8H200c0,0.6,0.2,1.1,0.6,1.4c0.3,0.4,0.8,0.5,1.3,0.5c0.4,0,0.8-0.1,1.1-0.3
			c0.3-0.2,0.6-0.6,0.9-1.1l1.4,0.8c-0.2,0.4-0.5,0.7-0.7,1c-0.2,0.3-0.5,0.5-0.8,0.7c-0.3,0.2-0.6,0.3-0.9,0.4
			c-0.3,0.1-0.7,0.1-1.1,0.1c-1.1,0-2-0.4-2.6-1.1c-0.7-0.7-1-1.7-1-2.8c0-1.2,0.3-2.1,1-2.8c0.6-0.7,1.5-1.1,2.6-1.1
			c1.1,0,1.9,0.3,2.6,1c0.6,0.7,0.9,1.6,0.9,2.8L205.3,95.8z M203.5,94.5c-0.2-0.9-0.8-1.4-1.7-1.4c-0.2,0-0.4,0-0.6,0.1
			c-0.2,0.1-0.3,0.2-0.5,0.3c-0.1,0.1-0.3,0.3-0.4,0.4c-0.1,0.2-0.2,0.4-0.2,0.6H203.5z"/>
		<path fill="#016B70" d="M211.8,93l-1.4,0.7c-0.2-0.4-0.5-0.7-0.8-0.7c-0.2,0-0.3,0.1-0.4,0.2c-0.1,0.1-0.2,0.2-0.2,0.4
			c0,0.3,0.3,0.6,1,0.8c0.9,0.4,1.5,0.7,1.8,1.1c0.3,0.3,0.5,0.8,0.5,1.3c0,0.7-0.3,1.3-0.8,1.8c-0.5,0.5-1.1,0.7-1.8,0.7
			c-1.2,0-2.1-0.6-2.6-1.8l1.5-0.7c0.2,0.4,0.4,0.6,0.5,0.7c0.2,0.2,0.5,0.3,0.7,0.3c0.6,0,0.9-0.3,0.9-0.8c0-0.3-0.2-0.6-0.7-0.8
			c-0.2-0.1-0.3-0.2-0.5-0.3c-0.2-0.1-0.3-0.2-0.5-0.2c-0.5-0.2-0.8-0.5-1-0.7c-0.3-0.3-0.4-0.7-0.4-1.2c0-0.6,0.2-1.2,0.7-1.6
			c0.4-0.4,1-0.6,1.6-0.6C210.7,91.6,211.4,92,211.8,93z"/>
	</g>
	<path fill="#016B70" d="M14.8,36.7l-2.1,2.1c-1.7-1.7-3.4-2.5-5-2.5c-1,0-1.9,0.3-2.7,1C4.4,38,4,38.8,4,39.8
		c0,0.8,0.3,1.6,0.9,2.3c0.6,0.7,1.9,1.6,3.8,2.6c2.4,1.2,4,2.4,4.8,3.6c0.8,1.2,1.3,2.5,1.3,3.9c0,2-0.7,3.8-2.1,5.2
		c-1.4,1.4-3.2,2.1-5.4,2.1c-1.4,0-2.8-0.3-4.1-0.9C1.9,57.9,0.9,57,0,55.9l2-2.3c1.6,1.8,3.4,2.8,5.2,2.8c1.3,0,2.4-0.4,3.3-1.2
		c0.9-0.8,1.3-1.8,1.3-2.9c0-0.9-0.3-1.7-0.9-2.4c-0.6-0.7-1.9-1.6-4-2.6c-2.2-1.2-3.8-2.3-4.6-3.4c-0.8-1.1-1.2-2.4-1.2-3.9
		c0-1.9,0.6-3.4,1.9-4.7C4.3,34,6,33.3,7.9,33.3C10.2,33.3,12.5,34.5,14.8,36.7z"/>
	<path fill="#016B70" d="M19.6,34h3.2v4.6c1.3-1.7,2.7-3,4.3-3.9c1.6-0.9,3.5-1.3,5.5-1.3c3.5,0,6.5,1.3,9,3.8
		c2.5,2.5,3.8,5.6,3.8,9.2c0,3.6-1.2,6.7-3.7,9.3c-2.5,2.5-5.5,3.8-9,3.8c-2,0-3.8-0.4-5.4-1.2c-1.7-0.8-3.1-2-4.5-3.7v13.3h-3.2V34
		z M32.4,36.4c-2.8,0-5.1,1-7,2.9c-1.9,1.9-2.8,4.3-2.8,7.2c0,1.9,0.4,3.6,1.3,5.1c0.8,1.5,2,2.7,3.6,3.6c1.6,0.9,3.2,1.3,5,1.3
		c1.7,0,3.3-0.4,4.8-1.3c1.5-0.9,2.7-2.1,3.6-3.7c0.9-1.6,1.3-3.3,1.3-5c0-1.8-0.4-3.4-1.3-5c-0.9-1.6-2.1-2.8-3.6-3.7
		C35.8,36.9,34.2,36.4,32.4,36.4z"/>
	<path fill="#016B70" d="M76.1,34v24.8H73v-4.3c-1.3,1.6-2.8,2.8-4.5,3.7C66.8,59,65,59.4,63,59.4c-3.5,0-6.5-1.3-9-3.8
		c-2.5-2.5-3.7-5.6-3.7-9.3c0-3.6,1.3-6.6,3.8-9.2c2.5-2.5,5.5-3.8,9-3.8c2,0,3.9,0.4,5.5,1.3c1.6,0.9,3.1,2.2,4.3,3.9V34H76.1z
		 M63.4,36.4c-1.8,0-3.4,0.4-4.9,1.3c-1.5,0.9-2.7,2.1-3.6,3.7c-0.9,1.6-1.3,3.2-1.3,5c0,1.7,0.4,3.4,1.3,5c0.9,1.6,2.1,2.8,3.6,3.7
		c1.5,0.9,3.1,1.3,4.9,1.3c1.7,0,3.4-0.4,5-1.3c1.6-0.9,2.8-2.1,3.6-3.6c0.8-1.5,1.3-3.2,1.3-5.1c0-2.9-0.9-5.3-2.8-7.2
		C68.5,37.4,66.1,36.4,63.4,36.4z"/>
	<path fill="#016B70" d="M83,34h3.3v3.6c1-1.4,2-2.5,3.1-3.2c1.1-0.7,2.2-1.1,3.4-1.1c0.9,0,1.8,0.3,2.8,0.8l-1.7,2.7
		c-0.7-0.3-1.2-0.4-1.7-0.4c-1.1,0-2.1,0.4-3.1,1.3c-1,0.9-1.7,2.2-2.3,4.1c-0.4,1.4-0.6,4.3-0.6,8.6v8.4H83V34z"/>
	<g>
		<path fill="#016B70" d="M198.7,27.9c-3.8-2-8.3-2.1-9.6-2.1c-0.3,0-0.4,0-0.5,0l-0.2,0l-0.1,0h-4.9v27.4h4.9h0.2l0.2,0h0
			c0,0,0.4,0,1,0c5,0,9.4-1.2,11.2-3.1c2.7-2.9,4.1-6.4,4.1-10.9C205,33.7,203,30.1,198.7,27.9z"/>
		<path fill="#016B70" d="M156.3,0c-31.4,0-56.9,17.9-56.9,40c0,22.1,25.5,40,56.9,40c31.4,0,56.9-17.9,56.9-40
			C213.1,17.9,187.7,0,156.3,0z M143.4,58.3h-4.6V34l-11.9,18H125l-11.7-18.2l-0.1,24.5h-4.8V20.4h2L126,43.5l15.8-23.1h1.6V58.3z
			 M171.9,25.6h-17.2l0.1,27.7h16.9v5.2h-22.1V20.4h22.3V25.6z M167,39.2c0,2.1-1.7,3.8-3.8,3.8s-3.8-1.7-3.8-3.8
			c0-2.1,1.7-3.8,3.8-3.8S167,37.2,167,39.2z M189.7,58.5c-0.8,0-1.3,0-1.3,0h-10.2V20.4h10.2c0,0,0.3,0,0.8,0
			c3.9,0,21.2,1,21.2,18.8c0,6.8-2.6,11.5-5.6,14.5C200.7,58.1,192.8,58.5,189.7,58.5z"/>
	</g>
</g>
</svg>
