<?xml version="1.0" encoding="utf-8"?>
<!-- Generator: Adobe Illustrator 23.0.5, SVG Export Plug-In . SVG Version: 6.00 Build 0)  -->
<svg version="1.1" id="Warstwa_1" xmlns="http://www.w3.org/2000/svg" xmlns:xlink="http://www.w3.org/1999/xlink" x="0px" y="0px"
	 viewBox="0 0 218.2 106.2" enable-background="new 0 0 218.2 106.2" xml:space="preserve">
<path fill="#59BCCB" d="M8.9,96.7h4.8V97c0,0.9-0.1,1.7-0.3,2.3c-0.2,0.6-0.5,1.2-1,1.8c-1.1,1.2-2.5,1.8-4.1,1.8
	c-1.6,0-3-0.6-4.2-1.8c-1.2-1.2-1.7-2.6-1.7-4.3c0-1.7,0.6-3.1,1.8-4.3c1.2-1.2,2.6-1.8,4.3-1.8c0.9,0,1.8,0.2,2.6,0.6
	c0.8,0.4,1.5,1,2.2,1.8L12,94.4c-1-1.3-2.1-1.9-3.5-1.9c-1.2,0-2.3,0.4-3.1,1.3c-0.8,0.8-1.3,1.9-1.3,3.1c0,1.3,0.5,2.4,1.4,3.2
	c0.9,0.8,1.8,1.2,2.8,1.2c0.9,0,1.6-0.3,2.3-0.9c0.7-0.6,1.1-1.3,1.2-2.1H8.9V96.7z"/>
<path fill="#59BCCB" d="M15.8,96.8c0-1.6,0.6-3.1,1.8-4.2c1.2-1.2,2.6-1.8,4.3-1.8c1.7,0,3.1,0.6,4.3,1.8c1.2,1.2,1.8,2.6,1.8,4.3
	c0,1.7-0.6,3.1-1.8,4.3c-1.2,1.2-2.7,1.8-4.4,1.8c-1.5,0-2.9-0.5-4.1-1.6C16.4,100.2,15.8,98.7,15.8,96.8 M17.6,96.9
	c0,1.3,0.4,2.3,1.3,3.2c0.9,0.8,1.9,1.2,3,1.2c1.2,0,2.3-0.4,3.1-1.3c0.8-0.9,1.3-1.9,1.3-3.1c0-1.2-0.4-2.3-1.2-3.1
	c-0.8-0.8-1.8-1.3-3.1-1.3c-1.2,0-2.2,0.4-3.1,1.3C18,94.6,17.6,95.6,17.6,96.9"/>
<path fill="#59BCCB" d="M29.9,99c0-1.1,0.4-2,1.1-2.7c0.8-0.7,1.7-1.1,2.8-1.1c1.1,0,2,0.4,2.8,1.1c0.8,0.8,1.1,1.7,1.1,2.8
	c0,1.1-0.4,2-1.1,2.8c-0.8,0.7-1.7,1.1-2.8,1.1c-1.1,0-2-0.4-2.8-1.1C30.3,101.1,29.9,100.1,29.9,99 M31.6,99c0,0.7,0.2,1.3,0.6,1.7
	c0.4,0.4,0.9,0.6,1.6,0.6c0.7,0,1.2-0.2,1.6-0.6c0.4-0.4,0.6-1,0.6-1.7c0-0.7-0.2-1.3-0.6-1.7c-0.4-0.4-0.9-0.6-1.6-0.6
	c-0.6,0-1.2,0.2-1.6,0.6C31.8,97.8,31.6,98.3,31.6,99"/>
<path fill="#59BCCB" d="M44.2,96.6l-1.4,0.7c-0.2-0.4-0.5-0.7-0.8-0.7c-0.2,0-0.3,0.1-0.4,0.2c-0.1,0.1-0.2,0.2-0.2,0.4
	c0,0.3,0.3,0.6,1,0.8c0.9,0.4,1.5,0.7,1.8,1.1c0.3,0.3,0.5,0.8,0.5,1.3c0,0.7-0.3,1.3-0.8,1.8c-0.5,0.5-1.1,0.7-1.8,0.7
	c-1.2,0-2.1-0.6-2.6-1.8l1.5-0.7c0.2,0.4,0.4,0.6,0.5,0.7c0.2,0.2,0.5,0.3,0.7,0.3c0.6,0,0.9-0.3,0.9-0.8c0-0.3-0.2-0.6-0.7-0.8
	c-0.2-0.1-0.3-0.2-0.5-0.3c-0.2-0.1-0.3-0.2-0.5-0.2c-0.5-0.2-0.8-0.5-1-0.7c-0.3-0.3-0.4-0.7-0.4-1.2c0-0.6,0.2-1.2,0.7-1.6
	c0.4-0.4,1-0.6,1.6-0.6C43.1,95.2,43.8,95.7,44.2,96.6"/>
<path fill="#59BCCB" d="M52,95.4h1.7v7.4H52V102c-0.7,0.7-1.5,1-2.3,1c-1,0-1.9-0.4-2.5-1.1c-0.7-0.8-1-1.7-1-2.8c0-1.1,0.3-2,1-2.8
	c0.7-0.7,1.5-1.1,2.5-1.1c0.9,0,1.6,0.4,2.3,1.1V95.4z M48,99c0,0.7,0.2,1.3,0.6,1.7c0.4,0.4,0.9,0.7,1.5,0.7c0.6,0,1.1-0.2,1.5-0.6
	c0.4-0.4,0.6-1,0.6-1.7c0-0.7-0.2-1.3-0.6-1.7c-0.4-0.4-0.9-0.7-1.5-0.7c-0.6,0-1.1,0.2-1.5,0.7C48.2,97.8,48,98.4,48,99"/>
<path fill="#59BCCB" d="M58,97v5.8h-1.7V97h-0.6v-1.6h0.6v-2.8c0-0.9,0.2-1.6,0.5-2c0.4-0.5,1.1-0.8,1.9-0.8c0.3,0,0.7,0.1,1.1,0.3
	v1.7l-0.2-0.1c-0.4-0.2-0.7-0.3-0.9-0.3c-0.3,0-0.5,0.1-0.6,0.3c-0.1,0.2-0.2,0.6-0.2,1.2v2.4h1.9V97H58z"/>
<path fill="#59BCCB" d="M68.2,99.5h-5.3c0,0.6,0.2,1.1,0.6,1.4c0.3,0.4,0.8,0.5,1.3,0.5c0.4,0,0.8-0.1,1-0.3
	c0.3-0.2,0.6-0.6,0.9-1.1l1.4,0.8c-0.2,0.4-0.5,0.7-0.7,1c-0.2,0.3-0.5,0.5-0.8,0.7c-0.3,0.2-0.6,0.3-0.9,0.4
	c-0.3,0.1-0.7,0.1-1.1,0.1c-1.1,0-2-0.4-2.6-1.1c-0.7-0.7-1-1.7-1-2.8c0-1.2,0.3-2.1,1-2.8c0.6-0.7,1.5-1.1,2.6-1.1
	c1.1,0,1.9,0.3,2.6,1c0.6,0.7,0.9,1.6,0.9,2.8L68.2,99.5z M66.4,98.1c-0.2-0.9-0.8-1.4-1.7-1.4c-0.2,0-0.4,0-0.6,0.1
	c-0.2,0.1-0.3,0.2-0.5,0.3c-0.1,0.1-0.3,0.3-0.4,0.4c-0.1,0.2-0.2,0.4-0.2,0.6H66.4z"/>
<path fill="#59BCCB" d="M75.3,92.3c0-0.3,0.1-0.6,0.3-0.8c0.2-0.2,0.5-0.3,0.8-0.3c0.3,0,0.6,0.1,0.8,0.3c0.2,0.2,0.3,0.5,0.3,0.8
	s-0.1,0.6-0.3,0.8c-0.2,0.2-0.5,0.3-0.8,0.3c-0.3,0-0.6-0.1-0.8-0.3C75.4,92.9,75.3,92.6,75.3,92.3 M77.3,102.7h-1.7v-7.4h1.7V102.7
	z"/>
<path fill="#59BCCB" d="M79.8,95.4h1.7v0.7c0.6-0.6,1.3-0.9,2-0.9c0.9,0,1.5,0.3,2,0.8c0.4,0.5,0.6,1.2,0.6,2.2v4.5h-1.7v-4.1
	c0-0.7-0.1-1.2-0.3-1.5c-0.2-0.3-0.6-0.4-1.1-0.4c-0.6,0-1,0.2-1.2,0.6c-0.2,0.4-0.3,1-0.3,1.9v3.5h-1.7V95.4z"/>
<rect x="94.2" y="91.1" fill="#59BCCB" width="1.8" height="11.7"/>
<polygon fill="#59BCCB" points="99.7,91.1 103,99.1 106.2,91.1 108.2,91.1 102.9,103.6 97.8,91.1 "/>
<polygon fill="#59BCCB" points="115.8,92.7 111.8,92.7 111.8,95.5 115.7,95.5 115.7,97.2 111.8,97.2 111.8,102.7 110,102.7 
	110,91.1 115.8,91.1 "/>
<polygon fill="#59BCCB" points="125.2,91.1 125.2,101.1 128.6,101.1 128.6,102.7 123.4,102.7 123.4,91.1 "/>
<path fill="#59BCCB" d="M135.8,95.4h1.7v7.4h-1.7V102c-0.7,0.7-1.5,1-2.3,1c-1,0-1.9-0.4-2.5-1.1c-0.7-0.8-1-1.7-1-2.8
	c0-1.1,0.3-2,1-2.8c0.7-0.7,1.5-1.1,2.5-1.1c0.9,0,1.6,0.4,2.3,1.1V95.4z M131.7,99c0,0.7,0.2,1.3,0.6,1.7c0.4,0.4,0.9,0.7,1.5,0.7
	c0.6,0,1.1-0.2,1.5-0.6c0.4-0.4,0.6-1,0.6-1.7c0-0.7-0.2-1.3-0.6-1.7c-0.4-0.4-0.9-0.7-1.5-0.7c-0.6,0-1.1,0.2-1.5,0.7
	C131.9,97.8,131.7,98.4,131.7,99"/>
<path fill="#59BCCB" d="M141.7,90v6.3c0.7-0.7,1.5-1.1,2.3-1.1c1,0,1.8,0.4,2.5,1.1c0.7,0.7,1,1.7,1,2.8c0,1.1-0.3,2.1-1,2.8
	c-0.7,0.7-1.5,1.1-2.5,1.1c-0.9,0-1.6-0.3-2.3-1v0.8H140V90H141.7z M145.7,99.1c0-0.7-0.2-1.3-0.6-1.7c-0.4-0.5-0.9-0.7-1.5-0.7
	c-0.6,0-1.1,0.2-1.5,0.7c-0.4,0.4-0.6,1-0.6,1.7c0,0.7,0.2,1.3,0.6,1.7c0.4,0.4,0.9,0.7,1.5,0.7c0.6,0,1.1-0.2,1.5-0.7
	C145.5,100.3,145.7,99.8,145.7,99.1"/>
<path fill="#59BCCB" d="M149.3,99c0-1.1,0.4-2,1.1-2.7c0.8-0.7,1.7-1.1,2.8-1.1c1.1,0,2,0.4,2.8,1.1c0.8,0.8,1.1,1.7,1.1,2.8
	c0,1.1-0.4,2-1.1,2.8c-0.8,0.7-1.7,1.1-2.8,1.1c-1.1,0-2-0.4-2.8-1.1C149.7,101.1,149.3,100.1,149.3,99 M151,99
	c0,0.7,0.2,1.3,0.6,1.7c0.4,0.4,0.9,0.6,1.6,0.6c0.7,0,1.2-0.2,1.6-0.6c0.4-0.4,0.6-1,0.6-1.7c0-0.7-0.2-1.3-0.6-1.7
	c-0.4-0.4-0.9-0.6-1.6-0.6c-0.6,0-1.2,0.2-1.6,0.6C151.2,97.8,151,98.3,151,99"/>
<path fill="#59BCCB" d="M159.3,95.4h1.7V96c0.3-0.3,0.6-0.6,0.8-0.7c0.2-0.1,0.5-0.2,0.9-0.2c0.4,0,0.9,0.1,1.4,0.4l-0.8,1.6
	c-0.3-0.2-0.6-0.3-0.9-0.3c-0.9,0-1.4,0.7-1.4,2.1v3.8h-1.7V95.4z"/>
<path fill="#59BCCB" d="M170.8,95.4h1.7v7.4h-1.7V102c-0.7,0.7-1.5,1-2.3,1c-1,0-1.9-0.4-2.5-1.1c-0.7-0.8-1-1.7-1-2.8
	c0-1.1,0.3-2,1-2.8c0.7-0.7,1.5-1.1,2.5-1.1c0.9,0,1.6,0.4,2.3,1.1V95.4z M166.8,99c0,0.7,0.2,1.3,0.6,1.7c0.4,0.4,0.9,0.7,1.5,0.7
	c0.6,0,1.1-0.2,1.5-0.6c0.4-0.4,0.6-1,0.6-1.7c0-0.7-0.2-1.3-0.6-1.7c-0.4-0.4-0.9-0.7-1.5-0.7c-0.6,0-1.1,0.2-1.5,0.7
	C167,97.8,166.8,98.4,166.8,99"/>
<polygon fill="#59BCCB" points="176.8,97 176.8,102.7 175.1,102.7 175.1,97 174.4,97 174.4,95.4 175.1,95.4 175.1,92.7 176.8,92.7 
	176.8,95.4 178.2,95.4 178.2,97 "/>
<path fill="#59BCCB" d="M179.5,99c0-1.1,0.4-2,1.1-2.7c0.8-0.7,1.7-1.1,2.8-1.1c1.1,0,2,0.4,2.8,1.1c0.8,0.8,1.1,1.7,1.1,2.8
	c0,1.1-0.4,2-1.1,2.8c-0.8,0.7-1.7,1.1-2.8,1.1c-1.1,0-2-0.4-2.8-1.1C179.8,101.1,179.5,100.1,179.5,99 M181.2,99
	c0,0.7,0.2,1.3,0.6,1.7c0.4,0.4,0.9,0.6,1.6,0.6c0.7,0,1.2-0.2,1.6-0.6c0.4-0.4,0.6-1,0.6-1.7c0-0.7-0.2-1.3-0.6-1.7
	c-0.4-0.4-0.9-0.6-1.6-0.6c-0.7,0-1.2,0.2-1.6,0.6C181.4,97.8,181.2,98.3,181.2,99"/>
<path fill="#59BCCB" d="M189.5,95.4h1.7V96c0.3-0.3,0.6-0.6,0.8-0.7c0.2-0.1,0.5-0.2,0.9-0.2c0.4,0,0.9,0.1,1.4,0.4l-0.8,1.6
	c-0.3-0.2-0.6-0.3-0.9-0.3c-0.9,0-1.4,0.7-1.4,2.1v3.8h-1.7V95.4z"/>
<path fill="#59BCCB" d="M195.6,92.3c0-0.3,0.1-0.6,0.3-0.8c0.2-0.2,0.5-0.3,0.8-0.3c0.3,0,0.6,0.1,0.8,0.3c0.2,0.2,0.3,0.5,0.3,0.8
	s-0.1,0.6-0.3,0.8c-0.2,0.2-0.5,0.3-0.8,0.3s-0.6-0.1-0.8-0.3C195.7,92.9,195.6,92.6,195.6,92.3 M197.6,102.7h-1.7v-7.4h1.7V102.7z"
	/>
<path fill="#59BCCB" d="M206.8,99.5h-5.3c0,0.6,0.2,1.1,0.6,1.4c0.3,0.4,0.8,0.5,1.3,0.5c0.4,0,0.8-0.1,1.1-0.3
	c0.3-0.2,0.6-0.6,0.9-1.1l1.4,0.8c-0.2,0.4-0.5,0.7-0.7,1c-0.2,0.3-0.5,0.5-0.8,0.7c-0.3,0.2-0.6,0.3-0.9,0.4
	c-0.3,0.1-0.7,0.1-1.1,0.1c-1.1,0-2-0.4-2.6-1.1c-0.7-0.7-1-1.7-1-2.8c0-1.2,0.3-2.1,1-2.8c0.6-0.7,1.5-1.1,2.6-1.1
	c1.1,0,1.9,0.3,2.6,1c0.6,0.7,0.9,1.6,0.9,2.8L206.8,99.5z M205.1,98.1c-0.2-0.9-0.8-1.4-1.7-1.4c-0.2,0-0.4,0-0.6,0.1
	c-0.2,0.1-0.3,0.2-0.5,0.3c-0.1,0.1-0.3,0.3-0.4,0.4c-0.1,0.2-0.2,0.4-0.2,0.6H205.1z"/>
<path fill="#59BCCB" d="M213.4,96.6l-1.4,0.7c-0.2-0.4-0.5-0.7-0.8-0.7c-0.2,0-0.3,0.1-0.4,0.2c-0.1,0.1-0.2,0.2-0.2,0.4
	c0,0.3,0.3,0.6,1,0.8c0.9,0.4,1.5,0.7,1.8,1.1c0.3,0.3,0.5,0.8,0.5,1.3c0,0.7-0.3,1.3-0.8,1.8c-0.5,0.5-1.1,0.7-1.8,0.7
	c-1.2,0-2.1-0.6-2.6-1.8l1.5-0.7c0.2,0.4,0.4,0.6,0.5,0.7c0.2,0.2,0.5,0.3,0.7,0.3c0.6,0,0.9-0.3,0.9-0.8c0-0.3-0.2-0.6-0.7-0.8
	c-0.2-0.1-0.3-0.2-0.5-0.3c-0.2-0.1-0.3-0.2-0.5-0.2c-0.5-0.2-0.8-0.5-1-0.7c-0.3-0.3-0.4-0.7-0.4-1.2c0-0.6,0.2-1.2,0.7-1.6
	c0.4-0.4,1-0.6,1.6-0.6C212.2,95.2,212.9,95.7,213.4,96.6"/>
<path fill="#59BCCB" d="M16.4,40.3l-2.1,2.1c-1.7-1.7-3.4-2.5-5-2.5c-1,0-1.9,0.3-2.7,1c-0.7,0.7-1.1,1.5-1.1,2.4
	c0,0.8,0.3,1.6,0.9,2.3c0.6,0.7,1.9,1.6,3.8,2.6c2.4,1.2,4,2.4,4.8,3.6c0.8,1.2,1.3,2.5,1.3,3.9c0,2-0.7,3.8-2.1,5.2
	C12.8,62.3,11,63,8.9,63c-1.4,0-2.8-0.3-4.1-0.9c-1.3-0.6-2.4-1.5-3.2-2.6l2-2.3C5.2,59.1,6.9,60,8.7,60c1.3,0,2.4-0.4,3.3-1.2
	c0.9-0.8,1.3-1.8,1.3-2.9c0-0.9-0.3-1.7-0.9-2.4c-0.6-0.7-1.9-1.6-4-2.6c-2.2-1.2-3.8-2.3-4.6-3.4c-0.8-1.1-1.2-2.4-1.2-3.9
	c0-1.9,0.6-3.4,1.9-4.7C5.9,37.6,7.5,37,9.5,37C11.8,37,14,38.1,16.4,40.3"/>
<path fill="#59BCCB" d="M21.2,37.6h3.2v4.6c1.3-1.7,2.7-3,4.3-3.9c1.6-0.9,3.5-1.3,5.5-1.3c3.5,0,6.5,1.3,9,3.8
	c2.5,2.5,3.8,5.6,3.8,9.2c0,3.6-1.2,6.7-3.7,9.3c-2.5,2.5-5.5,3.8-9,3.8c-2,0-3.8-0.4-5.4-1.2c-1.7-0.8-3.1-2-4.5-3.7v13.3h-3.2
	V37.6z M33.9,40c-2.8,0-5.1,1-7,2.9c-1.9,1.9-2.8,4.3-2.8,7.2c0,1.9,0.4,3.6,1.3,5.1c0.8,1.5,2,2.7,3.6,3.6c1.6,0.9,3.2,1.3,5,1.3
	c1.7,0,3.3-0.4,4.8-1.3s2.7-2.1,3.6-3.7c0.9-1.6,1.3-3.3,1.3-5c0-1.8-0.4-3.4-1.3-5c-0.9-1.6-2.1-2.8-3.6-3.7
	C37.3,40.5,35.7,40,33.9,40"/>
<path fill="#59BCCB" d="M77.7,37.6v24.8h-3.1v-4.3c-1.3,1.6-2.8,2.8-4.5,3.7c-1.7,0.8-3.5,1.2-5.5,1.2c-3.5,0-6.5-1.3-9-3.8
	c-2.5-2.5-3.7-5.6-3.7-9.3c0-3.6,1.3-6.6,3.8-9.2c2.5-2.5,5.5-3.8,9-3.8c2,0,3.9,0.4,5.5,1.3c1.6,0.9,3.1,2.2,4.3,3.9v-4.6H77.7z
	 M64.9,40c-1.8,0-3.4,0.4-4.9,1.3c-1.5,0.9-2.7,2.1-3.6,3.7c-0.9,1.6-1.3,3.2-1.3,5c0,1.7,0.4,3.4,1.3,5s2.1,2.8,3.6,3.7
	c1.5,0.9,3.1,1.3,4.9,1.3c1.7,0,3.4-0.4,5-1.3c1.6-0.9,2.8-2.1,3.6-3.6c0.8-1.5,1.3-3.2,1.3-5.1c0-2.9-0.9-5.3-2.8-7.2
	C70,41,67.7,40,64.9,40"/>
<path fill="#59BCCB" d="M84.5,37.6h3.3v3.6c1-1.4,2-2.5,3.1-3.2c1.1-0.7,2.2-1.1,3.4-1.1c0.9,0,1.8,0.3,2.8,0.8l-1.7,2.7
	c-0.7-0.3-1.2-0.4-1.7-0.4c-1.1,0-2.1,0.4-3.1,1.3c-1,0.9-1.7,2.2-2.3,4.1c-0.4,1.4-0.6,4.3-0.6,8.6v8.4h-3.3V37.6z"/>
<path fill="#59BCCB" d="M200.3,31.5c-3.8-2-8.3-2.1-9.6-2.1c-0.3,0-0.4,0-0.5,0l-0.2,0l-0.1,0H185v27.4h4.9h0.2l0.2,0c0,0,0.4,0,1,0
	c5,0,9.4-1.2,11.2-3.1c2.7-2.9,4.1-6.4,4.1-10.9C206.5,37.3,204.5,33.7,200.3,31.5"/>
<path fill="#59BCCB" d="M157.8,3.6c-31.4,0-56.9,17.9-56.9,40s25.5,40,56.9,40c31.4,0,56.9-17.9,56.9-40S189.2,3.6,157.8,3.6
	 M145,61.9h-4.6V37.6l-11.9,18h-1.9l-11.7-18.2l-0.1,24.5h-4.8V24h2l15.6,23.1L143.4,24h1.6V61.9z M173.5,29.2h-17.2l0.1,27.7h16.9
	v5.2h-22.1V24h22.3V29.2z M168.5,42.8c0,2.1-1.7,3.8-3.8,3.8c-2.1,0-3.8-1.7-3.8-3.8c0-2.1,1.7-3.8,3.8-3.8
	C166.8,39.1,168.5,40.8,168.5,42.8 M191.2,62.1c-0.8,0-1.3,0-1.3,0h-10.2V24h10.2c0,0,0.3,0,0.8,0c3.9,0,21.2,1,21.2,18.8
	c0,6.8-2.6,11.5-5.6,14.5C202.2,61.7,194.4,62.1,191.2,62.1"/>
</svg>
