<?xml version="1.0" encoding="utf-8"?>
<!-- Generator: Adobe Illustrator 23.0.5, SVG Export Plug-In . SVG Version: 6.00 Build 0)  -->
<svg version="1.1" id="Warstwa_1" xmlns="http://www.w3.org/2000/svg" xmlns:xlink="http://www.w3.org/1999/xlink" x="0px" y="0px"
	 viewBox="0 0 50 50" enable-background="new 0 0 50 50" xml:space="preserve">
<g id="Search_00000051358989333790982090000012457762521585098912_">
	<path fill="currentColor" d="M23.6,40.7C13.9,40.7,6,32.5,6,22.4C6,12.2,13.9,4,23.6,4s17.6,8.2,17.6,18.4
		C41.1,32.5,33.3,40.7,23.6,40.7z M23.6,7.3c-7.9,0-14.3,6.8-14.3,15.1c0,8.3,6.4,15.1,14.3,15.1s14.3-6.8,14.3-15.1
		C37.8,14.1,31.4,7.3,23.6,7.3z"/>
	<path fill="currentColor" d="M44,45.5c-0.4,0-0.9-0.2-1.2-0.5l-9.1-9.6c-0.6-0.7-0.6-1.7,0.1-2.3c0.7-0.6,1.7-0.6,2.3,0.1l9.1,9.6
		c0.6,0.7,0.6,1.7-0.1,2.3C44.9,45.4,44.5,45.5,44,45.5z"/>
</g>
</svg>
